<svg xmlns="http://www.w3.org/2000/svg" width="1241" height="359" fill="none" viewBox="0 0 1241 359"><ellipse cx="1142.2" cy="50.7" fill="#FFDADF" rx="29.6" ry="29.7"/><path fill="#272838" d="M1149.7 46a23.3 23.3 0 00-5.6-3.5c-1-.4-2-.7-2.8-.7l-1.3.1-.5.2-.4.3-.8 1-.3.6-.3.6-.2.6v.5c0 .3 0 .4.2.5.1.2.4.4.8.5l1.4.5 3.3.5c1.2.2 2.4.3 3.8.7a9 9 0 012 .9 5 5 0 012.5 3.5 16.3 16.3 0 010 1.4v.6l-.2.6-.2.5-.2.5c-.2.7-.6 1.4-1.1 2-.5.7-1.1 1.3-1.9 1.8l-1 .5-1.3.4c-.8.2-1.5.2-2.3.2a15 15 0 01-4-.8 26 26 0 01-7-3.5 2.2 2.2 0 012.6-3.7 25 25 0 005.8 3c1 .4 2 .7 2.8.7h1.3l.5-.2.4-.2.8-.7c.2-.3.5-.6.6-1 .4-.9.5-1.7.4-1.8l-.5-.5-1.2-.5c-.9-.3-2-.5-3.2-.6l-3.6-.7a12 12 0 01-2-.7 6 6 0 01-2-1.5l-.5-.7-.3-.7-.2-.7V46v-.3-.7l.1-.6c0-.4.2-.7.3-1l1-2c.4-.6 1-1.2 1.6-1.7l1-.7 1.2-.4c.7-.2 1.5-.2 2.2-.2 1.5.1 2.8.6 4 1.1a22.7 22.7 0 016.3 4.2 1.5 1.5 0 01-2 2.3z"/><path fill="#272838" d="M1144.7 33.1l-.5 31c0 1.3-1 2.3-2.3 2.3a2.3 2.3 0 01-2.2-2.6l3.4-30.7c0-.5.4-.8.9-.8.4 0 .7.4.7.9z"/><ellipse cx="126.4" cy="55" fill="#D1DCFF" rx="34" ry="34.1"/><path fill="#272838" d="M144.7 72.5a497.6 497.6 0 01-36.4-1.2h-.1a1 1 0 01-1-1V36c0-.6.5-1 1-1h34.3c.6 0 1 .4 1 .9a695.6 695.6 0 011.2 36.6zm-4.4-4.4a364.6 364.6 0 011.2-32.1l1 1h-34.2l1-1v34.3l-1-1a712.9 712.9 0 0132-1.2z"/><path fill="#272838" d="M114.4 45.1l4.4-.5c.7 0 1.2.6 1.3 1.5 0 .9-.4 1.6-1 1.7h-.3l-4.4-.5c-.4 0-.8-.6-.7-1.2 0-.5.3-1 .7-1zm3 3.8l10.4.7c.5 0 .9.4.9 1 0 .4-.4.8-.9.8l-10.3.7c-.9 0-1.6-.6-1.7-1.5 0-.9.6-1.7 1.5-1.7h.2zm3.6 4.9l11.3-.6c1 0 1.7.6 1.7 1.5s-.6 1.7-1.5 1.7h-.2l-11.3-.6a1 1 0 010-2zm0 5.2l6.3-.4c.7-.1 1.3.6 1.4 1.5 0 .9-.5 1.6-1.2 1.7h-.2l-6.3-.5c-.5 0-1-.5-.9-1.2 0-.6.4-1 .9-1.1zm10.1-.4l5.4.6c.5 0 .8.5.7 1 0 .5-.3 1-.7 1l-5.4.6c-.7 0-1.3-.6-1.4-1.5 0-.9.5-1.7 1.2-1.7h.2zm-13.8 5.3l10.5.6c.5 0 .9.5.9 1 0 .6-.4 1-.9 1l-10.5.6c-.8 0-1.4-.6-1.5-1.5 0-.9.6-1.6 1.4-1.7h.1zm-9-23.8c2.8-.3 5.7-.4 8.5-.6l4.3-.1 4.3-.1 8.6-.1a41.2 41.2 0 018.5.9 1 1 0 010 2 43.2 43.2 0 01-8.6.9l-8.5-.1a180 180 0 01-17.1-.8 1 1 0 010-2z"/><ellipse cx="335.7" cy="126.7" fill="#FFF0BE" rx="34" ry="34.1"/><path fill="#272838" d="M353.1 136.8a724.2 724.2 0 01-32.4-.3h-.1c-1 0-1.6-.8-1.6-1.7l.6-12 .1-6.1.2-6c0-.5.4-1 .8-1l15.3.2a522.7 522.7 0 0015.2 0c.5 0 .9.3.9.7l.2 6.3.3 6.4.3 6.6.2 6.9zm-4-4l.7-10.7.3-5.6c0-2 .2-3.9.3-5.8l.8.8h-7.6l-7.6-.1-15.3.2 1-1v6.1l.2 6 .6 12-1.8-1.7a715.7 715.7 0 0128.4-.3z"/><path fill="#272838" d="M331 123.4l.4 5a1.4 1.4 0 11-2.7 0l.4-5a1 1 0 011.9 0zm3.4 5l.6-8.9a1 1 0 011.9 0l.6 9a1.6 1.6 0 11-3.1 0zm9.2-11.9l-.7 12c0 .4-.5.8-1 .8a1 1 0 01-.8-.9l-.7-11.9a1.6 1.6 0 113.2-.1v.1zm-14.8 28.2l6.3-11a1.7 1.7 0 012.8 0l6.7 9.3a2.2 2.2 0 01-3.5 2.5v-.1l-6-9.7h2.9l-7.6 10a1 1 0 01-1.5-1z"/><ellipse cx="918.1" cy="126.7" fill="#FFD1C7" rx="34" ry="34.1"/><path fill="#272838" d="M931.5 144a435.5 435.5 0 01-24.7-.2h-.2c-.9 0-1.6-.8-1.6-1.8l.6-15.3.2-7.7.1-7.7c0-.5.4-.9.8-.9l7.3-.1a291.5 291.5 0 007.8 0l2.3 1.8 2.3 1.8 4.7 3.7c.2.1.4.4.4.7v25.8zm-3.9-4l.5-5.1.4-5.4.5-5.5.5-5.7.3.8-4.4-4-2.2-1.9-2.3-1.9.5.2-7.3.3-7.3.4.8-.9.2 7.7.1 7.7.6 15.3-1.7-1.7a403.6 403.6 0 0120.8-.3z"/><path fill="#272838" d="M917.1 118.5l-4.9.4c-.7 0-1.3-.5-1.4-1.2a1.3 1.3 0 011.4-1.4l5 .4a1 1 0 010 1.8zm-4.9 3.3l11.6.6c.5 0 .9.5.9 1s-.5.8-.9.9l-11.6.6a1.5 1.5 0 11-.1-3h.1zm.2 6.8l10.3-.5c.8 0 1.5.5 1.6 1.3 0 .8-.6 1.5-1.4 1.6h-.2l-10.3-.6a.9.9 0 010-1.8zm.6 5l10.4.6a.9.9 0 010 1.8l-10.4.5a1.4 1.4 0 010-2.9zm9-22.3l.5 7.4-1.5-1.4h8.6c.8 0 1.4.7 1.4 1.5 0 .7-.6 1.4-1.4 1.4H921a1.4 1.4 0 01-1.4-1.5l.5-7.4c0-.5.5-.9 1-.8.4 0 .8.4.8.8z"/><path fill="#FF6F82" d="M1073 132.6a41 41 0 10-.2-81.9 41 41 0 00.1 81.9z"/><path fill="#fff" d="M1047 220.6l-25.3-7.5 19.6-37.5 4.4-46.8v-15.3l35.3 7 17.9 51.1v34.5l-22.7-3.5 2.6-22.2-14.8-21.9-17 62z"/><path fill="#fff" d="M1090 62.8a5 5 0 11-4.9 8.5 5 5 0 014.9-8.5zM1069 74a2.6 2.6 0 11-2.5 4.5 2.6 2.6 0 012.5-4.5zm38.5 6.6a2.6 2.6 0 11-2.5 4.5 2.6 2.6 0 012.5-4.5zM1056 121a2.6 2.6 0 11-2.5 4.5 2.6 2.6 0 012.5-4.5zm21.8-2.6a2.6 2.6 0 11-2.5 4.4 2.6 2.6 0 012.5-4.4zm15-25.2a2.6 2.6 0 11-2.6 4.5 2.6 2.6 0 012.5-4.5zm-22.9 5.2a2.6 2.6 0 11-2.5 4.4 2.6 2.6 0 012.5-4.4zm-5.2-15a4.5 4.5 0 01-4.5 8 4.5 4.5 0 014.5-8zm-3.3-20.2a1.2 1.2 0 11-1.1 2c-.6-.2-.8-1-.5-1.6.3-.5 1-.7 1.6-.4zm31 41.1a1.2 1.2 0 11-1.1 2.1 1.2 1.2 0 011.1-2zm-16.7-43.8c1.7 1 2.3 3 1.3 4.7a3.4 3.4 0 11-1.3-4.7zM1106 97c1.7 1 2.3 3 1.3 4.6a3.4 3.4 0 11-1.3-4.6zm-26.7-10.4a4.2 4.2 0 11-4 7.4 4.2 4.2 0 014-7.4zm13.3-9.4a4.2 4.2 0 01-4.2 7.3 4.2 4.2 0 014.2-7.3zm-16 31.9c1 .5 1.3 1.6.8 2.5a1.8 1.8 0 11-3.2-1.8c.5-.9 1.6-1.2 2.5-.7zm4-34.6c.8.5 1.2 1.6.7 2.5a1.8 1.8 0 11-3.2-1.8c.5-.9 1.6-1.2 2.5-.7zM1050 95.3a5.4 5.4 0 11-5.3 9.5 5.4 5.4 0 015.3-9.5zm3.1-26a4.7 4.7 0 01-4.5 8 4.7 4.7 0 014.5-8zm20.3 57a4.7 4.7 0 01-4.6 8.2 4.7 4.7 0 014.6-8.2zm-28.8-42.2a2.4 2.4 0 11-2.4 4.2 2.4 2.4 0 012.4-4.2z" opacity=".4"/><path fill="#AFDDCC" d="M1079.8 116.5c10.8-.8 19.2-7.5 18.6-15.1-.5-7.6-9.7-13.1-20.5-12.3-10.8.7-19.1 7.5-18.6 15 .5 7.6 9.7 13.1 20.5 12.4z"/><path fill="#8BC1B9" d="M1060.3 101.5c.5-.7 1.1-1.2 1.7-1.8a26.5 26.5 0 016.2-4.4 29 29 0 0115-3.3 26 26 0 0114.1 5.5c.4.1.6.5.5 1l-.2.4-.5 1.3-.7 1.1c-.4.8-1 1.5-1.5 2.2a19 19 0 01-4 3.5c-3 2-6.6 3.1-10 3.5l-2.7.2h-2.6l-1.3-.2-1.3-.1-2.5-.5c-3.3-.8-6.5-2.1-9.3-4a1 1 0 01-.3-1.4 1 1 0 011-.5l9.4.9h2.2l1.2.1h1a36.5 36.5 0 0012.7-2.4 25.4 25.4 0 005.7-3.3l1-.7.8-.7.3 1.3a45.2 45.2 0 00-13.2-3 32.7 32.7 0 00-17.3 4.5 38.7 38.7 0 00-3 1.7l-1 .6a1 1 0 01-1.5-.3 1 1 0 010-1.2z"/><path fill="#272838" d="M1076.9 85.6a26 26 0 0113.8 3c2 1 4 2.6 5.6 4.5a13 13 0 012.8 6.8c.2 2.5-.4 5-1.6 7.3a17.6 17.6 0 01-4.8 5.6 26.4 26.4 0 01-27.8 2.3 18 18 0 01-5.9-4.9c-1.5-2-2.6-4.6-2.7-7.3-.1-2.6.6-5.3 2-7.5a18 18 0 015-5.4c4-2.8 8.8-4.2 13.6-4.4zm.1 1.9c-4.4.4-8.7 2-12.1 4.6-3.4 2.6-5.8 6.6-5.4 10.6.2 2 1 3.8 2.3 5.4a15 15 0 004.7 4c3.7 2 8.1 2.8 12.4 2.5 4.3-.2 8.7-1.5 12.2-4 1.7-1.2 3.3-2.8 4.4-4.6 1-1.8 1.7-3.9 1.6-6a11 11 0 00-2.2-5.9c-1.3-1.7-3-3.2-5-4.3-3.9-2-8.5-2.7-12.9-2.3z"/><path fill="#FFCBAF" d="M1076.6 47.8a14.4 14.4 0 008.7-27.3 14.4 14.4 0 00-8.7 27.3z"/><path fill="#272838" d="M1094.4 37.6a43 43 0 00-.5 4.2v3c0 .3 0 .6-.5 1l-.2.1c-.6.5-1.3.5-2 .2l-.5-.6-.1-.6.1-1.2a13.3 13.3 0 012.9-6.5c.2-.2.4-.2.6 0 .2 0 .2.2.2.4zm-3.6-1.7l-1.7-.5-.8-.2-.4-.1h-.2s-.1 0 0-.1c-.3 0-.6 0-.6-.3-.1-.3 0-.6.3-.7h.6l.4-.1.9-.1 1.7-.2c.7 0 1.3.5 1.3 1.1a1.2 1.2 0 01-1.5 1.3z"/><path fill="#272838" fill-rule="evenodd" d="M1102.5 23.5c-4.6 10.8-24.3 5.7-24.3 5.7s-1.1 3.6-3.5 4.3c-.2-2.6-3.8-3.5-4.8-.8s2.1 5.2 2.1 5.2-.5 3-4.4 4.7c-4 1.8-9.2-.6-10.3-11-1-10.2 9.1-12.2 9.1-12.2s1.6-8.8 8.4-10.8c2.6-.8 4.2-.3 5 .5.4 2.8.4 7.5-1.8 10 2.6-3 4-5 4.4-7.8 2-2.6 6.2-7 10.4-4.4 4.8 3.1 3.6 7 3 8.3l-.4.4a16.3 16.3 0 01-10.9 5.2c5 .3 12-3 15.9-5.3 2.4.5 4.5 2.3 2 8z" clip-rule="evenodd"/><mask id="a" width="47" height="38" x="1057" y="6" maskUnits="userSpaceOnUse"><path fill="#272838" fill-rule="evenodd" d="M1102.4 23.5c-4.6 10.8-24.3 5.7-24.3 5.7s-1.1 3.6-3.5 4.3c-.2-2.6-3.8-3.5-4.8-.8s2.1 5.2 2.1 5.2-.4 3-4.4 4.7c-4 1.8-9.2-.6-10.3-11-1-10.2 9.1-12.2 9.1-12.2s1.6-8.8 8.5-10.8c2.5-.8 4-.3 5 .5.3 2.8.3 7.5-1.9 10 2.6-3 4-5 4.4-7.8 2-2.6 6.2-7 10.4-4.4 4.8 3 3.6 7 3 8.3l-.4.4a16.3 16.3 0 01-10.9 5.2c5 .3 12-3 15.9-5.3 2.4.5 4.5 2.3 2 8z" clip-rule="evenodd"/></mask><g fill="#fff" mask="url(#a)"><path d="M1098 40.5s.6.8-.6 1c-.2-.9.2-1 .6-1z" opacity=".3"/><path d="M1103 8.2s.7 1-.8 1.2c-.3-1 .2-1.3.7-1.2z"/><path d="M1089.3 14.2s.6.9-.6 1c-.2-.8.2-1 .6-1z" opacity=".5"/><path d="M1097.2 36.7s.5.9-.6 1c-.3-.8.2-1 .6-1z" opacity=".2"/><path d="M1102 21s.7 1.2-.8 1.3c-.3-1 .3-1.3.8-1.2z" opacity=".7"/><path d="M1099.7 35.7s.6.9-.6 1c-.2-.8.2-1 .6-1z" opacity=".3"/><path d="M1105.1 19.7s1 1.4-1 1.6c-.3-1.3.4-1.6 1-1.6z" opacity=".9"/><path d="M1096 23.3s.6.9-.6 1c-.2-.8.2-1 .6-1z" opacity=".2"/><path d="M1097.4 32.5s.6.8-.6 1c-.2-.9.2-1 .6-1z" opacity=".1"/><path d="M1095.7 16.7s.7 1-.7 1.1c-.2-.9.3-1.2.7-1.1z" opacity=".5"/><path d="M1093.7 32.6s.6.8-.6 1c-.2-.9.2-1 .6-1zM1096.6 29.5s.6.9-.6 1c-.2-.8.2-1 .6-1z" opacity=".1"/><path d="M1100.2 25.7s.5.8-.6 1c-.3-.8.2-1 .6-1zM1097.8 22.1s.6.9-.6 1c-.2-.8.2-1 .6-1z" opacity=".3"/><path d="M1103.3 27.3s.6.9-.6 1c-.2-.8.2-1 .6-1z" opacity=".7"/><path d="M1096.4 19.6s.6 1-.6 1c-.2-.8.2-1 .6-1z" opacity=".4"/><path d="M1104.3 24.8s.6 1-.6 1c-.3-.8.2-1 .6-1z" opacity=".8"/><path d="M1100.5 23.3s.6.9-.6 1c-.2-.8.2-1 .6-1z" opacity=".4"/><path d="M1103.4 31.5s.6.9-.6 1c-.2-.8.2-1 .6-1z" opacity=".6"/><path d="M1104 11.6s1.1 1.7-1.1 1.8c-.5-1.5.3-1.9 1.1-1.8z"/><path d="M1094 23.5s.6.8-.6 1c-.2-.9.2-1 .6-1z" opacity=".1"/><path d="M1093.1 17.8s.6.9-.6 1c-.2-.8.2-1 .6-1z" opacity=".4"/><path d="M1097.3 14.2s.9 1.3-1 1.5c-.3-1.2.4-1.6 1-1.5z" opacity=".7"/><path d="M1099.1 8.5s.8 1.2-.9 1.4c-.3-1.1.3-1.5.9-1.4z"/><path d="M1102.4 18.3s1 1.6-1.1 1.7c-.4-1.4.3-1.8 1-1.7z" opacity=".8"/><path d="M1104 15.7s1.5 2.1-1.3 2.3c-.6-1.8.4-2.3 1.4-2.3z" opacity=".9"/><path d="M1104.3 22.7s.6 1-.8 1.2c-.2-1 .3-1.2.7-1.2z" opacity=".8"/><path d="M1100 33.6s.7.8-.5 1c-.2-.8.2-1 .6-1z" opacity=".3"/><path d="M1095 29.4s.6.8-.6 1c-.2-.8.2-1 .6-1z" opacity=".1"/><path d="M1101.6 36s.6.8-.6.9c-.2-.8.2-1 .6-1z" opacity=".4"/><path d="M1098 17.3s.8 1.2-.9 1.3c-.3-1 .3-1.4.8-1.3z" opacity=".6"/><path d="M1101.4 30.1s.5.9-.6 1c-.2-.8.2-1 .6-1z" opacity=".4"/><path d="M1100 15.7s1.2 1.6-1 1.8c-.5-1.5.3-2 1-1.8z" opacity=".8"/><path d="M1097.5 26.8s.6.9-.6 1c-.2-.8.2-1 .6-1z" opacity=".1"/><path d="M1098.8 20.2s.7 1-.6 1c-.3-.8.2-1 .6-1z" opacity=".5"/><path d="M1093.4 19.8s.6.8-.6 1c-.2-.9.2-1 .6-1z" opacity=".3"/><path d="M1083.3 5.8s.9 1.2-.9 1.4c-.3-1.2.3-1.5 1-1.4z" opacity=".6"/><path d="M1090.4 7.1s.9 1.3-.8 1.5c-.3-1.2.3-1.5.8-1.5z" opacity=".9"/><path d="M1087 14.6s.6.9-.6 1c-.2-.8.2-1 .6-1z" opacity=".4"/><path d="M1088.2 6.6s.9 1.4-1 1.6c-.3-1.3.3-1.6 1-1.6z" opacity=".9"/><path d="M1089 11.3s.7 1-.6 1.1c-.3-.9.2-1.1.7-1.1zM1091.4 9.9s.7 1.1-.8 1.3c-.3-1 .3-1.4.8-1.3z" opacity=".7"/><path d="M1093.4 6.3s.8 1.1-.8 1.2c-.2-1 .3-1.3.8-1.2z" opacity=".9"/><path d="M1094.2 11.8s.7 1.1-.8 1.3c-.3-1 .2-1.4.8-1.3z" opacity=".6"/><path d="M1098.2 5.1s.6 1-.7 1c-.2-.8.2-1 .7-1zM1097.4 6.7s.7 1-.7 1.1c-.3-1 .2-1.2.7-1.1zM1099.9 6.1s.6 1-.7 1c-.2-.8.2-1 .7-1z"/><path d="M1091.2 13s.6 1-.7 1c-.3-.8.2-1 .7-1z" opacity=".5"/><path d="M1085.4 16s.6 1-.6 1c-.2-.7.2-1 .6-1z" opacity=".2"/><path d="M1101 27.5s.5.8-.7 1c-.2-.8.2-1 .6-1z" opacity=".4"/><path d="M1091 18.9s.6.8-.6 1c-.2-.8.2-1 .6-1zM1095.5 40.7s.6.9-.6 1c-.2-.8.2-1 .6-1z" opacity=".2"/><path d="M1102.6 41.7s.6.9-.6 1c-.2-.8.2-1 .6-1zM1103.2 40s.6.8-.6.9c-.2-.8.2-1 .6-1zM1104.5 36.5s.6.9-.6 1c-.2-.8.2-1 .6-1z" opacity=".5"/><path d="M1094.9 36s.5.9-.6 1c-.2-.8.2-1 .6-1zM1089 30.8s.6.8-.6 1c-.2-.8.2-1 .6-1zM1091 33.7s.5.8-.7 1c-.2-.8.2-1 .6-1zM1086.8 20.2s.6.9-.6 1c-.2-.8.2-1 .6-1zM1085 18.7s.6.9-.6 1c-.2-.8.2-1 .6-1z" opacity=".1"/><path d="M1084.7 13.7s.5.8-.6 1c-.3-.9.1-1 .6-1z" opacity=".3"/><path d="M1075 11.6s1 1.3-.9 1.4c-.3-1.1.3-1.5 1-1.4z" opacity=".5"/><path d="M1068.3 13.4s.8 1.1-.7 1.3c-.3-1 .2-1.3.8-1.3zm-1.6 1s.6.9-.7 1c-.2-.9.2-1.1.7-1z" opacity=".3"/><path d="M1059.6 22.7s.5.9-.6 1c-.2-.8.2-1 .6-1zm5-11s.6.9-.6 1c-.3-.9.2-1.1.6-1zm-1.4 3.1s.5.9-.6 1c-.2-.8.2-1 .6-1zM1062.8 21.8s.6.9-.6 1c-.2-.8.2-1 .6-1zM1067.4 11.3s.8 1.2-.9 1.3c-.3-1 .3-1.4.9-1.3z"/><path d="M1064.2 18.2s.6.9-.6 1c-.2-.8.2-1 .6-1z" opacity=".9"/><path d="M1066.8 17.8s.5.9-.6 1c-.3-.8.2-1 .6-1z" opacity=".3"/><path d="M1070 10.3s1 1.6-1.2 1.8c-.4-1.5.4-1.9 1.2-1.8z" opacity=".8"/><path d="M1064.1 26.2s.6.9-.6 1c-.2-.8.2-1 .6-1z" opacity=".3"/><path d="M1067.6 21.7s.6.9-.6 1c-.2-.8.2-1 .6-1z" opacity=".5"/><path d="M1074.4 13.8s.7 1.2-.8 1.3c-.3-1 .2-1.3.8-1.3z" opacity=".4"/><path d="M1066 28.1s.6 1-.5 1c-.2-.8.2-1 .6-1z" opacity=".3"/><path d="M1069.1 20s.6.9-.6 1c-.2-.8.2-1 .6-1z" opacity=".4"/><path d="M1071 14.4s.8 1.1-.8 1.3c-.3-1 .3-1.4.8-1.3z" opacity=".6"/><path d="M1068.2 23.5s.6.9-.6 1c-.2-.8.2-1 .6-1zM1071.8 17.4s.6 1-.7 1c-.2-.8.2-1 .7-1z" opacity=".4"/><path d="M1070.7 23.6s.6.9-.6 1c-.2-.8.2-1 .6-1zM1070.2 21.9s.5.8-.6 1c-.2-.8.2-1 .6-1zM1064.9 22.4s.5.9-.6 1c-.2-.8.2-1 .6-1zm.5-2.3s.6.8-.6 1c-.2-.8.2-1 .6-1zM1074.1 17.2s.6.9-.6 1c-.2-.8.2-1 .6-1zM1075.7 15.3s.6.9-.7 1c-.2-.8.2-1 .7-1z" opacity=".3"/><path d="M1076.3 19s.6.8-.6 1c-.2-.8.2-1 .6-1zM1079 12.8s.6.8-.6 1c-.2-.8.2-1 .6-1z" opacity=".2"/><path d="M1078.2 18s.6.9-.6 1c-.2-.8.2-1 .6-1z" opacity=".1"/><path d="M1078 10.4s.8 1-.7 1.2c-.2-1 .3-1.3.8-1.2z" opacity=".5"/><path d="M1077.8 8.3s.8 1.2-.9 1.4c-.3-1.1.3-1.5.9-1.4zM1080.8 8s.7 1-.7 1.2c-.2-1 .3-1.2.7-1.2z" opacity=".4"/><path d="M1081.2 11.5s.6.9-.6 1c-.2-.8.2-1 .6-1z" opacity=".2"/><path d="M1079.5 14.7s.5.9-.6 1c-.3-.8.1-1 .6-1z" opacity=".1"/><path d="M1082.7 9.1s.7 1-.7 1.1c-.2-.8.3-1.1.7-1z" opacity=".3"/></g><path fill="#272838" d="M1087.6 52.1a17.5 17.5 0 01-5.6 5.6c-2.3 1.5-5 2.3-7.9 2.3l-2.1-.1-2-.5-2-.7c-.6-.3-1.3-.6-1.8-1a17.2 17.2 0 01-5.6-5.5h1.5a216.7 216.7 0 00-26 27 137 137 0 00-7.4 10.1l.1-.8a36.3 36.3 0 006 11 40.4 40.4 0 0032.2 16h.3c.6.2 1.2.5 1.5 1 1.1 1.3 2.3 2.4 3.7 3.3a8 8 0 004.6 1c1.6 0 3.2-.6 4.8-1.5 1.5-1 2.9-2.2 4-3.7a1 1 0 011.5-.2c.4.3.5.9.3 1.3-1 1.9-2.4 3.6-4 5a12.4 12.4 0 01-13.1 2.4c-2.3-.8-4.2-2.2-6-3.7l2 .9c-4.6-.5-9-1.6-13.3-3.2a43.6 43.6 0 01-26.5-29l.1-.9a192.6 192.6 0 0133.8-37.5 1 1 0 011.3 0h.1c2 1.3 4 2.4 6 3.2l1.5.6 1.5.4 3 .3c2 0 4-.4 6-1.2 2-.8 4-2 6-3.2a1 1 0 011.5.3c.2.3.2.7 0 1z"/><path fill="#272838" d="M1061.7 111.5l-5.7-4.2c-1.8-1.4-3.7-3-5.4-4.8a32.5 32.5 0 01-7.6-12.9c-.4-1.2 0-2.4 1-3h.1c4.3-2.8 8.4-5.9 12.5-9l12-10.2a1 1 0 011.4 0c.4.5.4 1 0 1.5-3.5 4-7 7.8-10.8 11.5-3.7 3.8-7.5 7.4-11.8 10.8l1.1-3a27.8 27.8 0 005 11.9c2.7 3.5 6.2 6.6 9.5 9.8.4.4.5 1.1 0 1.5a1 1 0 01-1.3.1zm21.2-25.4a85.6 85.6 0 004.2-21.2l.5-7.2a1 1 0 011.6-.8h.1c2.5 2 4.5 4.2 6.3 6.6l1.3 2 1.2 1.9 1 2 .5 1 .5 1.1c.6 1.5 1 3 1.4 4.4l.5 2.3.2 1.2.1 1.1.2 2.4v3.5l-.4 1.1c-.4.8-.8 1.5-1.6 2.1-.7.5-1.5.3-2-.2v-.1a5 5 0 01-1.1-2.3c-.2-.7-.1-1.3-.1-2v-2-2l-.1-1-.2-1-.3-2-.5-2c0-.6-.3-1.2-.5-1.9-.8-2.6-2-5.1-3.2-7.6l-1-1.8-1.2-1.8-1.1-1.7-1.3-1.7 1.8-.7a118.3 118.3 0 01-4.8 29 1 1 0 01-1.3.6 1 1 0 01-.7-1.3z"/><path fill="#272838" d="M1101.5 87.6a188 188 0 0117.7 26.3 65 65 0 013.3 7.3 33 33 0 010 24 1 1 0 01-1.9-.9l.3-.8.2-1 .4-1.7a35.8 35.8 0 00-2.1-18.3 126.1 126.1 0 00-12.2-19.4c-3.1-4-6.4-8-9.8-11.8-1.1-1.2-1-3 .1-4s3-1 4 .2z"/><path fill="#272838" d="M1120.2 135.7a1 1 0 01-.5-.1 9 9 0 01-5-5.2c-1-3.2.5-6 .5-6.1a1 1 0 011.4-.5c.6.3.8.9.5 1.4 0 0-1.1 2.3-.3 4.6.5 1.6 1.8 2.9 3.8 3.9.6.2.8.9.5 1.4a1 1 0 01-1 .6zm-73.5-22c-1 3-1 6-.5 9 .5 3.1 1.4 6.1 2.6 9a96 96 0 009 16.7 230.8 230.8 0 0023.8 29.7c.2.2.3.4.3.7v.1l-1.8 38.6a2.7 2.7 0 11-5.4-.5l5.1-38.3.3.8a233.7 233.7 0 01-24-30c-3.6-5.3-6.8-11-9.3-17-1.2-3-2.1-6.1-2.6-9.4-.5-3.3-.5-6.7.6-10a1 1 0 011.3-.6c.5.1.8.7.6 1.3zm37.6 9l20.5 50.8.2 1-4.1 50.7c0 .6-.6 1-1.1 1a1 1 0 01-1-1l.2-51.5.2 1-16.9-51.4a1 1 0 012-.6z"/><path fill="#272838" d="M1047.2 127.6a327.8 327.8 0 00-6 34 57 57 0 00-.3 11.2v.4l-1.2 5.4-1.4 5.3a247.4 247.4 0 01-8.6 26.3l-1.1 2.6-1.3 2.6a3.3 3.3 0 11-6-3l.3-.4 1.3-2.2 1.3-2.3a126 126 0 007-14.5c1.4-3.3 2.8-6.7 4-10l2-5.2 1.7-5.1v.4c-.4-4-.2-7.9.2-11.8a170.2 170.2 0 013.6-22.9 340 340 0 012.5-11.3 1 1 0 112 .5zm18.4 32.4c-.4 5.5-2.1 10.7-3.1 16a215.6 215.6 0 01-8.4 30.8c-1.8 5-2.9 10-5.4 14.7a1 1 0 01-1.5.5 1 1 0 01-.6-1c.3-5.5 2-10.7 3-16a194.6 194.6 0 018.6-30.7c1.8-5 2.9-10 5.4-14.8a1 1 0 011.4-.5c.4.2.6.6.6 1zm45.3-17.2a9.1 9.1 0 002.5-5l.1-1.9.4.8a8 8 0 01-3-4 16 16 0 01-1-4.7 28.8 28.8 0 011-9.2l.5 2.2-14.3-14.6a1 1 0 011.4-1.5l15.9 13c.5.4.8 1.1.6 1.8v.4a30.7 30.7 0 00-1.9 8c0 1.3 0 2.6.3 3.8.3 1.2.8 2.3 1.7 3.1l.2.1c.2.2.3.5.3.7a11.5 11.5 0 01-3.3 8.6 1 1 0 11-1.5-1.5zm4.2 4.7a1 1 0 01-.6-1.9c2.6-2 2.7-7.4 2.7-7.4 0-.6.5-1 1-1 .6 0 1.1.4 1 1 0 .3 0 6.4-3.4 9.1-.2.2-.4.2-.7.2zm-25.6 68.6a.7.7 0 01-.7-.7l-2.7-41.1-21.6-41.3v-.4l1.5-11c0-.3.4-.6.8-.5.4 0 .6.4.6.7l-1.6 10.8 21.6 41.2.1.2 2.7 41.3c0 .4-.3.7-.7.7zm-48.5-11.3h-.3a.7.7 0 01-.4-1l13.4-40.7c.1-.3.5-.5.9-.4.3.1.5.5.4.9l-13.4 40.7c0 .3-.4.5-.7.5z"/><path fill="url(#paint0_linear)" d="M662.4 151.5c37.3 14.2 57.3 81.6 57.3 81.6h-83.2s34-42 18.4-75.8c3.7-4.3 7.5-5.8 7.5-5.8z" opacity=".6"/><path fill="#AEF1F1" d="M687.6 197.1s1.7-2-1.2-2.6c-.8 1.9.2 2.6 1.2 2.6z"/><path fill="#AEF1F1" d="M661.6 181.4s1.4-1.6-1-2.1c-.6 1.5.2 2 1 2.1z" opacity=".4"/><path fill="#AEF1F1" d="M677.3 164.6s1.4-1.6-1-2.1c-.6 1.5.2 2 1 2z" opacity=".1"/><path fill="#AEF1F1" d="M675.2 178s1.6-2-1.2-2.5c-.7 1.8.2 2.4 1.2 2.5z"/><path fill="#AEF1F1" d="M680.6 167.4s1.4-1.6-1-2c-.5 1.5.2 2 1 2z" opacity=".2"/><path fill="#AEF1F1" d="M677.3 172.1s1.4-1.6-1-2c-.6 1.5.1 2 1 2z" opacity=".7"/><path fill="#AEF1F1" d="M690.7 190.4s2.6-3.1-2-4c-1.1 2.9.4 4 2 4zm8 1.1s1.8-2.1-1.2-2.7c-.8 2 .2 2.7 1.2 2.7zm0-4.1s2.2-2.6-1.6-3.4c-1 2.4.2 3.3 1.5 3.4zm7.5 2s1.4-1.6-1-2c-.7 1.5.1 2 1 2z"/><path fill="#AEF1F1" d="M673.3 163.8s1.4-1.6-1-2.1c-.6 1.5.2 2 1 2z" opacity=".1"/><path fill="#AEF1F1" d="M670.1 175s1.4-1.6-1-2c-.6 1.5.2 2 1 2z" opacity=".6"/><path fill="#AEF1F1" d="M667 164s1.3-1.6-1-2c-.6 1.5.1 2 1 2z" opacity=".1"/><path fill="#AEF1F1" d="M677.7 183.4s2.2-2.5-1.5-3.2c-1 2.3.2 3.2 1.5 3.2zm2.2 12s2-2.2-1.4-3c-.8 2.2.3 3 1.4 3zm9-19s2.6-3-1.7-3.8c-1.2 2.8.3 3.8 1.8 3.8zm5.7 16.1s2-2.4-1.5-3.1c-.9 2.2.3 3 1.5 3.1zm-2.8-10.5s3.3-4-2.3-5c-1.5 3.6.4 5 2.3 5zm-12-4.7s1.9-2.2-1.4-2.9c-.8 2.1.2 2.9 1.4 3zm3.9 3.8s2.6-3-1.9-4c-1.1 3 .3 4 1.9 4z"/><path fill="#AEF1F1" d="M682.3 171.6s1.5-1.7-1-2.3c-.8 1.7 0 2.3 1 2.3z" opacity=".6"/><path fill="#AEF1F1" d="M671.2 171.2s1.4-1.7-1-2.1c-.5 1.5.2 2 1 2z" opacity=".4"/><path fill="#AEF1F1" d="M662.1 196s2-2.3-1.4-3c-1 2.2.2 3 1.4 3z"/><path fill="#AEF1F1" d="M660.4 187.3s1.6-2-1.2-2.5c-.7 1.8.2 2.4 1.2 2.5z" opacity=".5"/><path fill="#AEF1F1" d="M664.7 190.7s1.8-2.2-1.3-2.8c-.8 2 .2 2.8 1.3 2.8z" opacity=".8"/><path fill="#AEF1F1" d="M667.9 198.5s1.8-2-1.3-2.7c-.8 2 .2 2.7 1.3 2.7zm2.9-11s1.8-2.1-1.4-2.8c-.8 2 .3 2.8 1.4 2.9zm6.4 14.6s1.5-1.8-1-2.3c-.8 1.7 0 2.3 1 2.3zm-1.2-3.3s1.7-2-1.2-2.6c-.7 1.8.2 2.5 1.2 2.6zm5 1.7s1.5-1.8-1.2-2.4c-.6 1.7.2 2.4 1.1 2.4z"/><path fill="#AEF1F1" d="M665 184.4s1.6-1.8-1.1-2.4c-.7 1.8.2 2.4 1 2.4z" opacity=".4"/><path fill="#AEF1F1" d="M666 172.4s1.5-1.7-.9-2.1c-.6 1.5.2 2 1 2z" opacity=".3"/><path fill="#557DFF" d="M602 112.2a36.9 36.9 0 100-73.7 36.9 36.9 0 000 73.7z"/><path fill="#fff" d="M583.7 41.1l-8.2 65.5-5.3 96.5 24.4 3.1 6.1-59.4 7 58 23.1-1.7-6.5-99.5 4.4-60.7L623 41l-5.2 22.7h-25.3l.8-25.7-9.6 3z"/><g opacity=".9"><mask id="b" width="74" height="75" x="565" y="38" maskUnits="userSpaceOnUse"><path fill="#557DFF" d="M601.8 112.4a36.9 36.9 0 10-.1-73.8 36.9 36.9 0 00.1 73.8z"/></mask><g mask="url(#b)"><path fill="#5D52E0" d="M678.8 102.3c-50.7-27.8-152.4-12.8-153.4-12.7L524 70.8c4.3-.6 105.9-15.6 159.6 13.8l-4.8 17.7z"/></g></g><path fill="#F5785C" d="M613 104.5l23.2 28.1-5.7 4.5 21.8 13.7-2.8 2-33-7.2-13 8.7-19.2-23.5 28.7-26.3z"/><path fill="#FFCBAF" d="M607.2 32.1c6.7 0 12-5.6 12-12.6S614 7 607.3 7s-12 5.7-12 12.6c0 7 5.4 12.6 12 12.6z"/><path fill="#272838" d="M618.8 16c3.2.2 8.5-14.1-1.5-12-4.5-7-28.3-4.5-27 5.1 1.4 9.7 26.2 2.4 26.2 2.4l2.3 4.6z"/><mask id="c" width="34" height="17" x="590" y="0" maskUnits="userSpaceOnUse"><path fill="#272838" d="M618.8 16.1c3.1.1 8.5-14.2-1.5-12-4.6-7-28.3-4.6-27 5.1 1.4 9.7 26.2 2.4 26.2 2.4l2.3 4.5z"/></mask><g fill="#fff" mask="url(#c)"><path d="M599.7 6.9s-.6.9.6 1c.2-.8-.2-1-.6-1zM592.9 9.5s-.7 1 .7 1.2c.3-1-.2-1.2-.7-1.2z" opacity=".5"/><path d="M590.7 15.3s-.6.9.7 1c.2-.8-.2-1-.7-1z" opacity=".3"/><path d="M592.2 12.6s-.7 1 .6 1c.2-.8-.2-1-.6-1zM595.7 10.7s-.7 1 .6 1c.2-.8-.2-1-.6-1z" opacity=".4"/><path d="M591.2 6.9s-1 1.4 1 1.6c.4-1.3-.3-1.7-1-1.6z" opacity=".7"/><path d="M589.3.8s-.8 1.3 1 1.5c.3-1.2-.4-1.5-1-1.5z"/><path d="M590.6 10.1s-.9 1.3.8 1.4c.4-1.1-.2-1.4-.8-1.4z" opacity=".6"/><path d="M588.3 8.4s-1.2 1.8 1.2 2c.4-1.6-.4-2-1.2-2z" opacity=".8"/><path d="M589.6 13.2s-.7 1 .7 1.1c.3-.9-.2-1.1-.7-1.1z" opacity=".5"/><path d="M595.4 12.7s-.7 1 .6 1c.2-.8-.2-1-.6-1z" opacity=".3"/><path d="M606-2s-.9 1.3 1 1.4c.3-1.2-.3-1.5-1-1.5z" opacity=".6"/><path d="M598.5-.6s-.9 1.4 1 1.5c.3-1.2-.4-1.6-1-1.5z" opacity=".9"/><path d="M602.1 7.3s-.6 1 .7 1c.2-.8-.2-1-.7-1z" opacity=".4"/><path d="M600.9-1.2s-1 1.5 1 1.7c.4-1.3-.3-1.7-1-1.7z" opacity=".9"/><path d="M600 3.8s-.8 1 .7 1.2c.3-1-.3-1.2-.8-1.2zM597.5 2.3s-.8 1.2.8 1.4c.3-1.1-.2-1.4-.8-1.4z" opacity=".7"/><path d="M595.4-1.5s-.8 1.2.8 1.3c.3-1-.3-1.4-.8-1.3z" opacity=".9"/><path d="M594.6 4.3s-.9 1.2.8 1.4c.3-1.1-.3-1.5-.8-1.4z" opacity=".6"/><path d="M591.1-1.1s-.7 1.1.8 1.2c.3-1-.2-1.3-.8-1.2z"/><path d="M597.8 5.5s-.7 1 .7 1.2c.2-1-.3-1.2-.7-1.2z" opacity=".5"/><path d="M603.8 8.9s-.6.9.6 1c.3-.8-.2-1-.6-1zM598 11.8s-.7 1 .6 1c.2-.8-.2-1-.7-1z" opacity=".2"/><path d="M602.3 13.2s-.6 1 .7 1c.2-.8-.3-1-.7-1zM604.3 11.7s-.6.9.6 1c.2-.8-.2-1-.6-1z" opacity=".1"/><path d="M604.6 6.3s-.6.9.7 1c.2-.8-.2-1-.7-1z" opacity=".3"/><path d="M614.8 4s-1 1.5 1 1.6c.3-1.2-.4-1.6-1-1.5z" opacity=".5"/><path d="M621.9 6s-.8 1.2.8 1.4c.3-1.1-.3-1.4-.8-1.4zm1.7 1s-.6 1 .7 1.1c.3-.9-.2-1.2-.7-1.1z" opacity=".3"/><path d="M623 3.8s-1 1.2.8 1.4c.3-1.2-.3-1.5-.9-1.4z"/><path d="M623.6 10.7s-.6 1 .6 1c.2-.8-.2-1-.6-1z" opacity=".3"/><path d="M620.2 2.7s-1.1 1.7 1.2 1.9c.4-1.5-.4-2-1.2-1.9z" opacity=".8"/><path d="M622.7 14.8s-.6 1 .6 1c.2-.8-.2-1-.6-1z" opacity=".5"/><path d="M615.5 6.5s-.8 1.2.9 1.3c.3-1-.3-1.4-.9-1.3zM621 13s-.5 1 .7 1c.2-.8-.2-1-.6-1z" opacity=".4"/><path d="M619 7s-.7 1.3 1 1.4c.2-1-.4-1.4-1-1.3z" opacity=".6"/><path d="M618.3 10.3s-.7 1 .6 1c.3-.8-.2-1-.6-1z" opacity=".4"/><path d="M620 15s-.6 1 .6 1c.2-.8-.2-1-.6-1zM615.8 10s-.7 1 .6 1c.3-.8-.2-1-.6-1zM614.1 8s-.6 1 .7 1c.3-.8-.2-1-.7-1z" opacity=".3"/><path d="M613.5 12s-.6.8.6 1c.3-.9-.2-1.1-.6-1zM610.6 5.4s-.6.9.6 1c.3-.8-.2-1-.6-1z" opacity=".2"/><path d="M611.5 10.9s-.6.9.6 1c.2-.8-.2-1-.6-1z" opacity=".1"/><path d="M611.6 2.8s-.8 1.2.8 1.3c.2-1-.3-1.3-.8-1.3z" opacity=".5"/><path d="M611.9.6s-.9 1.3.9 1.5c.3-1.2-.3-1.6-1-1.5zM608.6.3s-.7 1.1.8 1.2c.3-1-.2-1.2-.8-1.2z" opacity=".4"/><path d="M608.3 4s-.6 1 .6 1c.2-.8-.2-1-.6-1z" opacity=".2"/><path d="M610.1 7.4s-.6.9.7 1c.2-.8-.2-1-.7-1z" opacity=".1"/><path d="M606.7 1.5s-.7 1 .7 1.2c.2-1-.3-1.2-.7-1.2z" opacity=".3"/></g><path fill="#272838" d="M597.2 11.3L596 24s-8.7-8.6-2.5-13.8c6.2-5.2 3.8 1.1 3.8 1.1zM603 20c1-.6 2-.8 3.1-.8s2.4.3 3.3 1.2c.6.4.9 1 1 1.7.2.6.2 1.1.2 1.7-.1 1.1-.4 2.1-.9 3-.1.3-.4.4-.6.3a.5.5 0 01-.3-.5c.1-1 .2-2 .1-2.8 0-.9-.3-1.7-.7-2l-1-.5-1.2-.3h-2.7a.6.6 0 01-.6-.5c0-.2 0-.4.3-.5zm9.1 0l.2-.2.2-.1.3-.2.7-.3a6.2 6.2 0 012.6-.1c.4 0 .8.2 1.1.3.3 0 .5.4.4.7 0 .2-.3.4-.6.4h-2l-.8.4a1.7 1.7 0 00-.4.4 1 1 0 01-1.5.2 1 1 0 01-.2-1.5zM579 104.7a59.6 59.6 0 01-27.7-14.5c-1.6-1.6-3.1-3.4-4.2-5.6-.6-1.1-1-2.4-1.2-3.8V78v-.9a26 26 0 011.8-6.6A52.6 52.6 0 01558 54.4a78.6 78.6 0 0119.3-16c1-.5 2-1 3-1.3l2.9-1.1c3.9-1.4 8-2.4 12.1-2.9a36.7 36.7 0 0118.7 2.6l1.4.7.8.4.8.5c1 .8 1.7 1.8 2.3 2.9 1 2.2 1.3 4.5 1.3 6.7a22.9 22.9 0 01-4.3 12.5 14.2 14.2 0 01-2.7 2.5c-1 .7-2 1.3-3 1.7-2.2.9-4.5 1.3-6.8 1.4-2.2.1-4.6-.1-6.8-1a14 14 0 01-9.2-10.3c-.6-2.2-.6-4.4-.3-6.6.2-2.1.8-4.2 1.5-6.2a1 1 0 012 .4v.1c0 2-.2 4-.1 5.9 0 1.9.3 3.7.9 5.4l1 2.3a9.8 9.8 0 003.5 3.5 14.8 14.8 0 007.4 1.8 16.6 16.6 0 007.5-2l1-.7 1-.9a18.5 18.5 0 004.2-10c0-1.8 0-3.7-.8-5.2-.3-.8-.8-1.5-1.4-2l-.4-.3-.6-.3-1.3-.7a31.7 31.7 0 00-17.2-2.2c-3.9.5-7.7 1.6-11.4 3l-2.7 1.2-2.6 1.3a68.5 68.5 0 00-20.8 20.7c-2.2 3.3-4 6.8-5.4 10.3-.6 1.7-1.1 3.5-1.2 5.2V80c.2.7.3 1.4.7 2 .7 1.5 1.8 2.9 3 4.2l4.4 3.7c6.2 4.6 13.2 8.5 20 12.9h.1c.5.3.6 1 .3 1.5-.2.3-.7.5-1.1.4zm43.6-8V90c0-2.2.2-4.4.4-6.6l.5-6.6.7-6.5 1.4-13.1c.4-4.4 1-8.8 1.3-13.1v-.4a1 1 0 011.6-.6A66.8 66.8 0 01643.2 58a41 41 0 017.7 30.1 30.8 30.8 0 01-3.8 10.3 43 43 0 01-14.8 15 1 1 0 01-1.4-1.5l6.5-7.8a74.6 74.6 0 009.8-16.9 25.7 25.7 0 00-.6-19.4 42.3 42.3 0 00-4.8-8.9c-3.9-5.5-8.9-10.3-14.5-14l1.7-1a80.6 80.6 0 011.6 13.5 123 123 0 01-3.7 33.3 65 65 0 01-2.2 6.4 1 1 0 01-1.4.6 1 1 0 01-.7-1z"/><path fill="#272838" d="M583.5 42.6a42 42 0 00-2.2 8.6l-.2 1.5-.2 1.5-.1 1.5-.1 1.5-.1 1.5v1.5c-.1 2 0 4 .1 6 .2 2 .3 4 .7 6l.2 1.5.3 1.5.6 3 .2 1.4.4 1.5.7 3 1.5 6a1 1 0 01-.8 1.2 1 1 0 01-1.2-.5L582 88l-1.2-3-1-3-.6-1.4-.4-1.6-.7-3-.5-3.2c-.4-2.1-.5-4.2-.7-6.3V60l.2-1.6.2-1.6c0-1 .2-2.1.4-3.2l.3-1.5.4-1.6a34 34 0 013.3-9 1 1 0 011.5-.4c.4.2.6.8.4 1.3zM613 97.9l12.9 15.3 13.2 15.7a2.2 2.2 0 01-.6 3.4l-34.7 20v.1a1 1 0 01-1.4-.3l-19-25.5a1 1 0 01.2-1.4C593.3 116 603.2 107 613 98zm-.1 2c-9.3 9.1-18.5 18-27.9 26.9l.1-1.4 19 25.5-1.4-.3 33.4-22.2-.6 3.3-11.2-15.6L613 100z"/><path fill="#272838" d="M591 120.8a1 1 0 01-.9-.4c-.2-.3-4.6-6.1-4.9-12.7 0-.5.4-1 1-1s1 .3 1 1c.4 5.8 4.5 11.3 4.6 11.4a1 1 0 01-.9 1.7zm18-17.1a1 1 0 01-.8-.5c-2.9-4.5-7.1-7-11.4-6.7a1 1 0 01-.1-2.1c5-.4 10 2.5 13.3 7.6a1 1 0 01-.4 1.5 1 1 0 01-.5.2zm-16.4 2a1 1 0 01-1-.6c-2.1-5.3-7.9-3.8-8.1-3.8a1 1 0 01-.6-2c2.7-.7 8.4-.6 10.7 5a1 1 0 01-.6 1.4h-.4z"/><path fill="#272838" d="M590.7 110a1 1 0 01-.7-.3c-5.4-4.8-7.8-4.1-7.8-4a1 1 0 01-1.4-.6 1 1 0 01.6-1.4c.5-.3 3.6-1.2 10 4.4a1 1 0 01-.7 1.9zm-28-48.4c.2 3.5 1 6.9 2.2 10a37.4 37.4 0 008.4 13l3.8 3.6c2.5 2.3 5.3 4.6 8 6.8h-.8a11.7 11.7 0 013.7-.5c1.2 0 2.5.3 3.7.8l.9.4.8.5 1.4 1.4.6.8.5.8.7 1.8a1 1 0 11-2 .8v-.2a8 8 0 00-1.4-2.7 5.6 5.6 0 00-2.3-1.7c-1-.4-2-.6-3-.6s-2.1.1-3 .4h-.1a1 1 0 01-.8-.1 33.6 33.6 0 01-9.5-5.8 47.4 47.4 0 01-7.6-8.3c-2.1-3-4-6.4-5-10a28.2 28.2 0 01-1.2-11.3 1 1 0 012 0zm89 100.5a1 1 0 01-.8-1.7l9.1-10.6-7.6.4a1 1 0 01-.6-.1l-21.9-14.7a1 1 0 011.2-1.7l21.6 14.4 9.6-.6a1 1 0 01.9 1.7l-10.6 12.5a1 1 0 01-.8.4z"/><path fill="#272838" d="M648.4 156.5l-37.2-9a1 1 0 01.4-2l37.7 6.6a2.2 2.2 0 01-.8 4.4h-.1zM573.3 222a1 1 0 01-1-1c-4.1-61.4 3.5-113 3.6-113.5a1 1 0 112 .3c0 .5-7.7 51.9-3.6 113 0 .7-.4 1.2-1 1.2z"/><path fill="#272838" d="M629.7 150c1 5.5 1.5 11 1.8 16.4.4 5.5.4 11 .5 16.5v16.5c-.2 5.5-.4 11-.8 16.5v.2a1 1 0 01-1.5.8 18.2 18.2 0 00-11.8 0 1 1 0 01-.6-2 20.3 20.3 0 0113.2 0l-1.4 1-.9-16.4-.6-16.5c0-5.4-.4-11-.4-16.4 0-5.5 0-11 .4-16.5 0-.6.6-1 1.2-1 .5 0 .8.5 1 1z"/><path fill="#272838" d="M604.3 151.4a635.8 635.8 0 005.2 50.4l.7 4.1.9 4.1 1 4 .6 2 .7 2v.5l-1.6 14.7-1-1.1c2.8-1.2 5.7-1.2 8.5-1.2h4.3l4.2.1 4.3.2a173.7 173.7 0 0112.8.9l-1 .7c.8-2.6 1.1-5.7.1-8-.4-1.2-1.3-2.1-2.5-2.6-.5-.3-1.2-.4-1.8-.5l-2.1-.1A37.7 37.7 0 00621 226a1 1 0 01-1-1.8 39.6 39.6 0 0117.5-4.7l2.4.1c.8.1 1.6.3 2.4.7a7 7 0 012.1 1.5c.6.6 1.1 1.4 1.4 2.1.7 1.6.8 3.3.8 4.9-.1 1.6-.4 3-.8 4.6-.1.4-.4.7-.8.8h-.2a152.9 152.9 0 01-12.8.9l-4.3.1-4.2.1h-4.3c-2.8 0-5.7 0-8.5-1.1a1 1 0 01-1-1v-.2l1.6-14.7v.5l-.6-2-.7-2.1-1-4.2-1-4.2-.7-4.1a646.2 646.2 0 01-5.2-50.6 1 1 0 112-.2zm-11.6 67.2a505.9 505.9 0 011.6-36.2l.6-9 .7-9.1c.6-6 1.4-12 2.9-18a1 1 0 012 .2c.6 6.1.4 12.2 0 18.2l-.7 9a559.2 559.2 0 01-2.7 27c-.7 6-1.4 12-2.3 18-.1.6-.6 1-1.2 1a1 1 0 01-.9-1.1zm-18.4 2.4l-.8 12.2-1-1.1c1-.6 2-.8 3.2-1 1-.2 2.1-.2 3.2-.2 2.2 0 4.3.3 6.5.6 2.1.2 4.3.2 6.4.3l6.5.3-1 .7c.5-2.2.6-4.9-.3-6.8-.5-1-1.2-1.8-2.2-2.2-1-.5-2-.7-3.3-.7-2.5 0-5 0-7.4.5-1.2.3-2.3.7-3.2 1.3-.9.6-1.5 1.5-2 2.5a1 1 0 11-2-.8h.1c.3-.6.6-1.3 1.1-1.9.5-.6 1-1.1 1.7-1.5 1.2-.8 2.5-1.3 3.9-1.6 2.6-.6 5.3-.6 7.9-.6 1.3 0 2.8.2 4.1.9a6.8 6.8 0 013.1 3.2c.7 1.3.9 2.7 1 4.1 0 1.4-.2 2.7-.5 4.1a1 1 0 01-1 .8l-6.5.2-6.4.4c-2.2.2-4.3.6-6.5.6-1 0-2.1 0-3.2-.2s-2.2-.5-3.3-1a1 1 0 01-1-1v-.1l.8-12.2c0-.5.6-1 1.1-1 .6.1 1 .6 1 1.2z"/><path fill="#272838" d="M579 221.6a1 1 0 01-.9-.5 1 1 0 01.3-1.4c.4-.3 8.7-5.5 15.8-2 .5.3.7.9.5 1.4a1 1 0 01-1.4.5c-6-3-13.6 1.8-13.7 1.8a1 1 0 01-.6.2zm40.3 0a1 1 0 01-.7-1.8c4.1-3.5 10.6-2.9 10.9-2.9a1 1 0 01-.2 2.1s-5.9-.5-9.3 2.3a1 1 0 01-.7.3zM595 205.8h-22.5a1 1 0 01-1-1c0-.7.5-1.1 1-1.1H595c.5 0 1 .4 1 1s-.5 1-1 1zm13.7-1.8a1 1 0 01-1-.8 1 1 0 01.8-1.3c.5-.1 13.4-3.3 22.4-1a1 1 0 01-.6 2c-8.4-2.2-21.2 1-21.3 1h-.3zM398 117.5a7 7 0 100-14 7 7 0 000 14z"/><path fill="#FFD23F" d="M400 207.1a36.7 36.7 0 10-.2-73.4 36.7 36.7 0 00.1 73.4z"/><path fill="#fff" d="M420.2 152.9c0 .3.1.6.4.7.4.2 1 0 1.1-.3l2.6-4.9c.2-.4.1-.9-.3-1.1-.4-.2-1 0-1.1.3l-2.6 4.9-.1.4zm-2 4.8c0 .4.3.8.7.9l6.7 1.2c.4 0 .8-.2 1-.7 0-.4-.3-.9-.7-1l-6.7-1.2c-.4 0-.9.2-1 .7v.1zm3.3 6.4v.3l2.3 6c.2.5.7.7 1.1.5.4-.1.7-.6.5-1l-2.3-6.1a.8.8 0 00-1.1-.5c-.3.1-.5.4-.5.8zm7.8 10c0 .4.3.7.7.8.5 0 .9-.2 1-.7l1.6-8.1c.1-.5-.2-1-.7-1-.4 0-.9.2-1 .7l-1.6 8.1v.2zm-8.9 6.8c0 .5.4.8.8.8h4.4a.8.8 0 000-1.6h-4.4c-.4 0-.8.3-.8.8zm-2.2 3.7l.1.3 2.2 4.4a.8.8 0 101.5-.8l-2.2-4.3a.8.8 0 00-1.6.4zm-8.3 5c0 .2.1.5.4.6.3.3.9.2 1.1-.2l3.8-6c.3-.4.2-.9-.2-1.1a.8.8 0 00-1.2.2l-3.8 6-.1.4zm2.8 1c0 .4.3.7.6.8l4 1.3c.4.1.9-.1 1-.6.2-.4 0-.9-.5-1l-4-1.3a.8.8 0 00-1 .6v.2zm-8.6 2.3l.1.3 1.8 4.1c.1.5.6.7 1 .5.5-.2.7-.7.5-1.1l-1.7-4.1a.8.8 0 00-1.1-.5c-.4.1-.6.5-.6.8zm-4.1-11.2l.1.5c.3.4.8.4 1.2.2l5-4c.4-.2.5-.7.2-1a.8.8 0 00-1.1-.2l-5.1 3.8c-.2.2-.3.5-.3.7zm10.5-7.6l.7 6.9a.8.8 0 101.7-.2l-.8-6.8c0-.5-.4-.8-.9-.8-.4 0-.7.5-.7.9zm-6.6-5.7v.3c.2.4.7.7 1.1.5l5.9-2.1a.8.8 0 00-.6-1.6l-5.8 2.1c-.4.1-.6.5-.6.8zm8.8-14.6v7c0 .5.4.9.9.9.4 0 .8-.4.8-.9v-7c0-.5-.4-.9-.8-.9-.5 0-.9.4-.9.9zm-11.6 0c0 .2 0 .4.2.5l4.6 5.2c.3.4.8.4 1.1 0 .4-.2.4-.7.1-1l-4.6-5.3a.8.8 0 00-1.2 0l-.2.6zm9.4-10l.3 8.4c0 .4.5.8 1 .8.4 0 .7-.4.7-.9l-.4-8.3a.8.8 0 00-1.6 0zm2.2 2.1c0 .5.4.9.9.9h4.3c.4 0 .8-.4.8-.9 0-.4-.4-.8-.8-.8h-4.3c-.5 0-.9.4-.9.8zm-6.4-5c0 .2 0 .4.2.5.3.4.9.4 1.2 0l6.5-6.4a.8.8 0 00-1.2-1.2l-6.5 6.5-.2.5zm-9.3 3.7c0 .2.1.5.4.6l5.4 4.5c.4.3.9.2 1.2-.1.3-.4.2-1-.1-1.2l-5.5-4.5a.8.8 0 00-1.4.7zm2.8-6c0 .4.2.7.5.9.4.1.9 0 1-.5l1.6-3.8a.8.8 0 10-1.5-.6l-1.6 3.8v.3zm1.5 1.7c0 .3.1.5.3.7l2.6 2.2c.4.3.9.3 1.2 0 .3-.4.2-1-.1-1.3l-2.6-2.2a.8.8 0 00-1.2.1l-.2.5zm-9-2.9c0 .3 0 .5.3.7.4.3.9.2 1.2-.2l4-5.4c.3-.3.3-.9-.1-1.1a.8.8 0 00-1.2.1l-4 5.4c-.2.2-.2.4-.2.5zm-16.3 53c0 .4.2.7.5.9.5.1 1 0 1.1-.5l2.1-5c.2-.5 0-1-.4-1.2-.5-.2-1 0-1.1.5l-2.1 5v.4zm-3.2-10.5c0 .4.3.7.8.8l6.7.5c.5 0 .9-.3 1-.7 0-.5-.4-1-.9-1l-6.7-.5c-.5 0-.9.3-.9.8zm0-11.3v.4l3 5.8a.8.8 0 101.4-.8l-2.9-5.8a.8.8 0 00-1.6.4zm-6.8 5c0 .4.4.7.8.8.5 0 .9-.3 1-.8l.7-8.2c0-.5-.3-.9-.8-1-.4 0-.9.3-.9.8l-.8 8.3zm4.6-15.6v.1c.1.5.5.8 1 .7l4.3-.4c.5 0 .8-.5.8-1-.1-.4-.5-.7-1-.7l-4.3.5c-.4 0-.8.4-.8.8zm3.6-8.4v.5l2.7 4a.8.8 0 001.4-.8l-2.6-4.1a.8.8 0 00-1.5.4zm7.2 4.6c0 .3.1.6.4.8.4.2 1 0 1.2-.4l3.2-6.3c.2-.4 0-1-.4-1.1-.4-.3-1 0-1.1.3l-3.2 6.3-.1.4zm-3.9-8c0 .5.3.8.7.9l4 .8a.8.8 0 00.4-1.6l-4-.9c-.5 0-1 .2-1 .7v.2zm10.2-6.2l.1.4 2.2 4a.8.8 0 101.5-.8l-2.2-4a.8.8 0 00-1.1-.3c-.3.1-.5.4-.5.7zm2.9 19c0 .2 0 .4.2.6.3.3.9.4 1.2 0l4.7-4.3a.8.8 0 00-1.2-1.3l-4.6 4.4-.3.6zm-6.5-2.4v.2l1.5 6.7c0 .5.5.7 1 .7.4-.1.7-.6.6-1l-1.4-6.8c-.1-.4-.6-.7-1-.6-.4 0-.7.4-.7.8zm3 14.4v.3c.3.5.8.6 1.2.4l5.6-2.7a.8.8 0 00-.7-1.5l-5.6 2.7c-.3.2-.5.5-.5.8zm-2.4 5.7v.1l.7 7c0 .5.5.9 1 .8.4 0 .7-.4.7-1l-.7-7c-.1-.4-.5-.8-1-.7-.4 0-.7.4-.7.8zm7.2 1.2l.3.6 5 4.7c.4.3 1 .3 1.3 0 .3-.4.3-1 0-1.2l-5.2-4.7a.8.8 0 00-1.2 0l-.2.6zm-4.4 7.3v.1l1.2 8.2c0 .5.5.8 1 .8.4-.1.7-.5.6-1l-1.2-8.2a.8.8 0 00-1.6 0zm-5.6 6.8v.1c0 .5.5.8 1 .7l4.2-.4c.5 0 .9-.5.8-1 0-.4-.5-.7-1-.7l-4.2.5c-.5 0-.8.4-.8.8zm5.5 11c0 .3.1.5.3.7.4.3.9.2 1.2-.1l5.8-7.1c.2-.4.2-.9-.2-1.2a.8.8 0 00-1.2.1l-5.7 7.1-.2.5zm8.7-15.6c0 .3.1.5.4.7l5.8 3.9c.4.2 1 .1 1.2-.2.2-.4.1-1-.2-1.2l-6-3.9a.8.8 0 00-1.2.7zm2.6 14a.8.8 0 001.6.2l1.2-4a.8.8 0 10-1.6-.4l-1.2 4v.2zm-3.4-7.4l.4.7 2.8 2c.4.2 1 0 1.2-.3.2-.4.1-.9-.2-1.2l-2.8-2a.8.8 0 00-1.2.3l-.2.5zm8.6 9.7c0 .3.2.6.4.7.4.3 1 .1 1.2-.3l3.5-5.8c.3-.3.1-.9-.3-1.1a.8.8 0 00-1.1.3l-3.5 5.8-.2.4z"/><path fill="#FFCBAF" d="M415.5 122.8A12.3 12.3 0 00408 107c-6.3-2-13.1 1.6-15.3 8.2a12.3 12.3 0 007.6 15.7c6.4 2 13.2-1.6 15.3-8.2z"/><path fill="#272838" d="M407.4 121.6l-2.6-.8a4 4 0 00-2.2.1c-.5.2-1 .8-1.3 1.6l-.8 2.6c0 .4-.3.6-.6.5a.6.6 0 01-.5-.4 8 8 0 01.1-3.2c.1-.6.4-1.2.7-1.7.3-.5.8-1 1.5-1.3.6-.3 1.3-.4 1.9-.4.6 0 1.2.1 1.7.3 1 .4 2 1 2.7 1.8a.5.5 0 01-.6.9zm-10-3c0 .1 0 0 0 0l-.1-.2-.3-.3-.6-.6a5 5 0 00-.9-.4l-1-.3a.5.5 0 01-.4-.6c.1-.3.3-.4.5-.4h1.2l1.2.3 1.2.6a3.5 3.5 0 01.8.8l.2.2v.2a1 1 0 01-.5 1.4 1 1 0 01-1.4-.7z"/><path fill="#272838" d="M397.4 98.2c0-.5.2-1 .4-1.4a5.4 5.4 0 0110-.1 7.4 7.4 0 018.6-1.8c3.3 1.5 5 5.3 4.2 9 .3 0 .6 0 1 .2a4.8 4.8 0 012 6.8c.2 0 .5.1.7.3a5.1 5.1 0 012.5 6.7 5 5 0 01-5 3c.6 4-2.3 7.8-6 6.3-7.3-3-4.9-12.6-4.9-12.6s-20.3-6.3-18.4-13.2c.6-2 2.4-3 5-3.2z"/><mask id="d" width="36" height="35" x="392" y="93" maskUnits="userSpaceOnUse"><path fill="#272838" d="M397.4 98.2c0-.5.2-1 .4-1.4a5.4 5.4 0 0110-.1 7.4 7.4 0 018.6-1.8c3.3 1.5 5 5.3 4.2 9 .3 0 .6 0 1 .2a4.8 4.8 0 012 6.8c.2 0 .5.1.7.3a5.1 5.1 0 012.5 6.7 5 5 0 01-5 3c.6 4.1-2.3 7.8-6 6.3-7.3-3-4.9-12.6-4.9-12.6s-20.3-6.3-18.4-13.2c.6-2 2.4-3 5-3.2z"/></mask><g fill="#fff" mask="url(#d)"><path d="M410.8 122.8s-.6 1 .7 1c.2-.8-.2-1-.7-1z" opacity=".3"/><path d="M401.5 103.6s-.7 1.1.8 1.2c.3-1-.3-1.3-.8-1.2zM420 95s-.5 1 .7 1c.2-.8-.2-1-.6-1z" opacity=".5"/><path d="M411.8 118.9s-.6.9.6 1c.2-.8-.2-1-.6-1z" opacity=".2"/><path d="M392.9 112.5s-.7 1.1.8 1.3c.2-1-.3-1.3-.8-1.3z"/><path d="M406.7 102.3s-.8 1.2.8 1.3c.3-1-.3-1.3-.8-1.3z" opacity=".7"/><path d="M409.1 117.8s-.6 1 .7 1c.2-.8-.3-1-.7-1z" opacity=".3"/><path d="M403.4 100.9s-1 1.5 1 1.6c.3-1.3-.4-1.7-1-1.6z" opacity=".5"/><path d="M413 104.7s-.6.9.6 1c.3-.8-.2-1-.6-1z" opacity=".2"/><path d="M411.5 114.4s-.6.9.6 1c.3-.9-.2-1-.6-1z" opacity=".1"/><path d="M413.3 97.7s-.7 1 .7 1.2c.3-1-.2-1.3-.7-1.2z" opacity=".5"/><path d="M415.4 114.5s-.6.9.7 1c.2-.8-.3-1-.7-1z" opacity=".1"/><path d="M399.9 99s-1 1.5 1 1.7c.3-1.3-.4-1.7-1-1.6z" opacity=".5"/><path d="M394.8 99.6s-.6 1 .7 1c.2-.8-.2-1-.7-1zm2.2 5.6s-.6 1 .7 1c.2-.8-.2-1-.7-1z"/><path d="M412.4 111.2s-.6 1 .6 1c.2-.8-.2-1-.6-1z" opacity=".1"/><path d="M394.8 103s-.6 1 .7 1c.2-.8-.3-1-.7-1zM396.8 111.9s-.8 1.2.8 1.3c.3-1-.2-1.4-.8-1.3z"/><path d="M400 113s-.7 1.2.9 1.3c.2-1-.3-1.3-.8-1.3z" opacity=".8"/><path d="M399.2 105.7s-.7 1 .6 1c.3-.8-.2-1-.6-1z"/><path d="M397.3 115.8s-.8 1.3 1 1.4c.2-1.1-.4-1.5-1-1.4z" opacity=".9"/><path d="M408.6 107.2s-.6.9.6 1c.3-.8-.2-1-.6-1zM411.1 103.4s-.6 1 .7 1c.2-.8-.3-1-.7-1z" opacity=".3"/><path d="M405.3 109s-.6.8.6 1c.2-.9-.2-1.1-.6-1z" opacity=".7"/><path d="M412.6 100.8s-.7 1 .6 1c.2-.8-.2-1-.6-1z" opacity=".4"/><path d="M404.2 106.3s-.6 1 .7 1c.2-.8-.2-1-.7-1z" opacity=".8"/><path d="M408.2 104.7s-.6.9.7 1c.2-.8-.3-1-.7-1z" opacity=".4"/><path d="M405.2 113.4s-.6.9.6 1c.2-.8-.2-1-.6-1z" opacity=".6"/><path d="M400.8 107s-.6 1 .7 1c.2-.8-.3-1-.7-1zm3.7-14.7s-1.2 1.7 1.2 2c.5-1.7-.4-2.1-1.2-2z"/><path d="M398.3 102.6s-.7 1 .7 1.2c.3-1-.2-1.3-.7-1.2z" opacity=".5"/><path d="M400.3 92.2s-.8 1.2.8 1.3c.3-1-.3-1.3-.8-1.3zm.3 2.1s-1 1.5 1 1.7c.4-1.4-.3-1.7-1-1.7zm-4.5 3s-.7 1.1.7 1.2c.2-.9-.3-1.2-.7-1.1zm.5-3.6s-.7 1 .6 1c.3-.8-.2-1-.6-1z"/><path d="M415.1 104.8s-.6 1 .7 1c.2-.8-.2-1-.7-1z" opacity=".1"/><path d="M416 98.8s-.6 1 .7 1c.2-.8-.2-1-.6-1z" opacity=".4"/><path d="M411.6 95s-1 1.5 1 1.6c.4-1.3-.3-1.6-1-1.6z" opacity=".5"/><path d="M402.3 91.4s-.9 1.4 1 1.5c.3-1.2-.3-1.5-1-1.5z"/><path d="M404.3 104s-.7 1.2.7 1.3c.3-1-.2-1.3-.7-1.2z" opacity=".8"/><path d="M399.2 110s-.7 1 .7 1.2c.3-1-.2-1.2-.7-1.2zM397.2 127s-.7.9.6 1c.2-.9-.2-1-.6-1z"/><path d="M408.7 115.5s-.6 1 .6 1c.2-.8-.2-1-.6-1z" opacity=".3"/><path d="M414 111.1s-.6 1 .7 1c.2-.8-.2-1-.6-1z" opacity=".1"/><path d="M397.5 107.4s-.7 1 .6 1c.3-.8-.2-1-.6-1zm-5-1.5s-.7 1 .6 1c.2-.8-.2-1-.6-1zm.2-5s-.6.9.6 1c.2-.8-.2-1-.6-1zm2.2 14s-.9 1.3.8 1.5c.4-1.1-.2-1.5-.8-1.4zm.3-9.7s-.7 1 .6 1c.2-.8-.2-1-.6-1z"/><path d="M402.4 113.5s-.7 1 .7 1.1c.2-.9-.3-1.2-.7-1.1z" opacity=".7"/><path d="M407 118s-.6 1 .7 1c.2-.8-.2-1-.6-1z" opacity=".4"/><path d="M411 98.3s-.9 1.3.8 1.4c.4-1.1-.3-1.5-.8-1.4z" opacity=".6"/><path d="M407.3 111.9s-.6.9.7 1c.2-.8-.2-1-.7-1z" opacity=".4"/><path d="M411.4 108.4s-.6.9.6 1c.3-.8-.2-1-.6-1z" opacity=".1"/><path d="M410 101.4s-.7 1 .7 1.1c.3-1-.2-1.2-.7-1.1z" opacity=".5"/><path d="M415.7 101s-.6.8.7 1c.2-.9-.2-1.1-.7-1z" opacity=".3"/><path d="M422.5 95.5s-.6.9.7 1c.2-.8-.3-1-.7-1z" opacity=".4"/><path d="M420.3 92s-.7 1 .8 1.1c.2-1-.3-1.2-.8-1.1z" opacity=".7"/><path d="M415 92.5s-.9 1.2.8 1.3c.3-1-.3-1.4-.8-1.3z" opacity=".6"/><path d="M418.1 93.7s-.7 1 .8 1.2c.2-1-.3-1.2-.8-1.2z" opacity=".5"/><path d="M424.2 97s-.6 1 .6 1c.2-.8-.2-1-.6-1z" opacity=".2"/><path d="M407.8 109s-.6 1 .6 1c.2-.7-.2-1-.6-1z" opacity=".4"/><path d="M418.3 100s-.6.9.7 1c.2-.8-.3-1-.7-1zM413.5 123.1s-.6 1 .6 1c.2-.8-.2-1-.6-1z" opacity=".2"/><path d="M412.7 127s-.6 1 .6 1c.2-.8-.2-1-.6-1z" opacity=".3"/><path d="M394.5 121.7s-.7 1 .6 1.1c.3-.9-.2-1.1-.6-1zm-1.3-1.4s-.7 1 .7 1c.2-.8-.3-1-.7-1z"/><path d="M400 122.7s-.6 1 .7 1c.2-.8-.3-1-.7-1z" opacity=".9"/><path d="M402.4 122.5s-.6 1 .6 1c.2-.8-.2-1-.6-1zM403.5 125.6s-.6 1 .6 1c.3-.8-.2-1-.6-1z" opacity=".7"/><path d="M398 122.3s-.7 1 .6 1c.3-.8-.2-1-.6-1z"/><path d="M399.4 120.7s-.7 1 .7 1.1c.2-.9-.2-1.1-.7-1z" opacity=".8"/><path d="M401.4 125.3s-.6 1 .7 1c.2-.8-.2-1-.7-1zM397.8 119s-.8 1.2.7 1.3c.3-1-.2-1.3-.7-1.2z" opacity=".9"/><path d="M406 124.1s-.6 1 .6 1c.3-.8-.2-1-.6-1z" opacity=".5"/><path d="M401.6 117.2s-.7 1 .7 1.2c.2-1-.2-1.2-.7-1.2zM403.4 120.7s-.6 1 .6 1c.3-.8-.2-1-.6-1z" opacity=".6"/><path d="M405.4 122.3s-.6.9.6 1c.3-.8-.2-1-.6-1zM404 118.7s-.6.9.6 1c.3-.8-.2-1-.6-1z" opacity=".5"/><path d="M414.2 118.1s-.6 1 .6 1c.3-.8-.2-1-.6-1zM420.4 112.6s-.6.9.6 1c.3-.8-.2-1-.6-1zM418.4 115.6s-.6 1 .6 1c.2-.8-.2-1-.6-1zM422.7 101.4s-.6 1 .6 1c.3-.8-.2-1-.6-1zM424.7 99.8s-.6 1 .6 1c.2-.8-.2-1-.6-1z" opacity=".1"/><path d="M425 94.5s-.6.9.7 1c.2-.9-.2-1-.7-1z" opacity=".3"/></g><path fill="#FF6F82" d="M432.3 134l-31.1 10.6s10.5 10.6 22.6 6.2c12.2-4.4 8.5-16.8 8.5-16.8z"/><path fill="#272838" fill-rule="evenodd" d="M425.1 138.3s-.8 1.3 1 1.4c.2-1.1-.4-1.5-1-1.4zm-8.7 3.5s-.8 1.3 1 1.4c.2-1.1-.4-1.5-1-1.4zm-3.6 3.3s-1 1.6 1.2 1.8c.3-1.5-.4-1.9-1.2-1.8zm8 2s-.9 1.2.9 1.3c.3-1.1-.3-1.4-1-1.4zm.7-4.7s-1 1.7 1.2 1.9c.4-1.5-.4-2-1.2-1.9zm5.1.3s-.6 1.6 1.4 1.3c0-1.3-.7-1.6-1.4-1.3z" clip-rule="evenodd"/><path fill="#272838" d="M381 145.1a15.1 15.1 0 005 11.6c1 1 2.1 2 3.3 2.8a42.4 42.4 0 0012.3 5.8c1.4.4 2.9 1 4.1 2.1h.1c.5.5.5 1.3 0 1.7 0 .2-.3.3-.5.4-1.8.5-3.4.2-5-.4-1.5-.5-3-1-4.5-1.7a41 41 0 01-8.6-4.8 23 23 0 01-6.7-7.7 17 17 0 01-1.7-4.9c-.2-1.7-.1-3.4.1-5a1 1 0 012 0v.1zm53.8 2.8c2.3 5.3 4.1 11 5 16.9a45.7 45.7 0 01-.1 13.6c-.3 1.6-.8 3.2-1.6 4.7l-1.7 2.3a7 7 0 01-2.6 1.7c-1.1.5-2.4.5-3.5.2s-2-.8-2.8-1.4a13.9 13.9 0 01-3.2-4c-.8-1.4-1.3-2.9-1.8-4.3-1-2.9-1.5-5.9-1.9-8.8-.3-3-.4-5.9-.3-8.8a1 1 0 012-.1c1 5.6 2 11.2 4 16.2a26 26 0 001.8 3.5c.7 1.1 1.5 2 2.3 2.6l1 .6h.8c.4-.3 1.1-1 1.7-2 1-2 1.5-4.7 1.7-7.3a41.8 41.8 0 000-8.2c-.5-5.6-1.6-11.1-2.8-16.7a1 1 0 01.8-1.3 1 1 0 011.2.6z"/><path fill="#272838" d="M437 134.7l.2 1.6.1 1.5v3c-.1 2.1-.5 4.2-1.3 6.2a13.2 13.2 0 01-6.3 7c-.4.3-1 .4-1.4.6l-1.5.5-.7.2h-.8l-1.5.3h-3a33.7 33.7 0 01-16-6.4.7.7 0 01-.2-1c.3-.3.6-.3 1-.2a35 35 0 0010 4.4c1.8.4 3.5.7 5.3.7l2.6-.1 1.3-.3.6-.1.6-.3 1.2-.4 1.1-.5c.8-.4 1.4-1 2-1.5 1.1-1.1 1.9-2.6 2.4-4.1.5-1.6.7-3.3.7-5 0-.9 0-1.8-.2-2.6 0-.5 0-.9-.2-1.3l-.2-1.2c-.3-1.2.4-2.3 1.5-2.7 1.2-.3 2.3.4 2.7 1.6v.1zm-14.7 60.8h-.1a1 1 0 01-1-1.1l1.9-18.5a1 1 0 112 .2l-1.8 18.5c0 .5-.5 1-1 1zm-40.9-9.1l-9.3 19.3a1 1 0 01-2-.8l7.6-20.1a2 2 0 113.8 1.4v.2z"/><path fill="#272838" d="M444.4 219.6a73.3 73.3 0 00-23.5-22.9l1.6.4-29.7 1a1 1 0 01-1.1-1c0-.6.4-1 .9-1l29.5-4.2c.5 0 1 0 1.4.3h.2a55.2 55.2 0 016.7 5.8 85.3 85.3 0 0115.8 20.5 1 1 0 01-.5 1.4 1 1 0 01-1.3-.3zm-25.1-84.7a35 35 0 01-11.8 3.8c-2.1.3-4.3.2-6.4-.2-2-.3-4-1-6-1.6-1.8-.6-3.6-1.3-5.4-1.4-1.7-.2-3.3.2-5 1-1.5.7-3 1.8-4.4 3a28 28 0 00-9.4 25 29.7 29.7 0 0010.4 19l-1.6-.6a50.7 50.7 0 0014.5-2.7l1.6-.5a47.8 47.8 0 0023.1-18.4c1.1-2 2-4 2.4-6.1a1 1 0 012 0c.2 2.6-.5 5.2-1.4 7.5-1 2.3-2.2 4.5-3.6 6.6a46.3 46.3 0 01-23.8 17.4c-4.9 1.5-10 2-15 1.6h-.4a2 2 0 01-1.2-.7 33.2 33.2 0 01-10.7-35.2 31 31 0 0116.1-19.2 13 13 0 016.8-1c2.3.3 4.2 1 6.1 1.8 1.9.7 3.7 1.3 5.5 1.7 1.8.4 3.7.5 5.6.4 3.8-.2 7.5-1.5 11-3a1 1 0 011.5.5 1 1 0 01-.5 1.3z"/><path fill="#F5785C" d="M849.2 221a38.4 38.4 0 100-76.8 38.4 38.4 0 000 76.8z"/><path fill="#fff" d="M861.6 162.4a.8.8 0 01-.8-.4c-.2-.4 0-1 .4-1.2l4.8-2.6c.4-.2 1 0 1.1.4.2.4.1.9-.3 1.1l-4.8 2.6-.4.1zm-4.9 2a.8.8 0 01-.8-.7l-1.2-6.7c-.1-.5.2-.9.6-1 .5 0 1 .2 1 .7l1.2 6.7c.1.4-.2.8-.6 1h-.2zm-6.3-3.3h-.3l-6-2.4a.8.8 0 01-.6-1c.2-.5.7-.7 1.1-.5l6 2.3a.8.8 0 01-.2 1.6zm-10-7.9a.8.8 0 01-.8-.7c-.1-.4.2-.9.6-1l8.2-1.6c.4 0 .9.2 1 .7 0 .4-.2.9-.7 1l-8.1 1.6h-.2zm-6.8 9a.8.8 0 01-.9-.9V157c0-.4.4-.8.9-.8.4 0 .8.4.8.8v4.4c0 .5-.4.9-.8.9zm-3.7 2.2l-.3-.1-4.4-2.2a.8.8 0 01.8-1.5l4.3 2.2a.8.8 0 01-.4 1.6zm-5 8.3a.8.8 0 01-.6-.4.8.8 0 01.2-1.1l6-3.9c.4-.2.9-.1 1.1.3.3.4.2.9-.2 1.1l-6 3.9-.4.1zm-1-2.8a.8.8 0 01-.8-.6l-1.3-4c-.1-.4.1-1 .6-1 .4-.2.9 0 1 .5l1.3 4c.1.4-.1.9-.6 1h-.2zm-2.3 8.5a1 1 0 01-.3 0l-4.1-1.8a.8.8 0 01-.5-1c.2-.5.7-.7 1.1-.5l4.2 1.7c.4.2.6.7.4 1.1-.1.4-.4.5-.8.5zm11.2 4.2l-.5-.1a.8.8 0 01-.2-1.2l3.9-5c.3-.4.8-.5 1.2-.2.3.2.4.8.1 1.1l-3.8 5.1c-.2.2-.5.3-.7.3zm7.6-10.5l-7-.7a.8.8 0 01.3-1.7l6.8.7c.4 0 .8.5.7 1 0 .4-.4.7-.8.7zm5.7 6.6a.8.8 0 01-.8-1.1l2-5.9c.2-.4.7-.6 1.1-.5.5.2.7.7.5 1l-2 6c-.2.3-.5.5-.8.5zm14.6-8.8h-7a.8.8 0 010-1.7h7a.8.8 0 010 1.7zm0 11.6c-.2 0-.4 0-.6-.2l-5.2-4.6a.8.8 0 111.1-1.3l5.2 4.7c.4.3.4.8.1 1.2l-.6.2zm9.9-9.4l-8.3-.4a.8.8 0 01-.8-.8c0-.5.4-.8.8-.8l8.3.3a.8.8 0 010 1.7zm-2-2.3a.8.8 0 01-1-.8v-4.3c0-.5.4-.9 1-.9.4 0 .7.4.7.9v4.3c0 .5-.3.9-.8.9zm5 6.5c-.2 0-.4 0-.6-.2a.8.8 0 010-1.2l6.4-6.5c.4-.3.9-.3 1.2 0 .3.4.3.9 0 1.2l-6.4 6.5-.6.2zm-3.7 9.3a.8.8 0 01-.7-.3l-4.4-5.5a.8.8 0 111.3-1l4.4 5.4a.8.8 0 01-.6 1.4zm5.8-2.8a.8.8 0 01-.3-1.6l3.8-1.5c.4-.2 1 0 1.1.4.2.5 0 1-.5 1.1l-3.8 1.6a1 1 0 01-.3 0zm-1.6-1.5a.8.8 0 01-.7-.3l-2.2-2.6a.8.8 0 011.3-1.1l2.2 2.6c.3.3.3.9 0 1.2l-.6.2zm2.9 9a.8.8 0 01-.5-1.5l5.4-4a.8.8 0 011 1.3l-5.4 4c-.2.2-.3.3-.5.3zm-53 16.3a.8.8 0 01-.3-1.6l5-2c.5-.3 1 0 1.2.4.2.4 0 .9-.5 1l-5 2.2a1 1 0 01-.4 0zm10.6 3.3a.8.8 0 01-.8-.8l-.5-6.8c0-.4.3-.8.7-.9.5 0 .9.3 1 .8l.5 6.7c0 .5-.3 1-.8 1zm11.3 0h-.4l-5.8-3a.8.8 0 11.8-1.5l5.7 3a.8.8 0 01-.3 1.5zm-5 6.7a.8.8 0 01-.8-.7c0-.5.3-1 .7-1l8.3-.7c.5 0 .9.3 1 .7 0 .5-.4 1-.8 1l-8.3.7zm15.5-4.6a.8.8 0 01-.8-1l.5-4.3c0-.4.4-.8.9-.7.4 0 .8.4.7 1l-.4 4.3c0 .4-.4.7-.9.7zm8.4-3.5l-.4-.1-4.1-2.7a.8.8 0 01.9-1.4l4 2.7a.8.8 0 01-.4 1.5zm-4.6-7.2a.8.8 0 01-.7-.5c-.2-.4 0-1 .4-1.1l6.3-3.2a.8.8 0 01.7 1.5l-6.3 3.2h-.4zm8 3.8a.8.8 0 01-.8-.7l-.9-4c0-.5.2-1 .7-1 .4-.1.9.2 1 .6l.8 4c0 .5-.2 1-.7 1h-.1zm6.2-10.2l-.4-.1-4-2.2a.8.8 0 01.9-1.5l3.9 2.2c.4.2.6.7.3 1.1-.1.3-.4.5-.7.5zm-19-2.9c-.2 0-.4 0-.5-.2a.8.8 0 010-1.2l4.3-4.6a.8.8 0 111.2 1.1l-4.4 4.7-.6.2zm2.4 6.5h-.1L851 197a.8.8 0 01-.7-1c.1-.4.5-.7 1-.6l6.7 1.4c.5.1.8.6.7 1-.1.4-.5.7-.9.7zm-14.3-3h-.4a.8.8 0 01-.4-1.2l2.7-5.6a.8.8 0 111.5.8l-2.7 5.6c-.1.3-.4.4-.7.4zm-5.7 2.4h-.1l-7-.7a.8.8 0 01-.8-1c0-.4.4-.7 1-.7l7 .8c.4 0 .7.4.7.9 0 .4-.4.7-.8.7zm-1.2-7.2c-.2 0-.4 0-.6-.3l-4.7-5a.8.8 0 011.2-1.2l4.7 5.1c.3.3.3.9 0 1.2l-.6.2zm-7.3 4.5h-.1l-8.2-1.3a.8.8 0 01-.7-1c0-.4.5-.7 1-.6l8.1 1.2a.8.8 0 010 1.7zm-6.8 5.5a.8.8 0 01-.8-1l.4-4.2c0-.5.5-.8 1-.8.4 0 .7.5.7 1l-.5 4.3c0 .4-.4.7-.8.7zm-11-5.5a.8.8 0 01-.7-.3.8.8 0 01.2-1.2l7-5.7c.4-.3 1-.3 1.2 0 .3.4.2 1-.1 1.3l-7 5.7c-.2.2-.4.2-.6.2zm15.6-8.7a.8.8 0 01-.7-.4l-3.9-5.8c-.2-.4-.1-1 .3-1.2s.9-.1 1.1.2l3.9 6a.8.8 0 01-.7 1.2zm-14-2.6a.8.8 0 01-.2-1.7l4-1.1c.4-.1.9.1 1 .6.1.4-.1.9-.6 1l-3.9 1.2h-.2zm7.4 3.4a.8.8 0 01-.6-.4l-2-2.8a.8.8 0 111.4-1l2 2.9a.8.8 0 01-.8 1.3zm-9.7-8.6a.8.8 0 01-.7-.5.8.8 0 01.3-1.1l5.8-3.5c.4-.3.9-.1 1.1.2.3.4.1 1-.2 1.2l-5.8 3.5-.5.2z"/><path fill="#272838" d="M883.6 110.4a14.3 14.3 0 10-27.4 7.2 14.3 14.3 0 0012.5 23.8 14.3 14.3 0 0011.3-19.3c2.8-3 4.3-7.3 3.6-11.7z"/><path fill="#FFCBAF" d="M853.8 141.8a14.2 14.2 0 01-4-28.1c7.8-1.1 15 4.3 16 12 1.1 7.8-4.3 15-12 16z"/><path fill="#272838" d="M858.4 81.7c-2.7.4-5 1.5-7 3a13.3 13.3 0 00-23.1 12.7c-2-.9-4.3-1.2-6.7-.9a12.6 12.6 0 00-3 24 11.4 11.4 0 00-8.9 12.7 11.3 11.3 0 0016 8.7 11.3 11.3 0 0015.5-15.7l1-.2c4.6-.6 8-4.2 8.6-8.5a12.8 12.8 0 0019.1-10.9 14.3 14.3 0 00-11.5-24.9z"/><mask id="e" width="66" height="65" x="809" y="79" maskUnits="userSpaceOnUse"><path fill="#272838" d="M858.5 81.7c-2.7.4-5 1.5-7 3a13.3 13.3 0 00-23.1 12.7c-2-.9-4.4-1.2-6.7-.9a12.6 12.6 0 00-3 24 11.4 11.4 0 00-8.9 12.7 11.3 11.3 0 0016 8.6c2.2 1.5 4.8 2.1 7.6 1.7a11.3 11.3 0 007.8-17.4h1.1c4.6-.7 8-4.3 8.6-8.6a12.8 12.8 0 0019-10.9 14.3 14.3 0 00-11.4-24.9z"/></mask><g fill="#fff" mask="url(#e)"><path d="M826 122.7s-.8 1.2.7 1.3c.3-1-.3-1.3-.8-1.3z" opacity=".3"/><path d="M814.2 98.7s-1 1.4 1 1.5c.4-1.2-.3-1.6-1-1.5zM819.4 80s-1 1.4 1 1.6c.4-1.3-.3-1.7-1-1.6z"/><path d="M837.5 88s-.8 1.2.7 1.3c.3-1-.2-1.3-.7-1.3z" opacity=".5"/><path d="M827 117.8s-.7 1.1.9 1.3c.3-1-.3-1.4-.8-1.3z" opacity=".2"/><path d="M820.7 97.1s-1 1.5 1 1.7c.4-1.4-.3-1.8-1-1.7z" opacity=".7"/><path d="M823.8 116.5s-.8 1.1.7 1.3c.3-1-.2-1.4-.7-1.3z" opacity=".3"/><path d="M816.6 95.3s-1.3 1.9 1.2 2c.5-1.6-.4-2-1.2-2z" opacity=".9"/><path d="M828.6 100s-.7 1.2.8 1.3c.3-1-.2-1.3-.8-1.3z" opacity=".2"/><path d="M826.7 112.1s-.7 1.2.8 1.3c.3-1-.2-1.3-.8-1.3z" opacity=".1"/><path d="M829 91.3s-1 1.3.9 1.5c.3-1.2-.3-1.6-1-1.5z" opacity=".5"/><path d="M831.6 112.3s-.7 1.1.8 1.3c.3-1-.2-1.4-.8-1.3z" opacity=".1"/><path d="M812.2 93s-1.2 1.8 1.2 2c.5-1.6-.4-2-1.2-2zm-3.6 7.7s-.8 1.2.9 1.3c.3-1-.3-1.4-.9-1.3z"/><path d="M827.8 108.3s-.8 1 .8 1.2c.3-1-.3-1.3-.8-1.2z" opacity=".1"/><path d="M808.4 109s-1 1.5 1 1.7c.4-1.4-.3-1.7-1-1.7z"/><path d="M812.4 110.5s-.9 1.4 1 1.6c.4-1.3-.3-1.7-1-1.6z" opacity=".8"/><path d="M811.3 101.3s-.8 1.2.8 1.4c.3-1.1-.2-1.4-.8-1.4z"/><path d="M809 114s-1 1.6 1.1 1.7c.4-1.4-.3-1.8-1-1.8z" opacity=".9"/><path d="M823.1 103.2s-.7 1.1.8 1.3c.3-1-.2-1.4-.8-1.3zM826.3 98.5s-.8 1.1.7 1.2c.3-1-.2-1.3-.7-1.2z" opacity=".3"/><path d="M819 105.4s-.8 1 .7 1.2c.3-1-.2-1.3-.7-1.2z" opacity=".7"/><path d="M828 95.2s-.7 1.2.9 1.3c.3-1-.3-1.4-.8-1.3z" opacity=".4"/><path d="M817.6 102s-.8 1.3.9 1.4c.3-1.1-.3-1.4-.9-1.3z" opacity=".8"/><path d="M822.6 100s-.8 1.2.8 1.3c.3-1-.2-1.3-.8-1.3z" opacity=".4"/><path d="M818.8 111s-.7 1 .8 1.2c.3-1-.3-1.3-.8-1.3z" opacity=".6"/><path d="M813.4 103s-.8 1.2.8 1.3c.3-1-.3-1.4-.8-1.3zm4.6-18.5s-1.5 2.3 1.5 2.5c.6-2-.5-2.6-1.5-2.5zm-7.8 13s-.9 1.3 1 1.4c.3-1.2-.4-1.5-1-1.5zm2.5-13s-1 1.5 1 1.6c.4-1.3-.3-1.7-1-1.6zm.4 2.6s-1.3 1.9 1.3 2c.4-1.6-.5-2-1.3-2z"/><path d="M831.3 100.2s-.8 1.2.8 1.3c.3-1-.3-1.3-.8-1.3z" opacity=".1"/><path d="M832.4 92.8s-.7 1.1.8 1.2c.3-1-.2-1.3-.8-1.2z" opacity=".4"/><path d="M827 88s-1.3 1.8 1.1 2c.5-1.6-.4-2.1-1.2-2z" opacity=".7"/><path d="M824.5 80.4s-1 1.7 1.1 1.9c.5-1.5-.3-2-1-1.9z"/><path d="M820.2 93.4s-1.4 2 1.4 2.3c.6-1.9-.4-2.4-1.4-2.3z" opacity=".8"/><path d="M815.3 83.5s-1.2 1.7 1.2 1.9c.4-1.5-.4-2-1.2-2z"/><path d="M817.9 90s-1.8 2.8 1.9 3c.7-2.4-.6-3-1.9-3z" opacity=".9"/><path d="M817.7 99.3s-1 1.4 1 1.5c.3-1.2-.4-1.6-1-1.5z" opacity=".8"/><path d="M811.4 106.7s-.9 1.4.9 1.5c.3-1.2-.3-1.5-1-1.5zM808.8 127.9s-.8 1.1.8 1.2c.3-1-.3-1.3-.8-1.2z"/><path d="M823.2 113.6s-.7 1.2.8 1.3c.3-1-.3-1.3-.8-1.3z" opacity=".3"/><path d="M830 108s-.8 1.2.7 1.3c.3-1-.2-1.3-.8-1.2z" opacity=".1"/><path d="M809.2 103.4s-.8 1.2.8 1.4c.3-1.1-.2-1.4-.8-1.4z"/><path d="M815.3 111s-.8 1.3.9 1.5c.3-1.2-.3-1.5-.9-1.4z" opacity=".7"/><path d="M821.2 116.7s-.8 1.2.8 1.3c.2-1-.3-1.3-.8-1.3z" opacity=".4"/><path d="M826 92s-1 1.7 1.1 1.8c.4-1.4-.3-1.8-1-1.7z" opacity=".6"/><path d="M821.5 109s-.7 1.2.8 1.3c.3-1-.2-1.3-.8-1.2z" opacity=".4"/><path d="M823.2 90s-1.4 2.1 1.5 2.3c.5-1.9-.5-2.5-1.5-2.4z" opacity=".8"/><path d="M826.6 104.7s-.8 1.1.8 1.2c.3-1-.3-1.3-.8-1.2z" opacity=".1"/><path d="M824.9 96s-.9 1.2.8 1.3c.4-1.1-.2-1.4-.8-1.4z" opacity=".5"/><path d="M832 95.3s-.7 1.2.8 1.3c.3-1-.2-1.3-.8-1.3z" opacity=".3"/><path d="M845.4 76.8s-1.1 1.7 1.2 2c.4-1.6-.4-2-1.2-2z" opacity=".6"/><path d="M836 78.7s-1.1 1.6 1.1 1.8c.4-1.5-.4-2-1.1-1.8z" opacity=".9"/><path d="M840.5 88.5s-.7 1.2.8 1.3c.3-1-.3-1.3-.8-1.3z" opacity=".4"/><path d="M839 78s-1.3 1.8 1.3 2c.4-1.6-.5-2.1-1.3-2z" opacity=".9"/><path d="M837.8 84.2s-1 1.3 1 1.4c.2-1.2-.4-1.5-1-1.4zM834.7 82.3s-1 1.5 1 1.7c.4-1.4-.3-1.8-1-1.7z" opacity=".7"/><path d="M832 77.5s-1 1.5 1 1.7c.4-1.4-.3-1.7-1-1.7z" opacity=".9"/><path d="M831 84.8s-1 1.5 1.1 1.7c.4-1.4-.3-1.8-1-1.7z" opacity=".6"/><path d="M826.8 78s-1 1.4 1 1.6c.3-1.3-.4-1.6-1-1.6z"/><path d="M835 86.3s-.8 1.4 1 1.5c.3-1.2-.4-1.5-1-1.5z" opacity=".5"/><path d="M842.6 90.5s-.8 1.1.8 1.3c.3-1-.3-1.4-.8-1.3z" opacity=".2"/><path d="M822 105.6s-.7 1.1.9 1.2c.3-1-.3-1.3-.8-1.2z" opacity=".4"/><path d="M835.3 94.2s-.8 1.1.7 1.2c.3-1-.2-1.3-.7-1.2zM829.2 123.1s-.7 1.1.8 1.3c.3-1-.3-1.3-.8-1.3z" opacity=".2"/><path d="M828.2 128s-.8 1.1.8 1.3c.3-1-.3-1.3-.8-1.3z" opacity=".3"/><path d="M812.4 122.6s-.8 1.2.8 1.3c.3-1-.3-1.4-.8-1.3z" opacity=".9"/><path d="M819.2 130.3s-.8 1.2.7 1.3c.3-1-.2-1.3-.7-1.3z" opacity=".6"/><path d="M815.4 129.2s-.7 1.1.8 1.2c.3-1-.2-1.3-.8-1.2z" opacity=".9"/><path d="M815.3 122.3s-.7 1.2.8 1.3c.3-1-.3-1.3-.8-1.3zM816.8 126.2s-.8 1.2.7 1.3c.3-1-.2-1.3-.7-1.3z" opacity=".7"/><path d="M809.8 122.1s-.8 1.2.8 1.3c.3-1-.2-1.4-.8-1.3z"/><path d="M811.6 120.1s-.8 1.3.9 1.4c.3-1.1-.3-1.4-.9-1.4z" opacity=".8"/><path d="M814.1 125.8s-.7 1.2.8 1.3c.3-1-.2-1.3-.8-1.3zM809.6 118s-1 1.4 1 1.6c.3-1.3-.4-1.6-1-1.6z" opacity=".9"/><path d="M819.8 124.4s-.7 1.1.8 1.2c.3-1-.2-1.3-.8-1.2z" opacity=".5"/><path d="M814.3 115.7s-.8 1.3 1 1.5c.2-1.2-.4-1.5-1-1.5zM816.6 120.1s-.8 1.2.8 1.3c.3-1-.3-1.4-.8-1.3z" opacity=".6"/><path d="M819.1 122s-.8 1.2.8 1.3c.3-1-.3-1.3-.8-1.3zM817.3 117.5s-.7 1.2.9 1.3c.2-1-.3-1.3-.9-1.3z" opacity=".5"/><path d="M830.1 116.8s-.7 1.2.8 1.3c.3-1-.3-1.3-.8-1.3zM837.9 110s-.8 1 .7 1.2c.3-1-.2-1.3-.7-1.3zM835.3 113.8s-.8 1.1.8 1.2c.3-1-.3-1.3-.8-1.2zM840.7 96s-.7 1.1.8 1.2c.3-1-.2-1.3-.8-1.2zM843.2 94s-.8 1.1.8 1.3c.2-1-.3-1.4-.8-1.3z" opacity=".1"/><path d="M843.6 87.3s-.7 1.1.8 1.2c.3-1-.2-1.3-.8-1.2z" opacity=".3"/><path d="M856.3 84.5s-1.2 1.8 1.2 2c.5-1.6-.4-2-1.2-2z" opacity=".5"/><path d="M865.2 87s-1 1.4 1 1.6c.4-1.3-.3-1.7-1-1.6zm2.2 1.1s-.9 1.3.9 1.5c.3-1.2-.3-1.5-1-1.5z" opacity=".3"/><path d="M870.2 84.6s-.8 1.2.8 1.4c.3-1.1-.3-1.4-.8-1.4zm1.9 4.2s-.8 1.1.7 1.3c.3-1-.2-1.3-.7-1.3zM872.5 98s-.7 1.2.8 1.3c.3-1-.2-1.3-.8-1.2zM866.5 84.1s-1 1.6 1 1.8c.5-1.4-.3-1.9-1-1.8z"/><path d="M870.7 93.3s-.8 1.2.8 1.3c.3-1-.3-1.3-.8-1.3z" opacity=".9"/><path d="M867.3 92.8s-.8 1.1.8 1.3c.3-1-.3-1.4-.8-1.3z" opacity=".3"/><path d="M863 82.8s-1.3 2.1 1.6 2.4c.5-2-.5-2.5-1.5-2.4z" opacity=".8"/><path d="M870.8 103.9s-.8 1.1.8 1.2c.3-1-.3-1.3-.8-1.2z" opacity=".3"/><path d="M866.2 98s-.8 1 .8 1.2c.3-1-.3-1.3-.8-1.3z" opacity=".5"/><path d="M857.3 87.5s-1 1.5 1 1.7c.4-1.4-.3-1.8-1-1.7z" opacity=".4"/><path d="M868.2 106.4s-.7 1.2.8 1.3c.3-1-.3-1.3-.8-1.3z" opacity=".3"/><path d="M864.2 95.7s-.8 1.1.8 1.3c.2-1-.3-1.3-.8-1.3z" opacity=".4"/><path d="M861.7 88.3s-1 1.5 1 1.6c.4-1.3-.3-1.7-1-1.6z" opacity=".6"/><path d="M865.4 100.3s-.8 1.1.7 1.3c.3-1-.2-1.4-.7-1.3zM860.7 92.3s-.8 1.2.8 1.3c.3-1-.3-1.4-.8-1.3z" opacity=".4"/><path d="M862.1 100.4s-.7 1.2.8 1.3c.3-1-.2-1.3-.8-1.3zM862.8 98.2s-.8 1 .8 1.2c.3-1-.3-1.3-.8-1.2zM869.8 98.9s-.7 1.1.8 1.2c.3-1-.2-1.3-.8-1.2zm-.7-3.1s-.7 1.1.8 1.2c.3-1-.2-1.3-.8-1.2zM857.6 92s-.8 1.1.8 1.2c.3-1-.3-1.3-.8-1.3zM855.5 89.4s-.8 1.2.9 1.4c.3-1.1-.3-1.5-.9-1.4z" opacity=".3"/><path d="M854.7 94.3s-.7 1.2.8 1.3c.3-1-.3-1.3-.8-1.3zM851.1 86.1s-.8 1.2.8 1.3c.3-1-.3-1.3-.8-1.3z" opacity=".2"/><path d="M852.2 93s-.8 1.2.8 1.3c.3-1-.3-1.3-.8-1.3z" opacity=".1"/><path d="M852.3 83s-1 1.4 1 1.5c.3-1.2-.3-1.6-1-1.5z" opacity=".5"/><path d="M852.7 80.2s-1.1 1.6 1.1 1.8c.4-1.5-.3-1.9-1.1-1.8zM848.7 79.8s-1 1.4 1 1.5c.3-1.2-.4-1.6-1-1.5z" opacity=".4"/><path d="M848.2 84.5s-.8 1.1.8 1.2c.3-1-.3-1.3-.8-1.2z" opacity=".2"/><path d="M850.5 88.6s-.7 1.2.8 1.3c.3-1-.3-1.3-.8-1.3z" opacity=".1"/><path d="M846.2 81.3s-.9 1.3.9 1.4c.3-1.1-.3-1.5-1-1.4z" opacity=".3"/></g><path fill="#272838" d="M867 126.6v-.4-.2h-.1l-.1-.1h-.1c0-.2-.1-.2-.2-.3l-.5-.2-1-.1c-.5 0-.8.1-1.1.3l-.9.5a1 1 0 001.2 1.7l.2-.2a2.6 2.6 0 01.8-.7l.5-.1h.4l-.1-.2v-.4c-.1.3 0 .7.3.8.3.1.7 0 .8-.4zm-16.1 2.6h5.9l.5.3c.7.6 1.3 1.4 1.6 2.3.3 1 .3 2-.1 3.2-.1.3 0 .5.2.5h.4c1-1 1.6-2.4 1.5-4-.1-1.5-.8-3-2-4a4.4 4.4 0 00-1.6-.8h-.3l-.6-.1a12.7 12.7 0 00-5.7 1.5c-.4.2-.5.5-.3.8 0 .2.3.3.5.3zm20.4 98.8a190.4 190.4 0 013.1-27.8l.8-4.5.5-2.3.6-2.2c1.5-6 3.3-12 5.2-17.9 1.9-5.9 4-11.7 6.4-17.4v.4l-.2-.2-.4-.5a16.5 16.5 0 00-3.4-2.3c-1.8-1-3.6-1.6-5.5-2.2a70 70 0 00-5.7-1.4l-3-.6-3-.5 1.9-.4a35 35 0 01-7 4c-2.6 1-5.3 1.6-8.2 1.6a15.8 15.8 0 01-11.1-4.8c-1-1-1.8-2-2.6-3.2l1.2.4-10.1 3 .7-1.2a24.7 24.7 0 003.4 10.3 16 16 0 003.6 4l1 .8 1.2.7.6.3.6.3 1.3.5c.6.3.9.9.6 1.4a1 1 0 01-1.3.6l-1.4-.6-.7-.3-.7-.4-1.3-.7-1.2-1a18 18 0 01-4-4.5 24.4 24.4 0 01-3.7-11.2c0-.5.2-1 .7-1.1l10.1-2.9c.5-.1 1 0 1.2.4a14.6 14.6 0 005.3 4.5c2 1 4.3 1.5 6.6 1.4 2.3-.2 4.5-1 6.6-2 2-1 4-2.4 5.8-4h.3a2 2 0 011.6-.3l3 .8 3 .9a70.2 70.2 0 0111.5 5 19 19 0 013.8 3.2 6.6 6.6 0 01.7 1.2l.1.2.2.3v.6a193 193 0 01-3 18.3c-1.2 6-2.6 12-4.1 18-1 3-1.4 6-2.1 9a282.7 282.7 0 01-7.4 26.7 1 1 0 01-1.4.6 1 1 0 01-.7-1z"/><path fill="#272838" d="M871.8 178.3a16 16 0 01-16 9.7 14 14 0 01-9-4.7c-2.3-2.6-3.5-6-3.3-9.2 0-.6.5-1 1.1-1 .5 0 .9.4 1 .8.6 2.8 2 5.1 3.8 6.8a11 11 0 006.8 2.8c2.4 0 4.8-.7 7.1-2 1.1-.5 2.3-1.3 3.4-2l3.5-2.5a1 1 0 011.6 1.3zm-4.2 11.6a30.7 30.7 0 00-4 8.2 29 29 0 00-1 9c.1 3 .5 6.2 1 9.3l.4 2.3.4 2.3a14 14 0 01-.1 5 1.2 1.2 0 01-2 .4c-1.2-1.4-1.8-3-2.2-4.5-.5-1.6-.7-3.2-1-4.8-.4-3.3-.7-6.6-.6-10a26.1 26.1 0 017.5-18.5 1 1 0 011.5 0c.3.3.4.9.1 1.3zm-41-17.8a581.7 581.7 0 01-23.9 15l.3-.2a22 22 0 00-.5 3 12.6 12.6 0 00.8 5.7l.6 1.2.4.6.2.2.2.3c1.8 2.3 6.2 2.4 9.6.4 1.8-1 3.5-2.2 5.2-3.6 1.6-1.4 3-3 4.5-4.7 2.8-3.4 5.1-7.3 7.2-11.3a1 1 0 012 .8l-1.2 3.3-1.4 3.3-1.6 3.2-2 3-1 1.5-1.1 1.4-2.5 2.7a30.4 30.4 0 01-5.9 4.5c-1.1.6-2.2 1.2-3.6 1.6-1.4.4-2.7.5-4.1.5-1.4 0-2.9-.2-4.3-.8a8.7 8.7 0 01-3.6-2.9l-.3-.4-.3-.5-.5-1c-.3-.6-.6-1.2-.7-1.9a12.2 12.2 0 012.5-11.6c8.1-4.8 16.1-9.8 24-15a1 1 0 011.4.2 1 1 0 01-.3 1.5zm-3-21.7c1.2 1.1 2.2 2.4 3.2 3.7 1 1.3 1.8 2.8 2.3 4.5.5 1.6.8 3.5.4 5.3a9.4 9.4 0 01-2.6 5 9.2 9.2 0 01-5 2.5c-1.9.3-3.7.1-5.3-.3-3.3-1-6.1-3-8.4-5.4a18.8 18.8 0 01-4.5-8.6c-.3-1.6-.4-3.3 0-5a8.7 8.7 0 012.3-4.3 8.7 8.7 0 014.4-2.2c1.6-.3 3.3-.2 4.9.2 3.1.7 6 2.4 8.3 4.6zm-1.3 1.3c-2-2.1-4.5-3.9-7.4-4.6a9.8 9.8 0 00-4.3-.2c-1.4.2-2.7.9-3.7 1.9-1 1-1.6 2.3-1.8 3.7a10 10 0 00.3 4.2c.7 2.8 2.5 5.3 4.6 7.3a16 16 0 007.3 3.9c1.4.2 2.7.2 3.9 0 1.2-.3 2.2-.8 3-1.6 1.6-1.7 2-4.3 1.7-7-.4-2.7-1.6-5.4-3.6-7.6z"/><path fill="#272838" d="M836.7 186a1 1 0 01-.8-.4l-10.6-13.8a1 1 0 01.2-1.4 1 1 0 011.4.2l9.9 12.8 4-4-9.9-7.7a1 1 0 111.3-1.6l10.7 8.5c.3.2.4.4.4.7 0 .3 0 .6-.3.8l-5.6 5.6a1 1 0 01-.7.3zm-14.6 8.7c2.6 1.8 5.3 3.5 8 5a56.7 56.7 0 0012.9 5.1l4.4.6 4.4.1 4.7-.1c.7 0 1.1.5 1.1 1.1 0 .3-.1.7-.4.9-1.4 1-3 1.8-4.7 2.3-1.8.5-3.6.6-5.3.6a33.2 33.2 0 01-14.8-4.7 42 42 0 01-11.7-9.5 1 1 0 011.4-1.5z"/><g clip-path="url(#clip0)"><path fill="#AFDDCC" d="M248.8 246.9c-2.6-2.6 1.1-10.5 8.3-17.5 7.1-7 15-10.6 17.6-8 2.5 2.6-1.2 10.4-8.3 17.5-7.2 7-15 10.6-17.6 8z"/><path fill="#8BC1B9" d="M268 227.8L248.6 242a3 3 0 00-.6 4.3 3 3 0 004.8 0l15-18.6z"/><path fill="#AFDDCC" d="M67 248c-2.6-2.6 1.1-10.5 8.3-17.5 7.1-7 15-10.6 17.5-8 2.6 2.6-1 10.4-8.2 17.5-7.2 7-15 10.6-17.6 8z"/><path fill="#8BC1B9" d="M86.1 228.9L67 243.2a3 3 0 104.2 4.3L86 229z"/><path fill="#AFDDCC" d="M23.7 252c-1-2.6 3.8-7.1 10.9-10.1 7-3 13.7-3.3 14.8-.7 1 2.6-3.8 7.1-10.9 10-7 3-13.7 3.4-14.8.8z"/><path fill="#8BC1B9" d="M30.3 249.4l17.8-4.8a2.3 2.3 0 10-1.7-4.3l-16 9z"/><path fill="#AFDDCC" d="M12.6 223.5c-7-2.3-12-6.2-11.1-8.7.8-2.6 7.1-2.8 14-.6 7 2.3 12 6.2 11.2 8.7-.9 2.6-7.2 2.8-14.1.6z"/><path fill="#8BC1B9" d="M7.9 217l15.7 7.7c1.1.5 2.4 0 3-1a2.2 2.2 0 00-1.6-3.2L8 217z"/><path fill="#AFDDCC" d="M24.9 224.4c-2.5-.7-2.8-6.7-.8-13.4s5.5-11.4 8-10.7c2.4.7 2.8 6.7.8 13.4s-5.6 11.5-8 10.7z"/><path fill="#8BC1B9" d="M30.1 206.4l-6.8 15.1c-.5 1.1 0 2.3 1 2.8a2 2 0 003-1.5l2.8-16.4z"/><path fill="#AFDDCC" d="M457.3 237.4c-3.7-6.6-4.8-13-2.4-14.4 2.4-1.4 7.4 2.8 11.1 9.4 3.8 6.5 4.8 13 2.4 14.3-2.3 1.4-7.3-2.8-11-9.3z"/><path fill="#8BC1B9" d="M458.3 229.1L465 246a2.3 2.3 0 104-2.2l-10.7-14.6z"/><path fill="#AFDDCC" d="M345.3 252.5c-5.8-3.5-9.5-8-8.2-10.2 1.3-2.1 7-1 12.8 2.5 5.8 3.5 9.4 8 8.1 10.1-1.2 2.2-7 1-12.7-2.4z"/><path fill="#8BC1B9" d="M352.8 251.6l-12.6-10.1a2 2 0 00-2.8.3 2 2 0 00.7 3.1l14.7 6.7z"/><path fill="#AFDDCC" d="M315 256.8c-1.6-1.9 1.3-7 6.5-11.3 5.1-4.4 10.6-6.4 12.2-4.5 1.6 2-1.3 7-6.5 11.3-5.1 4.4-10.6 6.4-12.2 4.5z"/><path fill="#8BC1B9" d="M319.9 252.8l13.6-8.6a2 2 0 00-2.2-3.5l-.3.4-11.1 11.7z"/><path fill="#AFDDCC" d="M234.5 238.6c-4.8-4.8-7.3-10-5.5-11.8 1.7-1.8 7 .7 11.8 5.4 4.8 4.8 7.3 10 5.5 11.8-1.7 1.8-7-.7-11.8-5.4z"/><path fill="#8BC1B9" d="M233.3 231.3l9.9 12.8c.7.9 2 1 2.8.4a2 2 0 000-3.2l-12.6-10z"/><path fill="#AFDDCC" d="M11.1 197.5c-2.2-6-2.3-11.5-.1-12.4 2.2-.8 5.8 3.4 8 9.4 2.4 6 2.4 11.5.3 12.3-2.2.9-5.9-3.3-8.2-9.3z"/><path fill="#8BC1B9" d="M13 190.8l3.5 15a2 2 0 103.6-1.4l-7-13.6z"/><path fill="#EFECFD" d="M997.2 288.8c-2.4-11-5.6-22.2-10.8-32.8a87.8 87.8 0 00-9.6-15.1c-4-4.7-8.7-9-14.4-12.2a39 39 0 00-18.9-4.7l-2.4.1-2.5.3-1.2.2-1 .2-2.4.5c-3 .7-5.8 1.7-8.5 2.7-5.4 2-10.3 4.5-15.2 6.6a101 101 0 01-45 10 124.4 124.4 0 01-31-3.6c-5-1.2-10.3-2.7-15.6-4.1a192 192 0 00-49.3-7A232 232 0 00704 238c-10.5 2.7-20.8 5.8-31.2 7.3a115 115 0 01-31.3.2c-5.2-.7-10.3-2-15.4-3.4s-10.3-3.1-15.6-4.7a162.8 162.8 0 00-32.7-5.9c-11-.7-22.1-.4-33.1.9-11 1.2-21.8 3.5-32.4 5.7a412 412 0 01-31.7 5.8 271.1 271.1 0 01-79.6-1.3c-5.2-1-10.3-2.4-15.6-3.8a175.5 175.5 0 00-33-5.3 239.2 239.2 0 00-49.6 2.2c-5.5.9-10.8 2-16.1 3.2a259 259 0 01-31.6 4.7 384.8 384.8 0 01-64-.7c-10.7-1.2-21.2-3.1-31.8-5.2-5.3-1-10.7-2-16.3-2.8a79.7 79.7 0 00-25.5.7l-2 .5-1.1.2-1 .3-4 1c-5.1 1.5-10.3 2.9-15.5 4-5.2 1.1-10.4 2-15.7 2.5a74 74 0 01-15.6 0c-5.2-.7-10.2-2-15-4.2a45 45 0 01-12.7-8.7 57.9 57.9 0 01-13.4-19.6l-3-7.4a1 1 0 00-2 .6 111.8 111.8 0 006 15.4c2.6 5 5.8 9.6 9.6 13.7a49 49 0 0029.7 15.4c5.6.9 11.3 1 16.8.7 5.6-.3 11.1-1 16.5-2 5.5-1 10.8-2.3 16-3.6l4-1 1-.2 1-.2 1.8-.4c2.6-.5 5-.8 7.6-1 10.2-.6 20.6 1.8 31.2 4a297.5 297.5 0 0081.7 8 318 318 0 0033-2.6c5.4-.8 10.9-1.9 16.2-3 5.3-1.1 10.5-2.3 15.8-3.1a170.4 170.4 0 0131.6-2.6 168.5 168.5 0 0147.2 5 168.8 168.8 0 0032.6 6.1 292.4 292.4 0 0065.8-1.7c11-1.5 21.7-3.8 32.3-6.2 10.6-2.3 21-4.6 31.6-5.8a178.8 178.8 0 0147.5 1c5.2.9 10.3 2.2 15.5 3.7 5 1.5 10.2 3.3 15.5 4.8A123.1 123.1 0 00657 254c5.6 0 11.2-.3 16.8-1 11-1.5 21.7-4.6 32.1-7.2 10.5-2.7 20.8-4.8 31.4-6a222.5 222.5 0 0163.4 2.6c5.1 1 10.3 2.4 15.4 3.9l15.7 4.5a141.8 141.8 0 0033.4 4.7 133.5 133.5 0 0033.8-4.2c5.5-1.5 10.9-3.5 16-5.6 5.2-2 10-4.3 14.8-6a54 54 0 017-2l1.8-.3.8-.1.8-.1 1.7-.1h1.6c4.3 0 8.5 1.2 12.2 3.4 3.8 2.2 7.1 5.4 10 9.1a61 61 0 017.3 12.6c1 2.3 2 4.7 2.8 7l1.2 3.7 1 3.7c1.4 4.9 2.4 10 3.3 15.1a8 8 0 1016-2.6l-.1-.4z"/><path fill="#272838" d="M993.8 284.4c-.7-5.4-1.7-10.9-3.1-16.2a101.2 101.2 0 00-9.2-23.3c-1.4-2.4-3-4.8-4.7-7a45.6 45.6 0 00-13-11.5 34.1 34.1 0 00-25.7-3.4 65 65 0 00-8.1 2.5c-5.3 2-10.2 4.3-15.1 6.4a110.8 110.8 0 01-46.4 9.6 124.8 124.8 0 01-31.6-4.1l-15.6-4.4a190.2 190.2 0 00-49-7.2c-11-.2-22 .2-32.9 1.6a218 218 0 00-32.2 7c-10.5 3-20.8 6.2-31.3 7.8a103.5 103.5 0 01-47.1-4c-5.1-1.5-10.2-3.4-15.5-5a141.1 141.1 0 00-65.6-5.3c-11 1.3-21.6 3.8-32.2 6.2a388.5 388.5 0 01-31.8 6.2 263.3 263.3 0 01-64.4 1.4c-5.3-.6-10.6-1.4-15.8-2.5-5.3-1.2-10.5-2.6-15.7-4a144 144 0 00-32.5-5.8 228.4 228.4 0 00-49.3 2.3c-5.4 1-10.7 2.3-16 3.5a224.3 224.3 0 01-64.2 6.4 314 314 0 01-64.4-7c-5.3-1-10.7-2-16.2-2.7a71.4 71.4 0 00-24.8 1.6l-7.9 2c-5.2 1.4-10.5 2.7-15.8 3.8-5.3 1.1-10.6 2-16 2.5-5.3.4-10.6.5-16 0a55 55 0 01-15.3-4c-5-2-9.5-4.8-13.4-8.4A54.2 54.2 0 0122.2 210a99 99 0 01-3-7.4 1 1 0 10-2 .7 100 100 0 006.8 15c2.9 4.8 6.3 9.2 10.4 13 4.1 3.8 8.9 6.8 14 9a57.1 57.1 0 0016 4.2c5.6.6 11.1.6 16.6.1 5.5-.4 11-1.2 16.3-2.3 5.4-1 10.7-2.4 16-3.7l7.8-2a65.2 65.2 0 0123.8-1.3c5.3.6 10.6 1.6 16 2.7a315.5 315.5 0 0065 7.6c10.8 0 21.7-.1 32.6-1a199 199 0 0032.5-5.2 151.7 151.7 0 0131.8-5.4 226.8 226.8 0 0148.1 1.9c5.3 1 10.5 2.2 15.7 3.7a158 158 0 0032.2 6.9 265 265 0 0065.6-1.1c10.9-1.5 21.6-3.8 32.2-6.2a323 323 0 0131.8-6c10.6-1.3 21.4-1.7 32-1a124.7 124.7 0 0131.3 6.1l15.5 5.2a109 109 0 0049.5 4.1c11-1.6 21.6-5 32-7.8 10.4-3 20.8-5.4 31.4-6.8a211.5 211.5 0 0164 1.8c5.3 1 10.5 2.3 15.7 3.8 5.2 1.4 10.4 3 15.7 4.3a174 174 0 0016.3 3.3 129.3 129.3 0 0049.7-3.2c5.3-1.5 10.6-3.5 15.6-5.7 5-2 10-4.4 15-6.2 2.4-1 4.9-1.7 7.4-2.3a28.8 28.8 0 0121.7 2.6c4.3 2.4 8.2 5.8 11.5 9.8a65.6 65.6 0 018.5 13.2c4.8 9.5 8 20 10.6 30.5.1.5.7.9 1.2.7.5 0 .9-.6.8-1.1z"/><path fill="#E1DDF7" d="M154 243.6c-1.6-.9-3.4-1.4-5.2-1.9l-2.7-.4-2.8-.4a71.8 71.8 0 00-22.1 1.1l-10.8 2a221 221 0 01-21.6 2.7c-7.2.6-14.5.7-21.8.8a.5.5 0 000 1c3.7.1 7.3.3 11 .3h5.5l5.5-.2 5.4-.3 2.8-.2 2.7-.3 5.5-.6 5.4-.8c7.3-1.1 14.4-2.6 21.6-3 3.5-.2 7.1 0 10.7.3l5.3.7c1.8.2 3.6.4 5.5.2.3 0 .5-.3.5-.6 0-.2-.2-.3-.3-.4zm242 8a10.4 10.4 0 00-4-3.5 18 18 0 00-2.3-1l-2.4-.9-2.4-.8-2.4-.7-2.5-.7-2.4-.6c-3.3-.9-6.6-1.5-10-2l-5-.7-5-.5-5-.3h-5a160 160 0 00-29.8 2.8 1 1 0 00.2 2 321.2 321.2 0 0129.4-.2l5 .4 4.7.5 4.9.6 4.7.8c3.2.6 6.4 1.3 9.5 2.1l2.3.7 2.3.7 2.4.7 2.3.7a46.6 46.6 0 014.5 1.6c1.6.4 3.3.6 5.2.2a1.3 1.3 0 00.8-2z"/><path fill="#AFDDCC" d="M171.4 252.5c-13.3-.9-23.6-9.2-23-18.6.7-9.3 12-16 25.3-15.1 13.4.9 23.6 9.2 23 18.6-.7 9.3-12 16-25.3 15.1z"/><path fill="#8BC1B9" d="M195.5 234.1a24.6 24.6 0 00-4.5-4.3 38 38 0 00-17.3-7.3 35.1 35.1 0 00-12.7 1 32 32 0 00-11 5.7 1 1 0 00-.7 1v.1l.2.6a14.7 14.7 0 001.5 3 23.6 23.6 0 007 7c3.6 2.3 7.9 3.8 12.2 4.3 1 .2 2.1.2 3.2.3l3.3-.1 1.5-.2 1.6-.2 3.1-.6c4.1-1 8-2.6 11.5-4.8a1.3 1.3 0 00-.8-2.4c-4 .3-7.9.9-11.6 1l-1.4.2H176.4a44.5 44.5 0 01-15.6-3 32.3 32.3 0 01-8-5l-1.1-.8-.5 1.7a56.6 56.6 0 0116.4-3.7 41 41 0 0123.8 6.9l1.2.7 1.2.8c.7.4 1.5.2 1.8-.4.3-.5.2-1 0-1.5z"/><path fill="#272838" d="M175 214.2c-5.9-.2-11.9 1-17 3.8-2.7 1.4-5.1 3.2-7 5.6-2 2.4-3.3 5.3-3.6 8.5-.3 3.2.4 6.4 2 9.2 1.4 2.7 3.5 5.1 6 7a32.7 32.7 0 0034.7 3c2.7-1.6 5.3-3.6 7.3-6.2l.7-1 .6-1c.5-.8.8-1.6 1-2.3l.3-.6.2-.6.3-1.2c.2-.8.2-1.7.3-2.5.2-3.4-.8-6.7-2.4-9.5-1.7-2.7-4-5-6.5-6.7-5-3.5-11-5.2-16.9-5.5zm-.2 2.9c5.4.6 10.7 2.4 14.8 5.7 2 1.6 3.8 3.6 5 5.8 1 2.2 1.6 4.6 1.4 7-.3 2.3-1.2 4.5-2.7 6.4a18.2 18.2 0 01-5.7 4.7 28.8 28.8 0 01-15 3.1 28.7 28.7 0 01-14.9-4.8c-2-1.4-4-3.3-5.3-5.5a13 13 0 01-2-7.2c.1-2.5 1-5 2.6-7.1a19 19 0 016-5.3 29 29 0 0115.8-2.8z"/><path fill="#AFDDCC" d="M511 252.5c-13.3-.9-23.6-9.2-23-18.6.7-9.3 12-16 25.4-15.2 13.3 1 23.5 9.3 22.9 18.6-.7 9.4-12 16.2-25.3 15.2z"/><path fill="#8BC1B9" d="M535.1 234.1a24.6 24.6 0 00-4.5-4.3 38.1 38.1 0 00-17.3-7.3 35.1 35.1 0 00-12.7 1 32 32 0 00-11 5.7 1 1 0 00-.7 1v.1l.2.6a14.7 14.7 0 001.5 3 23.6 23.6 0 007 7c3.6 2.3 7.9 3.8 12.2 4.3 1 .2 2.2.2 3.2.3l3.3-.1 1.6-.2 1.5-.2 3.1-.6c4.1-1 8-2.6 11.5-4.8a1.3 1.3 0 00-.8-2.4c-4 .3-7.9.9-11.6 1l-1.4.2H516a44.5 44.5 0 01-15.7-3 32.3 32.3 0 01-8-5c-.4-.2-.8-.5-1-.8l-.5 1.7a56.6 56.6 0 0116.3-3.7 41 41 0 0123.8 6.9l1.2.7 1.2.8c.7.4 1.5.2 1.8-.4.3-.5.3-1 0-1.5z"/><path fill="#272838" d="M514.7 214.2c-6-.2-12 1-17.1 3.8-2.7 1.4-5.1 3.2-7 5.6-2 2.4-3.3 5.3-3.6 8.5-.3 3.2.4 6.4 2 9.2 1.4 2.7 3.5 5.1 6 7a32.7 32.7 0 0034.7 3c2.7-1.6 5.3-3.6 7.3-6.2l.7-1 .6-1c.5-.8.8-1.6 1-2.3l.3-.6.2-.6.3-1.2.4-2.5c.1-3.4-.9-6.7-2.5-9.5-1.7-2.7-4-5-6.5-6.7-5-3.5-11-5.2-16.8-5.5zm-.2 2.9c5.3.6 10.6 2.4 14.8 5.7 2 1.6 3.7 3.6 4.9 5.8 1.1 2.2 1.6 4.6 1.4 7-.2 2.3-1.2 4.5-2.7 6.4a18.2 18.2 0 01-5.7 4.7 28.8 28.8 0 01-15 3.1 28.7 28.7 0 01-14.8-4.8c-2.2-1.4-4-3.3-5.4-5.5a13 13 0 01-2-7.2c.1-2.5 1-5 2.6-7.1a19 19 0 016-5.3 29 29 0 0115.9-2.8z"/><path fill="#AFDDCC" d="M395.6 252.5c-17-1.2-30-11.8-29.2-23.7.9-11.9 15.3-20.6 32.3-19.4 17 1.2 30 11.8 29.2 23.7-.9 12-15.3 20.6-32.3 19.4z"/><path fill="#8BC1B9" d="M426.4 229a31.3 31.3 0 00-5.8-5.5 48.6 48.6 0 00-22-9.2 43.8 43.8 0 00-16.2 1.1c-5.2 1.5-10 4-14.1 7.3-.6.2-1 .8-.8 1.4v.1l.2.7.9 2a22.5 22.5 0 003.5 5.2c1.8 2 4 4 6.3 5.5 4.7 3 10.2 5 15.7 5.6l4.1.3 4.2-.1 2-.2c.7 0 1.3-.2 2-.3 1.3-.1 2.7-.5 4-.7A47 47 0 00425 236a1.7 1.7 0 00-1-3h-.1c-5.1.4-10 1-14.7 1.3l-1.8.1h-1.8l-1.8.1h-1.7a57.8 57.8 0 01-20-3.8 40.9 40.9 0 01-10.3-6.3l-1.3-1.1-.5 2.2a54 54 0 0127.8-4.4 56.3 56.3 0 0120.2 6.6l3.2 1.8 1.5 1 1.5.9h.2c.7.5 1.7.3 2.2-.5.3-.6.3-1.3-.2-1.9z"/><path fill="#272838" d="M400.3 204c-3.7-.1-7.5.1-11.1.9-3.7.7-7.2 2-10.5 3.8-3.3 1.8-6.4 4-8.8 7.1-2.4 3-4 6.7-4.4 10.7-.4 4 .5 8 2.4 11.4a28 28 0 007.6 8.8 40.8 40.8 0 0021.3 8c3.8.2 7.6 0 11.4-.6a38 38 0 0011-3.8c3.4-2 6.6-4.4 9-7.7a20 20 0 001.3-23.1 28 28 0 00-8-8.4 40.6 40.6 0 00-21.2-7zm-.2 2.9c7 .6 13.8 3 19.2 7.2 2.7 2.1 5 4.7 6.5 7.6 1.5 2.8 2.2 6 2 9.2-.4 3-1.6 6-3.6 8.6a24 24 0 01-7.5 6.2 36.8 36.8 0 01-19.6 4c-3.4-.2-6.8-.7-10-1.8-3.3-1-6.4-2.6-9.2-4.5-2.8-2-5.2-4.4-7-7.3a17 17 0 01-2.4-9.4c.1-3.3 1.4-6.6 3.4-9.4 2-2.7 4.7-5 7.8-6.7a37.3 37.3 0 0120.4-3.7z"/></g><path fill="#557DFF" d="M196.5 130.8a41.4 41.4 0 10-.1-82.8 41.4 41.4 0 00.1 82.8z"/><path fill="#fff" d="M195.7 116.3a5 5 0 10-.6-9.8 5 5 0 00.6 9.8zM182 96.9a2.6 2.6 0 10-.3-5.1 2.6 2.6 0 00.3 5zm29.7-6.6a2.6 2.6 0 10-.3-5.1 2.6 2.6 0 00.3 5.1zm8.2-22.2a2.6 2.6 0 10-.3-5 2.6 2.6 0 00.3 5zm-26.4 7.5a2.6 2.6 0 10-.3-5.1 2.6 2.6 0 00.3 5.1zm-11.3 11a4.5 4.5 0 10-.5-9 4.5 4.5 0 00.5 9zm-11.8 16.8a1.2 1.2 0 10-.2-2.4 1.2 1.2 0 00.2 2.4zm46-23.2a1.2 1.2 0 10-.2-2.4 1.2 1.2 0 00.1 2.4zm-34.4 32a3.4 3.4 0 10-.4-7 3.4 3.4 0 00.4 7zm14.6-22a4.2 4.2 0 10-.5-8.4 4.2 4.2 0 00.5 8.4zm36.5-3.8a4.2 4.2 0 10-.5-8.4 4.2 4.2 0 00.5 8.4zm-49.7-16.6a4.2 4.2 0 10-.5-8.4 4.2 4.2 0 00.5 8.4zm20.8 34.7a4.2 4.2 0 10-.4-8.3 4.2 4.2 0 00.4 8.3zm0-35.6a1.8 1.8 0 10-.3-3.6 1.8 1.8 0 00.2 3.6zm-11.9 32.7a1.8 1.8 0 10-.2-3.6 1.8 1.8 0 00.2 3.6zm9.2-40.1a5.4 5.4 0 10-.6-10.9 5.4 5.4 0 00.6 10.9zm19.9 43.1a5.4 5.4 0 10-.6-10.8 5.4 5.4 0 00.6 10.8zm-55.8-10.4a4.7 4.7 0 10-.5-9.3 4.7 4.7 0 00.5 9.3zm-1-17.2a2.4 2.4 0 10-.4-4.8 2.4 2.4 0 00.3 4.8zm14.2 45.9a2.4 2.4 0 10-.3-4.8 2.4 2.4 0 00.3 4.8z" opacity=".4"/><path fill="#F5785C" d="M216.6 107.3l2.4 20.3-26.4 5.7-5.5-20.1 29.5-6z"/><path fill="#fff" d="M176.1 126.2l55-7.8 19.1 103.9-16.5 8.7-28.4-70.3-14 22.7 7 14-8.2 31.5-18.3-51.1 4.3-51.6z"/><path fill="#F5785C" d="M212.7 90.2l.2 1.4-27.7 14.4-2.7-9.8 30.2-6z"/><path fill="#272838" d="M192.2 10.6c-7.2-3.9-24.5-.4-25.5 18s12.9 11.6 12.7 2.8c-.2-8.9 18.2-18 12.8-20.8z"/><path fill="#FFCBAF" d="M184 42a14.2 14.2 0 10-.1-28.3 14.2 14.2 0 000 28.3z"/><path fill="#272838" d="M171 28a7 7 0 012.3-.6h1.3l1.3.6c.5.3.7 1 .4 1.5a1 1 0 01-1.7.2 2 2 0 00-.5-.4l-.8-.2h-1.9a.6.6 0 01-.7-.4c0-.2 0-.5.3-.6zm14.7 1.4l-3.2.2H181l-.8.3-.1.2-.2.5-.5 1.7a5 5 0 01-2.4 2.9c-.2 0-.5 0-.5-.2-.1-.1 0-.3 0-.4.5-1 .8-1.8.9-2.8v-1.6l.3-1a3.1 3.1 0 011-1.5l.4-.2.6-.2 1-.2 2 .1c1.1.2 2.2.5 3.3 1 .3.2.4.6.2.9 0 .2-.2.3-.4.3z"/><path fill="#272838" fill-rule="evenodd" d="M208.7 20.4c-3.5-.4-7.1 1.2-8 5.5-1 4.6.7 7.6 3.2 9.1a53.8 53.8 0 014.8-14.6zm-3.1 15.3a52.2 52.2 0 015-15l1.5.8c-.6 2-1.2 4.4-1.4 6.7a19 19 0 00.6 7.2c-1.8.8-3.9.9-5.7.3zm7.3-1.2a8 8 0 003-4.8c.7-3-.4-5.5-2.3-7.2-.5 1.9-1 3.9-1.1 5.9-.2 2.1-.1 4.2.4 6z" clip-rule="evenodd"/><path fill="#272838" d="M188 5.5c-5.4 1.2-11.6 2.3-17.5 10.8 3.7 7 8.7 9 13 6.2 4.3-2.7 7.4 1.7 5.8 6.3-1.7 4.6 4.7 11.5 9.4 6.8s9.2-15.2 4.7-23a14.5 14.5 0 00-15.5-7z"/><mask id="f" width="36" height="33" x="170" y="5" maskUnits="userSpaceOnUse"><path fill="#272838" d="M188 5.5c-5.4 1.2-11.6 2.3-17.5 10.8 3.7 7 8.7 9 13 6.2 4.3-2.7 7.4 1.7 5.8 6.3-1.7 4.6 4.7 11.5 9.4 6.8s9.2-15.2 4.7-23a14.5 14.5 0 00-15.5-7z"/></mask><g fill="#fff" mask="url(#f)"><path d="M181.7 13.8s-.6 1 .6 1c.2-.8-.2-1-.6-1z" opacity=".5"/><path d="M170.7 36.6s-.6 1 .6 1c.3-.8-.2-1-.6-1z" opacity=".3"/><path d="M174.6 23.4s-.6 1 .6 1c.3-.8-.2-1-.6-1z" opacity=".2"/><path d="M173.1 33.1s-.6 1 .6 1c.3-.8-.2-1-.6-1z" opacity=".1"/><path d="M174.9 16.4s-.7 1.1.7 1.2c.3-1-.2-1.2-.7-1.2z" opacity=".5"/><path d="M177 33.2s-.6 1 .6 1c.3-.8-.2-1-.6-1zM174 30s-.7 1 .6 1c.2-.8-.2-1-.6-1z" opacity=".1"/><path d="M170.2 26s-.6.9.6 1c.3-.8-.2-1-.6-1zM172.7 22.2s-.6.9.6 1c.3-.8-.2-1-.6-1z" opacity=".3"/><path d="M174.2 19.6s-.7.9.6 1c.2-.8-.2-1-.6-1zM169.8 23.4s-.6 1 .6 1c.3-.8-.2-1-.6-1z" opacity=".4"/><path d="M176.7 23.6s-.6 1 .7 1c.2-.8-.2-1-.7-1z" opacity=".1"/><path d="M177.7 17.6s-.7 1 .6 1c.2-.8-.2-1-.6-1z" opacity=".4"/><path d="M173.2 13.8s-1 1.4 1 1.6c.4-1.3-.3-1.7-1-1.6z" opacity=".7"/><path d="M171.3 7.7s-.9 1.4 1 1.5c.2-1.2-.4-1.5-1-1.5z"/><path d="M170.3 34.3s-.6 1 .6 1c.2-.8-.2-1-.6-1z" opacity=".3"/><path d="M175.6 29.9s-.6.9.7 1c.2-.8-.2-1-.7-1z" opacity=".1"/><path d="M172.5 17s-.8 1.3 1 1.5c.2-1.2-.4-1.5-1-1.4z" opacity=".6"/><path d="M170.3 15.3s-1.2 1.8 1.2 2c.4-1.6-.4-2-1.2-2z" opacity=".8"/><path d="M173 27.1s-.6 1 .6 1c.2-.8-.2-1-.6-1z" opacity=".1"/><path d="M171.6 20.1s-.7 1 .7 1.2c.3-1-.2-1.2-.7-1.2z" opacity=".5"/><path d="M177.3 19.7s-.6.9.7 1c.2-.8-.2-1-.7-1z" opacity=".3"/><path d="M188 4.9s-.9 1.3 1 1.5c.3-1.2-.3-1.6-1-1.5z" opacity=".6"/><path d="M180.5 6.3s-.9 1.4 1 1.5c.2-1.2-.4-1.5-1-1.5z" opacity=".9"/><path d="M184.1 14.2s-.6 1 .6 1c.3-.8-.2-1-.6-1z" opacity=".4"/><path d="M182.9 5.8s-1 1.5 1 1.6c.4-1.3-.3-1.7-1-1.6z" opacity=".9"/><path d="M182 10.7s-.8 1.1.7 1.2c.2-1-.3-1.2-.8-1.2zM179.5 9.2s-.8 1.3.8 1.4c.3-1.1-.2-1.4-.8-1.4z" opacity=".7"/><path d="M177.3 5.4s-.7 1.2.9 1.3c.3-1-.3-1.3-.9-1.3z" opacity=".9"/><path d="M176.6 11.2s-.9 1.3.8 1.4c.3-1.1-.3-1.4-.8-1.4z" opacity=".6"/><path d="M172.3 4.2s-.7 1 .7 1.1c.3-1-.2-1.2-.7-1.1zM173.1 5.8s-.7 1.2.8 1.3c.3-1-.2-1.3-.8-1.3zM170.5 5.2s-.7 1 .7 1.2c.2-1-.2-1.2-.7-1.2z"/><path d="M179.7 12.5s-.7 1 .8 1.1c.2-.9-.3-1.2-.8-1.1z" opacity=".5"/><path d="M185.8 15.8s-.6 1 .6 1c.2-.8-.2-1-.6-1z" opacity=".2"/><path d="M169.4 27.9s-.6.9.6 1c.2-.9-.2-1-.6-1z" opacity=".4"/><path d="M180 18.7s-.7 1 .5 1c.3-.8-.2-1-.6-1z" opacity=".2"/><path d="M175.8 36.9s-.6.9.6 1c.3-.8-.2-1-.6-1zM182 31.3s-.6 1 .6 1c.2-.8-.2-1-.6-1zM180 34.4s-.7 1 .6 1c.2-.8-.2-1-.6-1zM184.3 20.2s-.6.9.6 1c.3-.8-.2-1-.6-1zM186.3 18.6s-.7.9.6 1c.2-.8-.2-1-.6-1z" opacity=".1"/><path d="M186.6 13.2s-.6 1 .6 1c.3-.8-.2-1-.6-1z" opacity=".3"/><path d="M196.8 11s-1 1.4 1 1.6c.3-1.3-.4-1.6-1-1.6z" opacity=".5"/><path d="M203.9 13s-.8 1.2.8 1.3c.3-1-.3-1.4-.8-1.3zm1.7 1s-.6 1 .7 1c.3-.9-.2-1.1-.7-1z" opacity=".3"/><path d="M205 10.7s-1 1.3.8 1.4c.3-1.1-.3-1.5-.9-1.4z"/><path d="M205.6 17.6s-.6 1 .6 1c.2-.8-.2-1-.6-1z" opacity=".3"/><path d="M202.2 9.6s-1.2 1.7 1.2 2c.4-1.6-.4-2-1.2-2z" opacity=".8"/><path d="M204.7 21.7s-.6 1 .6 1c.2-.7-.2-1-.6-1z" opacity=".5"/><path d="M197.5 13.4s-.8 1.2.8 1.3c.3-1-.2-1.4-.8-1.3zM203 20s-.6.9.7 1c.2-.8-.2-1-.7-1z" opacity=".4"/><path d="M201 14s-.7 1.2.9 1.4c.3-1.1-.3-1.4-.8-1.4z" opacity=".6"/><path d="M204 23.6s-.6 1 .6 1c.3-.8-.2-1-.6-1zM200.3 17.2s-.7 1 .6 1.1c.3-.9-.2-1.1-.6-1z" opacity=".4"/><path d="M201.4 23.7s-.6 1 .6 1c.3-.8-.2-1-.6-1zM202 22s-.7.8.6 1c.2-.9-.2-1.1-.6-1zM197.8 17s-.7.9.6 1c.2-.9-.2-1.1-.6-1zM196.1 15s-.7 1 .7 1c.2-.9-.2-1.1-.7-1z" opacity=".3"/><path d="M195.5 18.9s-.6.9.6 1c.2-.8-.2-1-.6-1zM192.6 12.3s-.6 1 .6 1c.2-.8-.2-1-.6-1z" opacity=".2"/><path d="M193.5 17.8s-.6 1 .6 1c.2-.8-.2-1-.6-1z" opacity=".1"/><path d="M193.6 9.8s-.8 1.1.8 1.2c.2-1-.3-1.3-.8-1.2z" opacity=".5"/><path d="M193.9 7.5s-1 1.4.9 1.5c.3-1.2-.3-1.5-1-1.5zM190.6 7.2s-.7 1.1.8 1.3c.3-1-.3-1.3-.8-1.3z" opacity=".4"/><path d="M190.3 11s-.6.9.6 1c.2-.8-.2-1-.6-1z" opacity=".2"/><path d="M192.1 14.3s-.6 1 .7 1c.2-.8-.3-1-.7-1z" opacity=".1"/><path d="M188.6 8.4s-.7 1 .8 1.2c.2-1-.3-1.2-.8-1.2z" opacity=".3"/></g><path fill="#272838" d="M205.4 61.6a123 123 0 0010.7 18.6c1.4 1.9 3 3.7 4.6 5.2v.2c.7.7.7 1.8 0 2.5-1.8 2.1-4 3.6-6.1 5a67.6 67.6 0 01-13.6 6.8c-2.3 1-4.6 1.9-7 2.7-.8.3-1.6-.1-1.8-.8-.3-.8.1-1.6.8-1.8a137 137 0 0013.4-6.2c2.1-1.1 4.2-2.4 6.2-3.7a25 25 0 005.2-4.5l.1 2.6c-1.8-2-3.2-4-4.6-6a83 83 0 01-7-13l-2.8-6.8a1 1 0 012-.8zm-58.6 80h-.1a1 1 0 01-1-1.2c.2-1.4 3.4-34 9.8-41.8.3-20.7 12.2-47.2 12.7-48.3a1 1 0 111.9.9c-.1.2-12.4 27.5-12.5 47.8 0 .2-.1.5-.3.7-6.2 6.6-9.5 40.6-9.5 41 0 .5-.5.9-1 .9zm45.3-33.9c-6 0-9.8-3-10-3.1a1 1 0 01-.1-1.5 1 1 0 011.4-.1c.1 0 4.8 3.7 12 2.3a1 1 0 011.2.8 1 1 0 01-.8 1.2c-1.3.3-2.6.4-3.7.4z"/><path fill="#272838" d="M181.6 108.5h.1l.2.2.3.3 1 .5c.6.4 1.3.6 2 .8 1.4.3 3 .4 4.5.4s3-.2 4.7-.4a134.7 134.7 0 0018.8-4l4.5-1.6c3-1.1 5.8-2.4 8.4-4a21 21 0 006.5-5.7c.3-.2.4-.5.6-.8l.5-.9.3-.9.2-.4v-.5c.4-1.2.5-2.6.3-4 0-1.5-.3-3-.6-4.5l-1.3-4.5a75.9 75.9 0 00-14.4-24.4 34.6 34.6 0 00-7-6c-1.2-.8-2.4-1.4-3.7-1.7-1.4-.4-2.8-.4-4.2-.2a31 31 0 00-8.7 3c-3 1.4-6 3-9.6 3.6-1.7.2-3.6.2-5.4-.3a13 13 0 01-4.7-2.5l1.5-.3c-1.6 2.7-3 5.5-4.3 8.4a40.7 40.7 0 00-2.7 8.9c-.3 1.5-.4 3-.2 4.5 0 1.5.5 2.9 1.2 4a7.7 7.7 0 003 3c1.3.6 2.7 1 4.2 1.2.6.1 1 .6 1 1.1a241.3 241.3 0 01-3 21.1l-3.6 21-.7-1.2a50 50 0 0014.5 2.8 110.1 110.1 0 0029.5-3c4.7-1.3 9.5-2.8 13.8-4.8l-1 2.3a109 109 0 00-3.5-14 1 1 0 01.6-1.4c.5-.1 1 0 1.3.5a57.2 57.2 0 013 7c1 2.2 1.7 4.6 2.5 7 .3 1-.2 1.9-1 2.3h-.1A80.8 80.8 0 01216 125a113.9 113.9 0 01-30.5 2.1c-5.1-.5-10.2-1.5-15-3.5a1 1 0 01-.7-1.1 1248.7 1248.7 0 005.2-31.4c.5-3.5 1-7 1.3-10.5l1 1.2c-1.7-.3-3.4-.7-5-1.5-1.5-.9-2.9-2.1-3.8-3.6-1-1.6-1.4-3.3-1.5-5-.2-1.7 0-3.4.2-5a67 67 0 017.3-18 1 1 0 011.4-.4h.1c1.3.9 2.6 1.5 4 1.8 1.5.2 3 .2 4.4-.2 2.9-.7 5.7-2.3 8.6-3.8 2.9-1.6 6-3.2 9.6-3.9a15.6 15.6 0 0110.9 2 39 39 0 018 6.7 69 69 0 0111.8 16.5 66.3 66.3 0 015.7 14.4c.4 1.7.7 3.5.8 5.3a19 19 0 01-.4 5.7l-.1.7-.3.8-.5 1.4-.7 1.3-.8 1.2a26.3 26.3 0 01-8.3 7 40.4 40.4 0 01-9.4 4.3 77 77 0 01-19.7 4 86.2 86.2 0 01-10.1.4c-1.8-.1-3.5-.5-5.2-1a12 12 0 01-3.6-2.2l-.5-.5a3 3 0 01-.4-.5l-.1-.3a1 1 0 01.4-1.4 1 1 0 011.4.5z"/><path fill="#272838" d="M184.3 115.2a8 8 0 005 2l2.7-.1 1.3-.4 1.4-.4.1-.1c1-.3 2 .2 2.4 1.2a1.9 1.9 0 01-1.4 2.5l-1.7.3-1.7.2c-1.2 0-2.4 0-3.6-.3a11.9 11.9 0 01-4.8-2.3c-.5-.4-.9-.7-1.3-1.3a1 1 0 011.5-1.4h.1zm1.7-40.8c1.6 1.4 3.5 2.3 5.4 2.6 2 .3 3.9.1 5.6-.6a15 15 0 005-3.3l2-2.3c.8-.7 1.6-1.5 3-2h.1a1.2 1.2 0 011.7 1.1 6 6 0 01-1 3.8c-.3.6-.7 1-1.2 1.6-.4.4-.8 1-1.3 1.3a17.4 17.4 0 01-6.8 4 13 13 0 01-8 0c-2.6-1-4.8-2.7-6.1-4.9a1 1 0 01.3-1.4 1 1 0 011.2 0zm-42.8 72c2-.3 3.9-.9 5.6-1.6 1.8-.8 3.4-1.9 4.5-3.3a7.1 7.1 0 001.6-4.7 14 14 0 00-1.3-5.2v-.2c-.2-.5-.2-1 0-1.3l17.2-40.8a1 1 0 012 .8l-15.5 41.5V130c.8 2.1 1.2 4.4 1.1 6.8a10.4 10.4 0 01-2.8 6.6 14.6 14.6 0 01-5.8 3.7 24 24 0 01-6.5 1.2 1 1 0 01-.2-2h.1zm3.3-12.5c-1.6-.3-3 0-4.1 1a8 8 0 00-1.6 2l-.6 1.3-.4.6-.2.6a75 75 0 00-1.9 11.7 1 1 0 01-2 0v-6.2c.2-2.1.4-4.2 1-6.4l.2-.9.3-.7.7-1.6c.5-1 1.1-2 2-3a8.2 8.2 0 017.1-2.3 2 2 0 11-.5 4z"/><path fill="#F5785C" d="M145.7 170.3h-.3a1 1 0 01-.7-1.4s.8-2.6-.7-5.7a1 1 0 01.5-1.4 1 1 0 011.4.5c1.9 4 .9 7.1.8 7.3a1 1 0 01-1 .7zm-14 5a1 1 0 01-.9-1.6l3.4-5a1 1 0 011.4-.3c.5.3.6 1 .3 1.4l-3.4 5a1 1 0 01-.8.5zm11.6 8a1 1 0 01-.8-.3l-2.7-3a1 1 0 111.5-1.4l2.7 3a1 1 0 01-.7 1.7zm-19.3 12a1 1 0 01-.4-2l7.7-2.8a1 1 0 01.7 2l-7.7 2.8a1 1 0 01-.3 0zm17 13.4a1 1 0 01-.8-.4l-3-4.1a1 1 0 01.1-1.5 1 1 0 011.5.2l3.1 4.2a1 1 0 01-.2 1.4 1 1 0 01-.6.2zm3.2-12a1 1 0 01-.5-.2l-3.7-2a1 1 0 01-.4-1.4 1 1 0 011.4-.4l3.7 2c.5.3.7 1 .4 1.4a1 1 0 01-.9.6zm-12.5 13.8a1 1 0 01-.7-.3l-3.9-3.4a1 1 0 111.4-1.6l3.9 3.5c.4.3.4 1 0 1.4a1 1 0 01-.7.4zM126 221a1 1 0 01-.6-2l6.3-4.2a1 1 0 011.2 1.7l-6.3 4.3a1 1 0 01-.6.2zm27.1-5.4a1 1 0 01-.8-.5L149 210a1 1 0 01.3-1.5 1 1 0 011.5.4l3.1 5.2a1 1 0 01-.3 1.5 1 1 0 01-.6.1zm-24-29.4a1 1 0 01-1-1.2V180c0-.6.5-1 1-1 .6-.1 1.1.4 1.1 1v5.3c0 .6-.5 1-1 1zm22.5 10a1 1 0 01-1-1v-5.4a1 1 0 112 0v5.3c0 .6-.5 1-1 1zm-14.5 30a1 1 0 01-.8-1.7l3.4-4.5a1 1 0 011.4-.2c.5.4.6 1 .2 1.5l-3.4 4.4a1 1 0 01-.8.4z"/><path fill="#272838" d="M251.7 226.7a78.8 78.8 0 00-3.6-26.3 49.3 49.3 0 00-9.5-16.5c-1.4-1.5-3-2.9-4.6-4l-.2-.3a3.3 3.3 0 01-1.1-2.6 260.3 260.3 0 00-1.1-42 144 144 0 00-2.3-13.8c-.1-.7.3-1.4 1-1.5.6-.1 1.2.2 1.4.8a215.4 215.4 0 015.8 28c1.2 9.5 2 19 2.2 28.6l-1.4-2.8a42.5 42.5 0 019.2 11.4c2.3 4.3 4 8.8 5 13.4a76.3 76.3 0 011.5 27.8c0 .7-.6 1.2-1.3 1-.6 0-1-.6-1-1.2z"/><path fill="#272838" fill-rule="evenodd" d="M221.3 121.4c.5 0 1 .3 1 .7l8.3 43.3a.9.9 0 11-1.7.3l-8.3-43.2c0-.5.2-1 .7-1z" clip-rule="evenodd"/><path fill="#272838" d="M235.1 227.1c-.4 0-.8-.2-1-.6-2.7-5-6-14.4-9.3-23.6a254 254 0 00-6.9-18.2 115.3 115.3 0 01-27-57.5c0-.7.4-1.3 1-1.4.7 0 1.3.4 1.4 1a113 113 0 0026.6 56.7 249 249 0 017 18.6c3.3 9 6.6 18.4 9.2 23.2.4.6.2 1.3-.4 1.6a1 1 0 01-.6.2z"/><path fill="#272838" d="M235 224l1.8-.2 1.7-.4a41 41 0 003.4-1l3.4-1.3 1.7-.6 2-.4h.2a1.4 1.4 0 011.3 2.2 8.4 8.4 0 01-3 3.1l-2 1-2.2.7a16.2 16.2 0 01-6.6.2c-.8-.1-1.4-.3-2.3-.7a1.3 1.3 0 01.3-2.5h.4zm-53.8-7.4a1 1 0 01-1-.8 386 386 0 01-6.5-41.9c-1.6-8-4-20 1.2-45.6a1 1 0 011.2-.7c.5 0 .9.6.8 1-5.1 25.3-2.8 37.1-1.3 45 .5 2.5.9 4.5 1 6.5 0 7.5 5.6 35.1 5.6 35.4a1 1 0 01-1 1.1zm21.9-55.4c-2 5.5-4.2 10.8-6.2 16a116.4 116.4 0 00-2.6 7.7c0 .6-.2 1.2-.1 1.5v.5l.2.2c.3.7 1.3 1.9 2.2 3.1a20.7 20.7 0 014 14 63.4 63.4 0 01-6.2 21.5 1 1 0 01-1.3.4 1 1 0 01-.5-1v-.1c1.2-5.7 2.4-11.2 2.8-16.7.1-2.8.1-5.5-.4-8a15.6 15.6 0 00-3-6.5l-1.3-1.7a15.4 15.4 0 01-1.9-3 6.2 6.2 0 01-.4-1.7v-1c0-1 .1-2 .3-2.8.4-1.6 1-3 1.5-4.5a60.8 60.8 0 016.2-11.7c1.5-2.5 3.1-4.9 5-7.2a1 1 0 011.4-.1c.3.3.4.7.3 1.1z"/><path fill="#CED7E2" d="M671.8 341.4s-2 2.3 1.3 3c1-2.2-.2-3-1.3-3z" opacity=".1"/><path fill="#CED7E2" d="M652.9 286.3s-2.4 2.8 1.7 3.6c1-2.6-.3-3.6-1.7-3.6zm16.2-39s-2.5 2.8 1.7 3.7c1.1-2.7-.3-3.7-1.7-3.8z"/><path fill="#CED7E2" d="M705.9 269.4s-2 2.3 1.4 3c.9-2.2-.2-3-1.4-3z" opacity=".4"/><path fill="#CED7E2" d="M675.6 331s-2 2.3 1.4 3c.9-2.2-.2-3-1.4-3z" opacity=".1"/><path fill="#CED7E2" d="M626.7 307.6s-2.4 2.7 1.6 3.5c1.1-2.5-.2-3.5-1.6-3.5z"/><path fill="#CED7E2" d="M667.3 284.6s-2.5 3 1.8 3.8c1.1-2.8-.3-3.8-1.8-3.8z" opacity=".9"/><path fill="#CED7E2" d="M668.8 327.3s-2 2.3 1.3 3c.9-2.2-.2-3-1.3-3z" opacity=".2"/><path fill="#CED7E2" d="M658.8 279.7s-3.1 3.6 2.2 4.7c1.4-3.4-.4-4.7-2.2-4.7z"/><path fill="#CED7E2" d="M683.6 293s-2 2.3 1.4 3c.9-2.1-.2-3-1.4-3zM676.4 318.7s-2 2.3 1.3 3c.9-2.2-.2-3-1.3-3z" opacity=".1"/><path fill="#CED7E2" d="M686.7 274.2s-2.3 2.7 1.6 3.5c1-2.5-.3-3.5-1.6-3.5z"/><path fill="#CED7E2" d="M686.9 320.3s-2 2.3 1.4 3c.8-2.2-.3-3-1.4-3z" opacity=".1"/><path fill="#CED7E2" d="M650 273.6s-3.1 3.5 2 4.6c1.5-3.3-.2-4.6-2-4.6zm-13.9-.3s-2 2.4 1.4 3.1c1-2.2-.2-3-1.4-3.1zm4.1 15.8s-2 2.4 1.5 3c.9-2.1-.2-3-1.5-3z"/><path fill="#CED7E2" d="M679.7 310.6s-2 2.2 1.4 3c.8-2.2-.2-3-1.4-3z" opacity=".1"/><path fill="#CED7E2" d="M635 282.6s-2 2.3 1.4 3c.9-2.2-.2-3-1.4-3zm2.5 24.5s-2.6 3 1.8 3.9c1.1-2.9-.3-3.9-1.8-4zm8.4 4.2s-2.4 2.9 1.7 3.7c1-2.6-.3-3.6-1.7-3.7zm0-20.1s-2.1 2.4 1.4 3.1c1-2.2-.2-3-1.5-3.1z"/><path fill="#CED7E2" d="M637.6 317.9s-2.8 3.2 1.9 4.1c1.2-3-.3-4-2-4.1z" opacity=".9"/><path fill="#CED7E2" d="M671 298.4s-2 2.3 1.3 3c.8-2.2-.2-3-1.4-3z" opacity=".3"/><path fill="#CED7E2" d="M679 289s-2 2.3 1.3 3c.9-2.1-.2-3-1.4-3z" opacity=".2"/><path fill="#CED7E2" d="M661.3 302s-2 2.2 1.4 2.9c.9-2.1-.2-3-1.4-3z"/><path fill="#CED7E2" d="M683.7 282.4s-2 2.3 1.4 3c.9-2.2-.2-3-1.4-3z" opacity=".7"/><path fill="#CED7E2" d="M659.4 294.5s-2 2.4 1.4 3c1-2.2-.2-3-1.4-3z"/><path fill="#CED7E2" d="M670.6 291.4s-2 2.3 1.4 3c1-2.2-.2-3-1.4-3z" opacity=".5"/><path fill="#CED7E2" d="M659.5 314s-1.9 2.2 1.4 2.9c.9-2.1-.2-3-1.4-3z" opacity=".8"/><path fill="#CED7E2" d="M649.9 295.4s-2 2.3 1.4 3c.9-2.2-.2-3-1.4-3zm14.9-38.7s-3.8 4.4 2.6 5.7c1.7-4.1-.4-5.7-2.6-5.7zm-20.3 25.8s-2.2 2.7 1.7 3.5c1-2.6-.3-3.5-1.7-3.5zm8.8-27.4s-2.5 3 1.8 3.9c1.2-2.8-.3-3.8-1.8-3.9zm.1 5.8s-3.1 3.7 2.3 4.8c1.4-3.4-.4-4.7-2.3-4.8zm-13.2 6.8s-2.1 2.5 1.6 3.3c1-2.4-.3-3.3-1.6-3.3zm2.6-9.7s-2 2.3 1.4 3c1-2.2-.2-3-1.4-3z"/><path fill="#CED7E2" d="M689.3 294.2s-2 2.3 1.4 3c.9-2.2-.2-3-1.4-3z" opacity=".1"/><path fill="#CED7E2" d="M693.8 278.3s-2 2.3 1.4 3c.9-2.2-.2-3-1.4-3z" opacity=".6"/><path fill="#CED7E2" d="M698.3 293.8s-2 2.3 1.4 3c.9-2.2-.2-3-1.4-3z" opacity=".1"/><path fill="#CED7E2" d="M683.1 266.5s-3 3.6 2.1 4.6c1.4-3.3-.3-4.5-2.1-4.6zm-3.2-17s-2.8 3.3 2 4.3c1.3-3-.3-4.2-2-4.3zm-12.8 26.9s-3.5 4.1 2.6 5.4c1.6-4-.4-5.4-2.6-5.4zm-8-22.7s-2.9 3.4 2.1 4.4c1.3-3.2-.3-4.3-2-4.4zm4 14.9s-4.7 5.4 3.3 7c2-5-.5-7-3.3-7zm-2.9 19.9s-2.3 2.7 1.7 3.5c1-2.5-.3-3.5-1.7-3.5zM644.6 303s-2.3 2.6 1.5 3.3c1-2.4-.2-3.3-1.5-3.3z"/><path fill="#CED7E2" d="M633.4 348s-2 2.2 1.4 2.9c.9-2.1-.2-3-1.4-3zM668.3 321s-2 2.3 1.4 3c.9-2.2-.2-3-1.4-3z" opacity=".2"/><path fill="#CED7E2" d="M640.7 295.2s-2 2.4 1.5 3c1-2.2-.2-3-1.5-3zm-13-5.6s-2 2.3 1.3 3c.9-2.2-.2-3-1.3-3zM630 276s-2 2.3 1.3 3c1-2.2-.2-3-1.3-3zm1.2 39s-2.6 3 2 4c1.1-3-.4-4-2-4zm4-26.4s-2 2.2 1.4 3c.8-2.2-.3-3-1.4-3zm16.7 24.7s-2.1 2.6 1.6 3.3c1-2.4-.3-3.2-1.6-3.3z"/><path fill="#CED7E2" d="M663.1 327.1s-2 2.3 1.4 3c.8-2.2-.2-3-1.4-3z" opacity=".3"/><path fill="#CED7E2" d="M680.2 275.1s-2.8 3.2 1.9 4.1c1.2-3-.3-4-2-4z"/><path fill="#CED7E2" d="M665.9 310.6s-2 2.3 1.4 3c.8-2.2-.2-3-1.4-3z" opacity=".5"/><path fill="#CED7E2" d="M674.6 269.7s-3.7 4.4 2.6 5.6c1.7-4-.4-5.5-2.6-5.6z"/><path fill="#CED7E2" d="M678 302.5s-1.9 2.3 1.4 3c.9-2.2-.2-3-1.4-3z" opacity=".1"/><path fill="#CED7E2" d="M676.6 283.1s-2.2 2.5 1.5 3.3c1-2.4-.2-3.3-1.5-3.3z" opacity=".6"/><path fill="#CED7E2" d="M692.2 283.8s-2 2.3 1.4 3c.9-2.2-.2-3-1.4-3z" opacity=".4"/><path fill="#CED7E2" d="M705.2 248.8s-2.9 3.3 2 4.3c1.3-3.1-.3-4.3-2-4.3z"/><path fill="#CED7E2" d="M712.4 271.3s-2 2.3 1.3 3c.9-2.2-.2-3-1.3-3z" opacity=".3"/><path fill="#CED7E2" d="M707.6 261.1s-2.3 2.7 1.6 3.5c1-2.5-.2-3.4-1.6-3.5z" opacity=".5"/><path fill="#CED7E2" d="M701.5 256.3s-2.6 3 1.8 3.9c1.2-2.8-.3-3.9-1.8-4z" opacity=".8"/><path fill="#CED7E2" d="M697 245.2s-2.6 3 1.8 3.9c1.1-2.8-.3-3.8-1.8-3.9zm-4 15.5s-2.7 3 1.8 4c1.1-3-.3-4-1.9-4zm-9.2-20.5s-2.1 2.5 1.5 3.3c1-2.4-.2-3.3-1.5-3.3zm1.6 4.7s-2.4 2.8 1.8 3.7c1-2.7-.3-3.6-1.8-3.7zm-6.9-2.4s-2.2 2.5 1.6 3.3c1-2.4-.3-3.3-1.6-3.3z"/><path fill="#CED7E2" d="M701 265.1s-2.1 2.6 1.7 3.4c1-2.5-.3-3.3-1.6-3.4z" opacity=".4"/><path fill="#CED7E2" d="M716.3 276s-2 2.4 1.4 3c.9-2.1-.2-2.9-1.4-3z" opacity=".2"/><path fill="#CED7E2" d="M668 303.2s-1.9 2.3 1.4 3c.9-2.2-.2-3-1.4-3z" opacity=".6"/><path fill="#CED7E2" d="M699.5 282.1s-2 2.3 1.4 3c.9-2.2-.2-3-1.4-3z" opacity=".3"/><path fill="#CED7E2" d="M678.8 343s-2 2.3 1.4 3c.9-2.1-.2-3-1.4-3zM675.3 353.4s-2 2.2 1.3 3c1-2.2-.2-3-1.3-3z" opacity=".1"/><path fill="#CED7E2" d="M628 333s-2.1 2.4 1.4 3c.9-2.2-.3-3-1.5-3z" opacity=".2"/><path fill="#CED7E2" d="M624.9 328.6s-2 2.4 1.5 3.2c1-2.4-.3-3.2-1.5-3.2z" opacity=".4"/><path fill="#CED7E2" d="M625.7 349.8s-2 2.3 1.3 3c1-2.2-.2-3-1.3-3z" opacity=".3"/><path fill="#CED7E2" d="M642.5 337.5s-2 2.3 1.4 3c1-2.2-.2-3-1.4-3zM655.1 356s-2 2.3 1.4 3c.9-2.1-.2-2.9-1.4-3z" opacity=".2"/><path fill="#CED7E2" d="M647.4 352.5s-2 2.3 1.4 3c.8-2.1-.3-3-1.4-3zM649 337.7s-2 2.3 1.3 3c1-2.2-.2-3-1.3-3zM651 346.5s-1.9 2.2 1.4 3c.9-2.2-.2-3-1.4-3z" opacity=".3"/><path fill="#CED7E2" d="M637.1 335.7s-2 2.4 1.5 3.1c.9-2.2-.2-3-1.5-3z" opacity=".1"/><path fill="#CED7E2" d="M641.5 331.9s-2.1 2.5 1.5 3.2c1-2.3-.2-3.2-1.5-3.2z" opacity=".2"/><path fill="#CED7E2" d="M645.5 345s-2 2.2 1.4 2.9c.9-2.2-.2-3-1.4-3zM637.7 326.9s-2.4 2.7 1.7 3.5c1-2.5-.3-3.5-1.7-3.5z" opacity=".3"/><path fill="#CED7E2" d="M658.2 343.3s-2 2.3 1.4 3c.9-2.2-.2-3-1.4-3z" opacity=".2"/><path fill="#CED7E2" d="M648.6 323.2s-2.3 2.6 1.5 3.4c1-2.5-.2-3.4-1.5-3.4z" opacity=".5"/><path fill="#CED7E2" d="M652.3 333.2s-2 2.3 1.4 3c1-2.2-.2-3-1.4-3zM657.2 338s-1.9 2.3 1.4 3c.9-2.1-.2-2.9-1.4-3zM654.6 327.8s-2 2.3 1.4 3c1-2.1-.2-3-1.4-3z" opacity=".3"/><path fill="#CED7E2" d="M682.4 329.7s-2 2.3 1.4 3c.9-2.2-.2-3-1.4-3zM701 316.9s-2 2.2 1.3 2.9c.9-2.1-.2-3-1.4-3zM694.4 324.5s-1.9 2.2 1.4 2.9c.9-2.1-.2-2.9-1.4-3zM711 287.4s-2 2.3 1.3 3c.8-2.2-.2-3-1.4-3zM716.7 283.8s-2 2.3 1.4 3c.8-2.2-.3-3-1.4-3z" opacity=".1"/><path fill="#CED7E2" d="M719.5 269.4s-2 2.3 1.3 3c.9-2.2-.2-3-1.3-3zM744.5 277.1s-2.1 2.5 1.5 3.3c1-2.4-.2-3.2-1.5-3.3z" opacity=".2"/><path fill="#CED7E2" d="M741.5 287.6s-2 2.3 1.4 3c.9-2.2-.2-3-1.4-3z" opacity=".1"/><path fill="#CED7E2" d="M735.9 268.9s-2 2.2 1.4 3c.8-2.2-.3-3-1.4-3z" opacity=".2"/><path fill="#CED7E2" d="M736.4 284s-1.9 2.3 1.4 3c.9-2.1-.2-2.9-1.4-3z" opacity=".1"/><path fill="#CED7E2" d="M739.3 262.4s-2.4 2.8 1.8 3.7c1-2.7-.3-3.7-1.8-3.7z" opacity=".5"/><path fill="#CED7E2" d="M740.9 256.4s-2.8 3.4 2 4.3c1.3-3-.3-4.2-2-4.3z" opacity=".4"/><path fill="#CED7E2" d="M732.3 254.6s-2.4 2.7 1.6 3.5c1-2.6-.2-3.5-1.6-3.5z" opacity=".3"/><path fill="#CED7E2" d="M730 264.5s-1.9 2.3 1.4 3c.9-2.2-.2-3-1.3-3z" opacity=".2"/><path fill="#CED7E2" d="M734 274.2s-2 2.3 1.3 3c1-2.2-.2-3-1.3-3z" opacity=".1"/><path fill="#CED7E2" d="M726.5 257.2s-2.2 2.6 1.6 3.3c1-2.4-.3-3.3-1.6-3.3z" opacity=".2"/><path fill="#CED7E2" d="M583.4 253.7s2.2-2.5-1.5-3.2c-1 2.4.2 3.2 1.5 3.2zM569 289s2.2-2.6-1.5-3.3c-1 2.4.2 3.3 1.5 3.3z"/><path fill="#CED7E2" d="M536 269s1.7-2-1.3-2.7c-.8 2 .2 2.6 1.2 2.7z" opacity=".4"/><path fill="#CED7E2" d="M570.5 255.3s2.3-2.7-1.6-3.5c-1 2.5.3 3.4 1.6 3.5z" opacity=".9"/><path fill="#CED7E2" d="M578.1 259.7s2.8-3.3-2-4.3c-1.2 3.1.4 4.3 2 4.3z"/><path fill="#CED7E2" d="M555.9 247.7s1.7-2-1.3-2.7c-.7 2 .2 2.6 1.3 2.7z" opacity=".1"/><path fill="#CED7E2" d="M553.1 264.6s2.1-2.4-1.4-3.1c-1 2.2.2 3 1.4 3.1zm33 .6s2.7-3.2-2-4.2c-1.2 3 .3 4.1 2 4.2zm12.4.2s1.8-2.1-1.3-2.8c-.9 2 .2 2.8 1.3 2.8zm-3.8-14.2s1.9-2.1-1.2-2.8c-.8 2 .2 2.8 1.2 2.8zm4.8 5.9s1.8-2.1-1.3-2.8c-.8 2 .2 2.7 1.3 2.8zm-9.8-7.8s1.9-2.2-1.3-2.8c-.8 2 .2 2.8 1.3 2.8z"/><path fill="#CED7E2" d="M560 251.3s1.8-2-1.1-2.7c-.8 2 .1 2.6 1.2 2.7z" opacity=".2"/><path fill="#CED7E2" d="M555.8 257.2s1.8-2-1.2-2.7c-.8 2 .2 2.7 1.2 2.7z" opacity=".7"/><path fill="#CED7E2" d="M577.6 246.4s1.8-2.2-1.3-2.8c-.8 2 .2 2.7 1.3 2.8z"/><path fill="#CED7E2" d="M567.5 249.1s1.8-2-1.2-2.6c-.8 1.9.2 2.6 1.2 2.6z" opacity=".5"/><path fill="#CED7E2" d="M586.1 245.6s1.8-2.1-1.3-2.8c-.8 2 .3 2.7 1.3 2.8zm-13.3 34.8s3.4-4-2.4-5.2c-1.5 3.8.4 5.2 2.4 5.2zm18-23.3s2.1-2.3-1.3-3c-1 2.2.2 3 1.4 3zm-7.8 24.7s2.3-2.7-1.6-3.5c-1 2.5.3 3.4 1.6 3.5zm0-5.2s2.8-3.4-2-4.3c-1.4 3 .2 4.2 2 4.3zm11.7-6.1s2-2.3-1.3-3c-.9 2.2.2 3 1.3 3zm-2.2 8.7s1.8-2.1-1.3-2.7c-.8 2 .2 2.7 1.3 2.7z"/><path fill="#CED7E2" d="M550.8 246.6s1.7-2-1.3-2.6c-.8 1.9.2 2.6 1.3 2.6z" opacity=".1"/><path fill="#CED7E2" d="M546.8 261s1.8-2.2-1.3-2.8c-.8 2 .2 2.7 1.3 2.7z" opacity=".6"/><path fill="#CED7E2" d="M542.7 247s1.7-2-1.2-2.7c-.8 2 .2 2.6 1.2 2.7z" opacity=".1"/><path fill="#CED7E2" d="M556.3 271.6s2.8-3.3-1.9-4.2c-1.2 3 .3 4.1 2 4.2zm2.9 15.2s2.5-3-1.8-3.8c-1.1 2.8.3 3.8 1.8 3.8zm11.4-24.1s3.3-3.8-2.2-4.9c-1.5 3.5.3 4.8 2.2 4.9zm7.2 20.4s2.6-3-1.9-4c-1.1 2.9.3 4 1.9 4zm-3.5-13.4s4.2-5-3-6.4c-1.9 4.6.5 6.3 3 6.4zm2.5-18s2.1-2.4-1.4-3.1c-1 2.3.2 3.1 1.4 3.1zm17.5-6s1.8-2.1-1.3-2.8c-.8 2 .2 2.8 1.3 2.8zm11.7 5s1.8-2-1.2-2.6c-.8 2 .2 2.6 1.2 2.7zm-2 12.3s1.7-2-1.3-2.7c-.8 2 .2 2.7 1.2 2.7zm-4.7-11.3s1.7-2-1.3-2.7c-.7 2 .2 2.7 1.3 2.7zM559 263.8s2.4-2.9-1.8-3.7c-1 2.7.3 3.7 1.8 3.7zm5 4.8s3.3-3.9-2.4-5c-1.5 3.6.4 5 2.3 5z"/><path fill="#CED7E2" d="M562.2 256.6s2-2.3-1.4-3c-.9 2.2.2 3 1.4 3z" opacity=".6"/><path fill="#CED7E2" d="M548.2 256s1.7-2-1.3-2.7c-.8 2 .2 2.7 1.3 2.7z" opacity=".4"/><path fill="#CED7E2" d="M536.6 287.5s2.5-3-1.8-3.9c-1.2 2.9.3 3.9 1.8 4z"/><path fill="#CED7E2" d="M530.1 267.2s1.8-2-1.2-2.6c-.8 1.9.2 2.6 1.2 2.6z" opacity=".3"/><path fill="#CED7E2" d="M534.4 276.4s2-2.4-1.5-3.1c-.9 2.2.3 3 1.5 3.1z" opacity=".5"/><path fill="#CED7E2" d="M539.9 280.8s2.3-2.8-1.7-3.6c-1 2.6.3 3.5 1.7 3.6z" opacity=".8"/><path fill="#CED7E2" d="M543.9 290.7s2.3-2.7-1.6-3.5c-1 2.5.3 3.5 1.6 3.5zm3.6-14s2.4-2.7-1.6-3.5c-1 2.6.3 3.5 1.6 3.6zm8.2 18.5s2-2.2-1.4-3c-.8 2.2.3 3 1.4 3zm-1.5-4.2s2.2-2.5-1.5-3.3c-1 2.4.3 3.3 1.5 3.3zm6.3 2.2s2-2.3-1.4-3c-.9 2.2.2 3 1.4 3z"/><path fill="#CED7E2" d="M540.2 272.8s2-2.3-1.4-3c-.9 2.2.2 3 1.4 3z" opacity=".4"/><path fill="#CED7E2" d="M526.6 263s1.7-2.1-1.3-2.7c-.7 1.9.2 2.6 1.3 2.6z" opacity=".2"/><path fill="#CED7E2" d="M541.6 257.5s1.8-2-1.2-2.6c-.8 1.9.2 2.6 1.2 2.6z" opacity=".3"/><path fill="#CED7E2" d="M531.4 252.7s1.8-2-1.2-2.6c-.8 1.9.2 2.6 1.2 2.6zM526.3 256s1.7-2-1.3-2.7c-.8 2 .2 2.6 1.3 2.7z" opacity=".1"/><path fill="#CED7E2" d="M523.8 269s1.7-2.1-1.3-2.7c-.7 2 .2 2.6 1.3 2.6zM501.3 262s2-2.3-1.3-3c-.9 2.2.2 3 1.3 3z" opacity=".2"/><path fill="#CED7E2" d="M504 252.6s1.7-2-1.2-2.7c-.8 2 .1 2.6 1.2 2.7z" opacity=".1"/><path fill="#CED7E2" d="M509 269.4s1.8-2-1.2-2.6c-.8 1.9.2 2.6 1.2 2.6z" opacity=".2"/><path fill="#CED7E2" d="M508.5 255.7s1.8-2-1.2-2.6c-.8 1.9.2 2.6 1.2 2.6z" opacity=".1"/><path fill="#CED7E2" d="M506 275.3s2.1-2.6-1.6-3.4c-1 2.4.3 3.3 1.6 3.4z" opacity=".5"/><path fill="#CED7E2" d="M504.6 280.6s2.5-3-1.8-3.9c-1.2 2.8.2 3.9 1.8 4z" opacity=".4"/><path fill="#CED7E2" d="M512.3 282.3s2.1-2.5-1.5-3.2c-1 2.3.2 3.2 1.5 3.2z" opacity=".3"/><path fill="#CED7E2" d="M514.3 273.3s1.7-2-1.2-2.6c-.8 1.9.1 2.6 1.2 2.6z" opacity=".2"/><path fill="#CED7E2" d="M510.8 264.6s1.7-2-1.3-2.6c-.7 1.9.2 2.6 1.3 2.6z" opacity=".1"/><path fill="#CED7E2" d="M517.5 280s2-2.4-1.4-3c-1 2.1.2 3 1.4 3z" opacity=".2"/><path fill="#AFDDCC" d="M627 247.5c3-3.7-2.7-13.1-12.6-21.2-10-8-20.3-11.7-23.3-8-3 3.6 2.7 13.1 12.6 21.2 10 8 20.4 11.6 23.3 8z"/><path fill="#8BC1B9" d="M600.4 225.6l26.1 15.9a3.9 3.9 0 011.3 5.3 3.8 3.8 0 01-6 .7l-21.4-21.9z"/><path fill="#AFDDCC" d="M649.4 230c4.6-.2 8.1-10.7 7.7-23.5-.3-12.8-4.4-23-9-22.9-4.7.1-8.2 10.6-7.9 23.4.4 12.8 4.5 23 9.2 23z"/><path fill="#8BC1B9" d="M648.6 195.5l5 30.2c.4 2-1 4-3.1 4.4a3.9 3.9 0 01-4.5-4.1l2.6-30.5z"/><path fill="#AFDDCC" d="M685.5 220.6c10.4-7.4 16.6-16.6 13.9-20.4-2.7-3.8-13.3-.8-23.7 6.6-10.4 7.5-16.6 16.6-13.9 20.4 2.8 3.9 13.4.9 23.7-6.6z"/><path fill="#8BC1B9" d="M689.9 207.3l-22.2 21a3.8 3.8 0 01-5.4 0 3.9 3.9 0 011-6l26.6-15z"/><path fill="#AFDDCC" d="M718.8 250.6c4.7-.1 8.1-10.6 7.7-23.4-.5-12.8-4.6-23-9.3-22.9-4.6.2-8 10.7-7.6 23.5.4 12.8 4.6 23 9.2 22.8z"/><path fill="#8BC1B9" d="M717.9 216.2l5.2 30.1a3.9 3.9 0 11-7.7.4l2.5-30.5z"/><path fill="#AFDDCC" d="M830.8 246c.9 3.6 9.5 4.5 19.2 2.1s17-7.2 16-10.8c-.9-3.6-9.5-4.5-19.2-2.1s-16.9 7.2-16 10.8z"/><path fill="#8BC1B9" d="M839.8 243.6l22.3-8.9a3 3 0 111.5 5.9l-23.8 3z"/><path fill="#AFDDCC" d="M895.8 225.8c5.6-8.3 7.7-16.7 4.7-18.8-3-2-10 3-15.7 11.4-5.6 8.3-7.7 16.7-4.7 18.8 3 2 10-3 15.7-11.4z"/><path fill="#8BC1B9" d="M895.4 214.9l-10.6 21.5a3 3 0 11-5-3.3l15.6-18.2z"/><path fill="#AFDDCC" d="M961.4 236.4c5.6-8.3 7.7-16.8 4.7-18.8s-10 3-15.7 11.3c-5.6 8.3-7.7 16.8-4.7 18.8s10-3 15.7-11.3z"/><path fill="#8BC1B9" d="M961 225.4L950.4 247a3 3 0 11-5-3.3l15.6-18.3z"/><path fill="#AFDDCC" d="M940.5 248.5c2.6-2.7-1.1-10.5-8.3-17.5-7.1-7-15-10.7-17.5-8-2.6 2.6 1 10.4 8.2 17.5 7.2 7 15 10.6 17.6 8z"/><path fill="#8BC1B9" d="M921.4 229.4l19.2 14.3a3 3 0 01.6 4.3 3 3 0 01-4.8 0l-15-18.6z"/><path fill="#AFDDCC" d="M1003 228.9c2-2-.9-7.9-6.2-13.2-5.4-5.3-11.3-8-13.3-6-1.9 2 .9 7.9 6.3 13.2 5.3 5.3 11.3 8 13.2 6z"/><path fill="#8BC1B9" d="M988.6 214.5l14.4 10.8c1 .8 1.3 2.2.5 3.2a2.3 2.3 0 01-3.6 0l-11.3-14z"/><path fill="#AFDDCC" d="M1034.6 245.4c1.2-2.5-3.3-7.2-10-10.5-6.8-3.4-13.2-4-14.5-1.5-1.2 2.4 3.3 7.2 10 10.5 6.9 3.3 13.3 4 14.5 1.5z"/><path fill="#8BC1B9" d="M1028.3 242.4l-17-5.6a2.3 2.3 0 01-1.5-3 2.3 2.3 0 013.3-1.1l15.2 9.7z"/><path fill="#AFDDCC" d="M1034.1 222.7c3.8-6.5 4.9-13 2.5-14.3-2.4-1.4-7.4 2.8-11.1 9.4-3.8 6.5-4.9 13-2.5 14.3 2.4 1.4 7.4-2.8 11.1-9.4z"/><path fill="#8BC1B9" d="M1033.2 214.5l-6.7 16.8a2.3 2.3 0 11-4-2.2l10.7-14.6z"/><path fill="#AFDDCC" d="M1143.2 233.9c3.8-6.6 4.8-13 2.5-14.4-2.4-1.4-7.4 2.8-11.1 9.4-3.8 6.5-4.9 13-2.5 14.3 2.4 1.4 7.4-2.8 11.1-9.3z"/><path fill="#8BC1B9" d="M1142.3 225.6l-6.7 16.8a2.3 2.3 0 11-4-2.2l10.7-14.6z"/><path fill="#AFDDCC" d="M1165.5 243c3.4 1.5 9.4-4.8 13.3-14 4-9.3 4.4-18 1-19.4-3.4-1.4-9.3 4.9-13.2 14.1-4 9.3-4.4 18-1 19.3z"/><path fill="#8BC1B9" d="M1176.3 218.2l-6.3 23.2a3 3 0 11-5.5-2.3l11.8-20.9z"/><path fill="#AFDDCC" d="M1222.2 234.8c1-2.6-3.8-7.2-10.9-10.1-7-3-13.7-3.3-14.8-.7-1 2.6 3.8 7 10.9 10 7 3 13.7 3.4 14.8.8z"/><path fill="#8BC1B9" d="M1215.5 232.1l-17.7-4.7a2.3 2.3 0 111.7-4.3l16 9z"/><path fill="#AFDDCC" d="M1228.4 203.8c7-2.3 12-6.2 11.1-8.8-.8-2.5-7.1-2.7-14-.5s-12 6.2-11.2 8.7c.9 2.6 7.2 2.8 14.1.6z"/><path fill="#8BC1B9" d="M1233.1 197.3l-15.7 7.6c-1.1.6-2.4.1-3-1a2.2 2.2 0 011.6-3.1l17.1-3.5z"/><path fill="#AFDDCC" d="M1207 215.9c2.4-.8 2.8-6.7.8-13.4-2-6.7-5.6-11.5-8-10.8-2.4.8-2.8 6.8-.8 13.4 2 6.7 5.6 11.5 8 10.8z"/><path fill="#8BC1B9" d="M1201.8 197.8l6.8 15.2c.5 1 0 2.3-1 2.8a2.1 2.1 0 01-3-1.6l-2.9-16.4z"/><path fill="#AFDDCC" d="M1227.5 172c2.3-6 2.4-11.5.2-12.4-2.2-.8-5.8 3.4-8.1 9.4s-2.4 11.5-.2 12.3c2.2.9 5.8-3.3 8.1-9.3z"/><path fill="#8BC1B9" d="M1225.7 165.3l-3.5 15a2 2 0 11-3.8-1l.2-.4 7-13.6z"/><path fill="#EFECFD" d="M603 284.4c1.6-7.3 3.5-14.6 6-21.7a92.3 92.3 0 0110.3-20.8c2.2-3.2 4.8-6.4 7.7-9.2a44.8 44.8 0 0115.8-9.9 37 37 0 0118.9-1.1c4 .7 7.8 2 11.3 3.3 3.6 1.4 7 2.9 10.2 4.3 6.5 3 12.9 5.6 19.5 7.5a102.2 102.2 0 0030.5 4 113.5 113.5 0 0030.8-4.1c6.9-1.8 13.8-3.8 21-5.6a179.9 179.9 0 0143.8-5.3 185.8 185.8 0 0143.9 4c7.2 1.5 14.3 3.4 21.2 5.5 7 2 13.8 4 20.6 5.6a97.8 97.8 0 0041.4 1.4c6.8-1.2 13.5-3.3 20.3-5.6a194 194 0 0121.1-6 132 132 0 0122-2.8 186 186 0 0143.6 3.4c7.2 1.3 14.2 3 21.2 4.5s14 3 21.1 4a262 262 0 0042.7 3.2c7-.1 13.9-1.3 20.5-3.4a79.5 79.5 0 0046.4-40.5c3-6.4 4.9-13.3 5-20.2a1.6 1.6 0 013.1 0c0 7.5-2 14.9-5 21.6a83.4 83.4 0 01-48.2 43.1 76 76 0 01-21.8 4 302.6 302.6 0 01-43.4-2.7 364 364 0 01-21.5-3.8c-7-1.4-14-3-21-4.1-7.1-1.3-14.1-2.2-21.2-2.6-14.1-.9-28.4-.4-42 2.8-6.9 1.5-13.5 3.7-20.4 6.1-6.8 2.4-13.8 4.7-21.2 6.1a105.5 105.5 0 01-44.4-.8c-7.2-1.6-14.2-3.6-21.1-5.5-7-2-13.8-3.7-20.7-5a177.2 177.2 0 00-42-3.3 170.4 170.4 0 00-41.7 5.6c-6.9 1.7-13.7 3.9-20.8 5.8a136 136 0 01-44.4 4.6c-7.5-.5-15-1.7-22.3-3.7-7.3-2-14.3-4.8-21-7.7-6.6-2.8-13-5.6-19.1-6.6-6-1.1-12-.2-17.2 2.8a38.3 38.3 0 00-13.2 13 79.7 79.7 0 00-8.5 18.1c-2.2 6.5-3.7 13.3-4.9 20.1a6.6 6.6 0 11-12.9-2.2v-.2z"/><path fill="#E1DDF7" d="M820.2 234a25.3 25.3 0 0111-1.6l3.6.2 3.7.2 3.6.4 3.6.3 1.8.2 1.9.2c9.6 1.2 19.2 3.1 28.6 5.3l14 3.5 7 1.8 3.5.8 3.5.8c9.3 2.1 18.7 3.6 28.2 4a1 1 0 010 2.1c-9.7.5-19.5-.5-29-2.1l-3.6-.7-3.6-.7-7-1.4-14.1-3-7-1.4-7-1.3-7.1-1-7.1-1-1.8-.2-1.7-.2-3.6-.3c-1.2 0-2.4-.2-3.5-.3l-3.6-.2-3.6-.2c-1.1 0-2.3 0-3.5-.2a24.3 24.3 0 01-7.1-1.9 1.2 1.2 0 010-2z"/><path fill="#272838" d="M617.2 278.1a10.7 10.7 0 01-.7-5.3l.5-2.4.6-2.4.7-2.5.8-2.4a70.7 70.7 0 016-14.1c1.7-3 3.6-6 6-8.5a32 32 0 018.3-6.6c3.2-1.7 6.7-2.8 10.2-3.1 3.5-.4 7-.1 10.3.6 3.4.7 6.5 2 9.6 3.3.5.3.7 1 .5 1.4a1 1 0 01-1.3.6c-1.6-.5-3-1-4.6-1.3l-2.4-.5c-.8-.1-1.5-.3-2.3-.3a36.4 36.4 0 00-9.3.2c-3 .5-5.8 1.6-8.3 3.2a27.2 27.2 0 00-6.8 6c-2 2.3-3.7 4.9-5.2 7.6a79.8 79.8 0 00-3.7 8.7l-1.6 4.5-.6 2.3-.7 2.3c-.4 1.6-.6 3.2-1.2 4.7l-1 2.3c-.4.7-1 1.4-1.7 2.1-.5.5-1.3.5-1.8 0a.8.8 0 01-.3-.4z"/><path fill="#272838" d="M600.8 280.6c1.5-7.2 3.3-14.4 5.8-21.4 2.5-7 5.6-14 10-20.3 2-3.1 4.5-6 7.3-8.8a40.9 40.9 0 0115-9.2 36.6 36.6 0 0111.7-1.6 63.7 63.7 0 0116.7 4c3.5 1.3 6.8 2.8 10.1 4.3 6.6 2.9 13.1 5.5 20 7.4a104.5 104.5 0 0031.3 3.8 119.2 119.2 0 0031.5-4.5c7-1.8 14-3.9 21-5.6 14.3-3.5 29-5 43.6-5.1a189.6 189.6 0 0143.6 4.1 286 286 0 0121.2 5.5c7 2 13.9 4 20.8 5.5a107 107 0 0042.3.6c7-1.4 13.8-3.7 20.6-6a132 132 0 0143-8.4 175.7 175.7 0 0143.5 4l21.2 4.7a251.6 251.6 0 0064.2 7.8 82.7 82.7 0 0057.5-24.7c5-5 9.3-10.9 12.5-17.3a46.8 46.8 0 005.3-20.4c0-.5.4-.9.9-.9s.8.4.8.9c0 7.4-2.1 14.7-5.3 21.3a72 72 0 01-12.7 17.8 85 85 0 01-59 25.7 270.5 270.5 0 01-64.8-7.3c-7.1-1.5-14.2-3.2-21.2-4.5a172.7 172.7 0 00-42.8-3.6 129.4 129.4 0 00-41.9 8.4c-6.8 2.4-13.8 4.8-21 6.3a110.6 110.6 0 01-44-.3c-7.1-1.4-14.1-3.5-21-5.5-7-2-14-3.8-21-5.2a182.9 182.9 0 00-42.6-3.7c-14.3.2-28.6 1.8-42.4 5.3-7 1.7-13.8 3.8-20.9 5.7a138.9 138.9 0 01-32.8 5c-3.6 0-7.3 0-11-.3-7.4-.5-14.8-1.6-22-3.6-7.1-1.9-14-4.6-20.7-7.5-6.7-3-13.2-5.8-19.8-7a31.9 31.9 0 00-9.8-.4 30.5 30.5 0 00-9.3 3.1c-5.8 3.1-10.6 8.1-14.4 13.8a82 82 0 00-9 18.8c-2.2 6.7-3.8 13.6-5.1 20.6a3.5 3.5 0 11-6.9-1.3z"/><path fill="#AFDDCC" d="M1089.6 249c13.3-.9 23.5-9.2 22.9-18.6-.7-9.3-12-16-25.3-15.1-13.3.9-23.6 9.2-22.9 18.6.7 9.3 12 16 25.3 15.1z"/><path fill="#8BC1B9" d="M1065.4 230.6a23.9 23.9 0 014.6-4.3 38.2 38.2 0 0117.3-7.3 35 35 0 0112.6 1 32 32 0 0111.1 5.7c.5 0 .8.6.7 1.1l-.2.6-.7 1.6a19.9 19.9 0 01-2.8 4 23.7 23.7 0 01-5 4.3c-3.6 2.4-8 4-12.2 4.4l-3.3.3-3.2-.1-1.6-.1-1.6-.3-3-.6c-4.2-1-8-2.6-11.5-4.8a1.3 1.3 0 01.8-2.4c4 .4 7.8.9 11.6 1l1.4.2h4.1a44.5 44.5 0 0015.6-3 32.8 32.8 0 008.1-5l1-.8.5 1.7a56.4 56.4 0 00-16.3-3.7 41 41 0 00-23.8 6.9l-1.3.7-1.1.8h-.1c-.6.4-1.4.2-1.8-.4-.3-.4-.2-1 .1-1.5z"/><path fill="#272838" d="M1085.9 210.7c5.9-.2 11.9 1 17 3.8 2.7 1.4 5.2 3.2 7 5.6 2 2.4 3.3 5.3 3.6 8.5.3 3.2-.4 6.4-1.9 9.2a22.2 22.2 0 01-6 7 32.7 32.7 0 01-34.7 3 22.4 22.4 0 01-7.3-6.2l-.8-1-.6-1-1-2.3-.3-.6-.1-.6-.4-1.2-.3-2.5c-.2-3.4.8-6.7 2.5-9.5 1.6-2.7 3.9-5 6.4-6.7 5-3.5 11-5.2 16.9-5.5zm.2 2.9c-5.4.6-10.7 2.4-14.8 5.7-2 1.6-3.8 3.6-4.9 5.8a12.7 12.7 0 00-1.4 7c.2 2.3 1.2 4.5 2.6 6.4 1.5 1.9 3.5 3.5 5.7 4.7 4.5 2.4 9.9 3.4 15 3.1 5.3-.3 10.6-1.8 14.9-4.8 2.1-1.4 4-3.3 5.3-5.5 1.4-2.1 2.1-4.6 2-7.2 0-2.5-1-5-2.6-7.1a19 19 0 00-6-5.3 29 29 0 00-15.8-2.8z"/><path fill="#C4BFFF" d="M625.2 305.7c6.2-12.2 3.9-25.9-5.2-30.4-9-4.6-21.3 1.7-27.4 14-6.2 12.2-3.9 25.9 5.2 30.4 9 4.6 21.3-1.7 27.4-14z"/><path fill="#272838" d="M631.7 306.2a38 38 0 01-13.8 13.5 26.1 26.1 0 01-9.6 3.3c-3.5.5-7.2.1-10.5-1.3a18.4 18.4 0 01-8-6.5c-2-2.8-3-6-3.6-9.2-1-6.5.5-13.1 3.5-19 3.1-5.8 7.8-11 14.2-14.5a28 28 0 0110.6-3.3l1.4-.2h1.5c1 0 2 .2 2.9.3l.7.1.7.2 1.4.4 2.7 1c3.5 1.8 6.2 4.5 8 7.5 1.6 3 2.5 6.3 2.7 9.5a29 29 0 01-1.1 9.5c-.9 3-2.1 6-3.7 8.7zm-2.1-1a27.7 27.7 0 002.9-16.8c-.5-2.8-1.5-5.4-3-7.6-1.7-2.3-3.8-4-6.3-5-5-2-11-1-16 1.7a34.9 34.9 0 00-12.2 12 29 29 0 00-4.2 16c.2 2.8.9 5.5 2.3 8 1.3 2.4 3.4 4.5 6 5.8a17 17 0 009 1.6c3-.2 6.1-1.2 8.9-2.6 2.8-1.5 5.3-3.4 7.4-5.7 2-2.2 3.8-4.7 5.2-7.4z"/><path fill="#272838" d="M605.5 293.8l-5.9 4.3.3-1.5 5.1 5.6c.8.8.8 2 0 2.8a2 2 0 01-3.2-.5l-3.6-6.7a1 1 0 01.2-1.4l6-4.3a1 1 0 011.4.2 1 1 0 01-.3 1.5zm13.8 10.5l5.8-4.4-.2 1.5-5.3-5.5a2 2 0 010-2.8 2 2 0 013.1.5l3.8 6.5.1.1c.3.5.2 1-.3 1.4l-5.7 4.4a1 1 0 01-1.3-1.7zm-1.4-13.9a47 47 0 01-8 17.5c-.4.6-1.1.6-1.5.2-.3-.3-.4-.7-.3-1a46.7 46.7 0 018-17.5c.4-.6 1.1-.6 1.5-.2.3.3.4.7.3 1z"/><path fill="#AFDDCC" d="M800 249c17.6-1.2 31.2-11.8 30.3-23.7-.8-12-15.7-20.6-33.3-19.3-17.5 1.2-31 11.9-30.2 23.8.8 11.9 15.7 20.5 33.3 19.3z"/><path fill="#8BC1B9" d="M770.3 225.5a31.3 31.3 0 015.8-5.5 48.7 48.7 0 0122-9.2 43.9 43.9 0 0116.2 1.1c5.2 1.5 10 4 14.1 7.3.7.2 1 .8.9 1.4v.1l-.3.7c-.2.8-.5 1.3-.8 2a22.5 22.5 0 01-3.5 5.2c-1.8 2.1-4 4-6.3 5.5-4.8 3-10.2 5-15.8 5.6-1.3.2-2.7.2-4.1.3l-4.1-.1-2-.2a63 63 0 01-2-.3c-1.4-.1-2.7-.5-4-.7a47 47 0 01-14.6-6.2 1.7 1.7 0 011-3c5.2.4 10 1 14.8 1.3l1.8.1 1.7.1h3.6a57.8 57.8 0 0019.9-3.8 40.8 40.8 0 0010.3-6.3l1.3-1.1.6 2.2a53.8 53.8 0 00-27.8-4.4 56.3 56.3 0 00-20.2 6.6l-3.2 1.8-1.6 1-1.5.9h-.1c-.8.5-1.8.3-2.2-.5-.4-.6-.3-1.3.1-1.9z"/><path fill="#272838" d="M796.4 200.5c3.8-.1 7.5.1 11.2.9 3.6.7 7.2 2 10.5 3.8 3.3 1.8 6.4 4.1 8.8 7.1 2.4 3 4 6.7 4.4 10.7.3 4-.6 8-2.5 11.4a28 28 0 01-7.5 8.8 40.8 40.8 0 01-21.3 8 44 44 0 01-11.5-.6 38 38 0 01-11-3.8 28.3 28.3 0 01-9-7.7 20 20 0 01-1.3-23.1 28 28 0 018-8.4 40.6 40.6 0 0121.2-7zm.2 2.9c-7 .6-13.8 3-19.1 7.2-2.7 2.1-5 4.7-6.5 7.6-1.5 2.9-2.3 6-2 9.2.3 3 1.6 6 3.6 8.6a24 24 0 007.5 6.2 36.8 36.8 0 0019.6 4c3.4-.2 6.8-.7 10-1.8 3.3-1 6.4-2.5 9.1-4.5 2.8-2 5.2-4.4 7-7.2a17 17 0 002.5-9.5c-.2-3.3-1.4-6.6-3.4-9.3a25 25 0 00-7.8-6.8 37.3 37.3 0 00-20.5-3.7z"/><defs><linearGradient id="paint0_linear" x1="660.9" x2="676.2" y1="151.2" y2="200.5" gradientUnits="userSpaceOnUse"><stop stop-color="#70E6E6"/><stop offset="1" stop-color="#70E6E6" stop-opacity="0"/></linearGradient><clipPath id="clip0"><path fill="#fff" d="M0 0h615.6v147.6H0z" transform="translate(0 183.4)"/></clipPath></defs></svg>